<?xml version="1.0" standalone="no"?>
<!DOCTYPE svg PUBLIC "-//W3C//DTD SVG 1.1//EN" "http://www.w3.org/Graphics/SVG/1.1/DTD/svg11.dtd" >
<svg xmlns="http://www.w3.org/2000/svg" xmlns:xlink="http://www.w3.org/1999/xlink" version="1.1">
<metadata>
Created by FontForge 20201107 at Wed Aug 28 06:23:18 2024
 By 
(c)2024 by Ronny Studio. All rights reserved.
</metadata>
<defs>
<font id="EramoreDEMORegular" horiz-adv-x="1976" >
  <font-face 
    font-family="Eramore DEMO"
    font-weight="400"
    font-stretch="normal"
    units-per-em="2048"
    panose-1="0 0 0 0 0 0 0 0 0 0"
    ascent="1638"
    descent="-410"
    x-height="1278"
    cap-height="1308"
    bbox="-375.133 -549.9 1872 1908.79"
    underline-thickness="0"
    underline-position="0"
    unicode-range="U+000A-F019"
  />
<missing-glyph horiz-adv-x="1079" 
d="M102 1434h875v-1434h-875v1434zM160 1393l379 -633l381 633h-760zM514 717l-369 614v-1231zM541 674l-379 -631h758zM565 717l371 -621v1239z" />
    <glyph glyph-name="TH.liga" unicode="TH" horiz-adv-x="1417" 
d="M1033 1105q-50 -30 -106 -39q-58 -9 -162.5 -31t-135.5 -28q-14 -2 -17 -20q-8 -47 -24.5 -141t-24.5 -141q-15 -82 -44 -263.5t-47 -277.5q-14 -70 -29 -103q-16 -37 -35 -54q-36 -34 -61 8q-14 23 -20 69q-9 68 10 157q17 79 51 223t44 188q30 133 64 305q0 2 1.5 9.5
t2.5 13.5q-13 -1 -27 -4t-30 -6.5t-25 -5.5q-197 -39 -275 -50q-56 -7 -93 -6q-34 2 -46.5 17t-6.5 48q6 40 29 68q12 17 33 20q17 3 66 23q59 24 178.5 73.5t179.5 74.5q27 11 83 33q20 8 30 21q11 12 25 18q16 7 22 3q11 -6 27 1q187 76 403 140q22 7 49 7q37 -1 61.5 -24
t27.5 -60q6 -78 -44 -143q-59 -77 -134 -123zM1496 1407q5 -21 0 -50q-16 -75 -59 -109q-7 -5 -15 -24q-23 -54 -56 -156q-34 -107 -76 -278q0 -3 -1 -8.5t-2 -7.5q3 -3 18 -3q8 -1 25 -1h25q9 -1 11.5 -4t2.5 -12q0 -22 -21 -29l-57 -18q-21 -5 -26 -30q-24 -122 -38 -182
q-67 -287 -95 -372q-5 -14 -17 -42q-7 -16 -20 -32q-21 -25 -45 -25t-45 25q-22 28 -36 70q-33 104 -18 231q10 86 54 232q1 4 3 10t3 10q0 2 -1 5q-4 0 -17 -5q-72 -27 -88 -31q-17 -4 -21 -23q-36 -154 -51 -231q-20 -100 -45 -157q-14 -34 -38 -69q-20 -29 -39 1t-23 81
q-11 133 31 258q11 33 35 97q6 16 7 20q-7 3 -27 3q-30 2 -51 8q-25 7 -33 34q-18 66 18 128q12 22 38 19q7 -2 25.5 -1t25 1.5t25 3t25.5 3.5q4 1 11.5 1t12.5 0.5t10.5 3t9.5 5.5q4 4 7.5 10t6.5 15t5 13q44 94 70 139q24 41 44 62q10 11 21 17q23 13 26 -13
q5 -38 -17 -64q-16 -20 -33 -62q-19 -49 -38 -112h115q8 0 14 12q50 112 52 116q131 276 174 357q39 75 81 126q27 33 45 45q15 10 28 14q35 11 44 -25z" />
    <glyph glyph-name="th.liga" unicode="th" horiz-adv-x="1417" 
d="M1035 1105q-50 -30 -106 -39q-58 -9 -163.5 -31t-135.5 -28q-14 -2 -17 -20l-48 -282q-15 -82 -44 -263.5t-47 -277.5q-13 -66 -30 -103q-17 -38 -34 -54q-37 -35 -62 8q-14 23 -20 69q-9 65 11 157q17 79 51 223t44 188q23 101 63 305q0 2 1.5 9.5t2.5 13.5
q-17 -2 -47.5 -9t-33.5 -7q-195 -39 -276 -50q-56 -7 -92 -6q-34 2 -46.5 17t-6.5 48q6 40 29 68q13 17 32 20t67 23q60 24 179 73.5t178 74.5q27 11 83 33q21 9 31 21q11 13 24 18q16 7 22 3q11 -6 27 1q187 76 403 140q22 7 49 7q37 -1 61.5 -24t27.5 -60q6 -79 -43 -143
q-59 -77 -134 -123zM1497 1407q5 -21 0 -50q-16 -75 -59 -109q-6 -5 -15 -24q-19 -45 -55 -156q-34 -107 -76 -278q-1 -2 -2.5 -7.5t-1.5 -8.5q3 -3 18 -3q9 -1 25 -1h25q9 -1 11.5 -4t2.5 -12q0 -22 -21 -29l-57 -18q-21 -5 -26 -30q-24 -122 -38 -182q-67 -287 -95 -372
q-10 -28 -16 -42q-7 -16 -20 -32q-21 -25 -45.5 -25t-45.5 25q-21 26 -35 70q-33 106 -19 231q9 81 55 232q1 3 2.5 10t2.5 10q0 2 -1 5q-3 0 -16 -5q-72 -27 -88 -31q-18 -4 -22 -23q-36 -154 -51 -231q-20 -100 -45 -157q-14 -34 -38 -69q-19 -28 -38 1q-21 32 -24 81
q-11 133 31 258q3 9 36 97q5 16 7 20q-7 3 -28 3q-29 2 -50 8q-26 8 -34 34q-18 66 18 128q12 22 38 19q7 -2 25.5 -1t25 1.5t25 3t25.5 3.5q4 1 11.5 1t12.5 0.5t10.5 3t9.5 5.5q5 4 8 10t7 15.5t5 12.5q44 94 70 139q24 41 44 62q11 12 20 17q10 6 18 2.5t9 -15.5
q5 -37 -18 -64q-16 -20 -33 -62q-19 -49 -38 -112h116q8 0 14 12q5 12 23 53t28 63q123 258 175 357q41 79 80 126q26 32 46 45q16 11 27 14q35 11 44 -25z" />
    <glyph glyph-name=".notdef" horiz-adv-x="1079" 
d="M102 1434h875v-1434h-875v1434zM160 1393l379 -633l381 633h-760zM514 717l-369 614v-1231zM541 674l-379 -631h758zM565 717l371 -621v1239z" />
    <glyph glyph-name=".null" horiz-adv-x="0" 
 />
    <glyph glyph-name=".null" horiz-adv-x="0" 
 />
    <glyph glyph-name="nonmarkingreturn" horiz-adv-x="682" 
 />
    <glyph glyph-name="controlLF" unicode="&#xa;" horiz-adv-x="0" 
 />
    <glyph glyph-name="controlCR" unicode="&#xd;" horiz-adv-x="0" 
 />
    <glyph glyph-name="space" unicode=" " horiz-adv-x="454" 
 />
    <glyph glyph-name="exclam" unicode="!" horiz-adv-x="385" 
d="M370 1319q13 -45 7 -119q-8 -110 -46 -240q-73 -252 -112 -437q-28 -130 -44 -194q-8 -32 -16 -47q-8 -16 -19 -16q-12 0 -20 16q-8 17 -12 46q-3 31 -3 125q2 63 19 232q22 205 25 246q1 17 1 51q0 100 17 186q13 66 45 126q19 36 45 62q16 16 34 23q34 12 57 -14
q12 -13 22 -46zM137 186q19 0 28.5 -7.5t14.5 -25.5q4 -12 4 -32q-3 -74 -52 -124q-20 -20 -46 -26q-42 -8 -59 29q-6 14 -7 22q-8 79 39 125q3 3 9 11t7 9q27 28 54 19h8z" />
    <glyph glyph-name="quotedbl" unicode="&#x22;" horiz-adv-x="739" 
d="M403 1420q3 1 18 13q61 55 137 90q12 6 17 7q40 8 54 -33q15 -41 3 -100q-8 -41 -32 -80q-75 -126 -201 -241q-17 -16 -32 -23q-7 -4 -17 -6q-9 -1 -13 3.5t-1 13.5q14 39 29 66q25 42 61 134q7 20 6 34q0 12 -9 18q-16 11 -43 20q-6 3 -11 -4q-2 -2 -3.5 -6.5t-3.5 -6.5
q-75 -122 -193 -229q-19 -17 -33 -24q-9 -6 -18 -7q-10 -1 -14 3.5t0 14.5q17 47 28 65q25 42 61 134q3 5 4 11q6 21 1 32t-24 19q-3 2 -41 15q-16 6 -8 21q5 11 15 22q79 92 191 142q23 10 40.5 2t25.5 -31q11 -31 8 -69q-1 -3 -1.5 -9.5t-0.5 -10.5z" />
    <glyph glyph-name="numbersign" unicode="#" horiz-adv-x="1114" 
d="M1204 889q24 -11 6 -32q-14 -18 -43 -23q-14 -2 -43 -6t-43 -6q-54 -8 -108 -18q-16 -4 -19 -13q-38 -106 -57 -158q5 -5 20 -7q56 -10 82 -23q12 -6 13.5 -11.5t-6.5 -16.5q-17 -24 -46 -29q-70 -12 -84 -14q-16 -1 -22 -17q-46 -128 -69 -191q-42 -112 -63 -167
q-21 -54 -51 -92q-15 -20 -33 -31q-40 -25 -68 14q-19 26 -26 72q-15 98 19 227q12 44 37 106q2 4 5 12t5 12q-3 4 -12 2q-118 -30 -178 -40q-14 -2 -21 -20q-45 -106 -141 -316q-23 -49 -54 -97q-21 -34 -44 -50q-29 -21 -53.5 -14t-38.5 39q-15 36 -17 87q-3 128 43 247
q17 45 44 102q-5 5 -24 5q-46 2 -91 9q-5 1 -20 5q-25 7 -21 34q3 18 16 38q45 68 113 90q48 15 119 29q19 4 28 20q26 46 80 136q10 15 10 21q-60 6 -89 9q-51 6 -53 6q-32 5 -15 32q32 51 86 57q42 4 126 8q18 1 28 17q57 94 151 233q33 49 71 95q23 27 42 43q11 10 22 15
q20 11 34 4t17 -30q3 -26 -6 -59q-9 -31 -26 -63q-50 -93 -112 -227q-5 -9 -4 -12q1 -2 12 -2q138 8 196 11q13 1 21 16q88 169 155 339q20 50 42 76q20 24 38 32q33 16 42 -19q6 -25 1 -60q-13 -85 -51 -194q-10 -28 -30 -86t-30 -86q-1 -3 -3.5 -9.5t-3.5 -9.5q3 -3 12 -5
q28 -5 79.5 -18.5t71.5 -17.5q19 -3 32 -10zM750 769q2 5 1 7q-2 2 -4 2q-119 4 -181 9q-12 1 -17 -11q-6 -16 -19.5 -47t-20.5 -46q-2 -6 -1 -10q1 -1 15 -1q89 5 161 -6q13 -1 18 9q8 15 24 46.5t24 47.5z" />
    <glyph glyph-name="dollar" unicode="$" horiz-adv-x="774" 
d="M829 1397q6 -28 -1 -68q-11 -61 -50 -167q-34 -92 -51 -129q-12 -25 -27 -39q-16 -14 -27 -10t-15 24q-4 25 4 86l18 111q4 22 0 25t-25 -6q-15 -6 -42.5 -18.5t-42.5 -18.5q-13 -5 -18 -21q-38 -116 -55 -174q-3 -11 -2 -14t12 -10q72 -46 116 -86q136 -126 109 -309
q-35 -223 -209 -393q-105 -101 -228 -140q-14 -5 -14 -17q0 -10 -12 -24q-13 -14 -37 -44q-22 -26 -28 -43q-1 -5 -7 -11q-14 -18 -26 2q-9 17 -9 36q0 7 5 66q2 12 0 15t-12 5q-71 16 -115 76q-64 86 -79 165q-8 42 -1 97q2 19 14 30q5 5 10.5 4t7.5 -8q1 -3 2 -9t1 -7
q16 -67 87 -103q21 -11 67 -9q17 1 49 5q13 2 16 5t5 15l30 150q17 85 61 316q0 2 2 6q6 17 -12 31q-89 65 -122 93q-21 18 -48 46q-43 46 -28 107q25 100 114 160q42 29 141 74q42 20 63 28q19 7 24 28q5 24 17 70q18 74 59 126q22 28 46 42q28 16 49 7.5t29 -39.5
q10 -36 -3 -90q-3 -14 -15 -55q25 11 67 29q54 22 68 25q56 12 68 -43zM381 1099q-35 -14 -61 -28q42 -22 48 -24q6 15 13 52zM538 554q-34 62 -115 134q-1 1 -3 1.5t-3 0.5q-17 -66 -51.5 -198t-51.5 -198l4 -2h2q2 0 5.5 1t4.5 2q104 37 181 107q16 14 42 48q10 13 9 31
q-3 35 -24 73z" />
    <glyph glyph-name="percent" unicode="%" horiz-adv-x="1056" 
d="M1008 1417q5 -32 -7 -73q-16 -59 -54 -121q-154 -253 -243 -414q-155 -279 -277 -552q-13 -30 -29.5 -62t-39 -72.5t-32.5 -60.5q-12 -24 -37 -70t-38 -70q-18 -32 -32 -46q-21 -21 -38 -16q-19 6 -23 36q0 1 -3 35q2 54 22 131q54 211 110 332q94 203 215 425
q100 183 238 413q9 14 27.5 47.5t29.5 50.5q42 64 91 101q29 22 53 29q27 8 44.5 -3.5t22.5 -39.5zM332 780q-46 -58 -102 -92q-43 -26 -80 -26q-42 0 -68 33q-24 32 -33 87q-14 93 10 195q39 162 140 326q17 27 36 46q11 11 19 15q22 9 30 -8q7 -15 24 -10q12 3 35.5 8
t29.5 6q30 6 50 -17q18 -20 29 -57q13 -43 13 -111q-6 -232 -133 -395zM190 947q18 5 38 20q58 46 83 112q5 14 4 23q-4 59 -21 87q-19 30 -39 3q-2 -2 -4 -7t-2 -6q-35 -88 -54 -153q-11 -37 -18 -68q-2 -10 0 -12t13 1zM937 520q30 -50 37 -124q0 -8 1 -23t1 -22
q0 -147 -94 -269q-69 -88 -151 -141q-43 -28 -75 -35q-61 -15 -99 38q-26 37 -35 101q-17 135 52 290q24 55 69 122q2 2 6.5 6t5.5 5q45 38 115 65q10 4 31 11.5t31 11.5q68 26 105 -36zM815 324q8 13 -3 19q-2 1 -10 6t-9.5 5.5t-9.5 5t-10 5t-10 4.5t-10 3t-11 2t-11.5 1
t-11.5 -1q-4 0 -6 1l-3.5 3.5t-3.5 3t-5 -0.5q-3 -2 -10 -13q-35 -61 -54 -127q-16 -56 -19 -87q22 4 48 20q83 56 149 150z" />
    <glyph glyph-name="ampersand" unicode="&#x26;" horiz-adv-x="1316" 
d="M1194 287q19 11 19 -11q-2 -44 -32 -64q-50 -33 -115 -23q-63 8 -133 48q-72 41 -171 137l-43 43q-8 8 -10.5 8.5t-12.5 -6.5q-24 -16 -72.5 -48t-73.5 -48q-211 -137 -367 -227q-35 -21 -68 -35q-17 -8 -31 -11q-30 -4 -37 25q-5 18 0 43q12 64 53 118q34 45 124 141
q20 21 249 256l19 19q11 13 11 14.5t-9 13.5q-46 63 -74 110q-46 76 -65 147q-13 51 -8 93q13 94 77 167q32 36 86 56q58 21 163 36q78 10 123 10q96 0 135 -9q25 -5 41 -14q38 -19 40 -63q1 -33 -12 -71q-21 -59 -67 -124q-45 -63 -172 -201q-8 -8 -24.5 -25t-24.5 -26
t-8.5 -12t6.5 -12q6 -8 29.5 -38t35.5 -47q9 -12 19 -4q18 12 54 34q82 49 168 62q22 4 55 11q10 2 14 2q13 1 17 -4.5t1 -18.5t-11 -21q-2 -3 -8 -7q-42 -27 -109.5 -87t-90.5 -78q-9 -8 -9.5 -10.5t7.5 -11.5q86 -103 164 -173q33 -30 57 -45l30 -18q33 -17 61 -1z
M342 365q44 29 133 86.5t133 86.5q-7 9 -15 18.5t-18 21t-15 17.5q-5 7 -12 0q-2 -2 -4.5 -5t-3.5 -4q-98 -102 -192 -207q-8 -8 -6 -14zM666 829q144 148 201 217q25 31 42 56q7 10 6 16.5t-11 13.5t-30 13q-35 9 -81 7q-14 -1 -36 -3q-143 -14 -245 -50q-26 -10 -27.5 -13
t11.5 -26q50 -93 150 -231q7 -9 9 -9t11 9z" />
    <glyph glyph-name="quotesingle" unicode="'" horiz-adv-x="507" 
d="M111 1089q-9 24 -9 59q1 55 30 109q24 45 58 90q77 101 149 164q15 13 33 24q7 4 18 6q10 1 13.5 -3.5t0.5 -13.5q-17 -47 -28 -65q-26 -44 -61 -133q-1 -1 -1 -3t-1 -3q-10 -26 -4.5 -37.5t31.5 -22.5q11 -5 35 -13q16 -5 8 -21q-3 -5 -12 -17q-81 -97 -197 -147
q-45 -19 -63 27z" />
    <glyph glyph-name="parenleft" unicode="(" horiz-adv-x="739" 
d="M636 1350q3 -23 -16 -39q-2 -2 -7.5 -4.5t-6.5 -3.5q-82 -44 -125 -109q-21 -31 -81 -100q-126 -146 -156 -342q-37 -232 97 -428q46 -66 105 -111q32 -24 65 -35q24 -8 38 -7q17 1 23 -16q5 -14 5 -33q-2 -36 -18 -66q-10 -20 -34 -23q-81 -8 -162 33q-104 53 -170 163
q-59 99 -81 238q-10 63 -10 132q6 324 185 602q43 66 105 128q29 29 50 40q46 25 86 12q11 -4 35 -4q29 0 47 -6q24 -9 26 -21z" />
    <glyph glyph-name="parenright" unicode=")" horiz-adv-x="739" 
d="M618 1015q18 -82 18 -179q-6 -326 -184 -602q-47 -72 -109 -133q-29 -27 -53 -39q-38 -19 -77 -9q-9 3 -55 5q-24 2 -38 9q-23 11 -15 35q6 17 22 26q26 14 38 22q53 33 86 80q36 51 91 115q122 145 153 337q36 232 -94 425q-38 56 -91 101q-38 31 -68 44q-25 11 -50 11
q-13 0 -17.5 4t-8.5 16q-3 9 -3 19q-1 34 12 66q14 33 47 34q56 3 110 -15q123 -42 203 -164q57 -86 83 -208z" />
    <glyph glyph-name="asterisk" unicode="*" horiz-adv-x="559" 
d="M453 1243q10 -6 0 -18q-4 -5 -19 -9q-7 -2 -36 -13t-46 -12q6 -12 32 -48q2 -3 10.5 -14t12.5 -17q19 -30 -11 -60q-23 -23 -50 -4q-58 43 -71 98q-5 0 -11 -8q-13 -16 -39.5 -48t-39.5 -48q-9 -11 -28.5 -13.5t-31.5 5.5q-16 11 -6 29q7 13 18 22q48 42 74 61
q4 3 12 9.5t12 9.5q-2 5 -12 5q-12 2 -36 4t-36 4q-16 2 -23 4q-36 9 -19 45q6 13 20 29q25 28 59 18q43 -11 79 -25q13 -6 16 8q0 2 7 25.5t8 36.5q5 43 28 65l4.5 4.5t5.5 5t5 3t6.5 1.5t6.5 -2q9 -5 4 -27q-4 -20 -17 -77q-5 -21 -5 -24q1 -1 16 -1l36 3q9 1 19 -1.5
t15.5 -6t16 -10.5t14.5 -9z" />
    <glyph glyph-name="plus" unicode="+" horiz-adv-x="815" 
d="M702 777q15 -18 7 -39t-31 -26q-18 -4 -40 -7q-38 -6 -74 -21q-57 -26 -96 -34q-13 -3 -13 -17q0 -58 -2 -87q-5 -69 -29 -126q-15 -35 -33 -53q-37 -35 -65 7q-21 32 -25 89q-1 16 -1 47q0 47 7 110q1 2 1 7v7q2 11 -9 11q-8 1 -25 1q-80 5 -144 17q-19 4 -24 11.5
t-1 25.5q17 70 81 95q32 12 100 26q31 6 35 6q14 1 17 17q9 56 20 97q10 42 28 70q13 21 26 29q23 15 35 -11q8 -17 10 -54q1 -15 1.5 -31.5t1 -37t0.5 -31.5v-12q0 -13 12 -11q6 1 17 2t16 2q76 11 133 -34q5 -3 38 -24q20 -13 26 -21z" />
    <glyph glyph-name="comma" unicode="," horiz-adv-x="415" 
d="M312 171q-1 -55 -30 -111q-19 -37 -52 -82q-78 -106 -155 -173q-15 -13 -33 -24q-8 -5 -15 -6q-9 -3 -15.5 2t-1.5 16q25 58 29 65q23 39 60 133q4 8 5 12q6 21 0.5 31.5t-25.5 18.5q-16 8 -40 16q-14 6 -9 19q3 7 13 19q81 96 195 147q23 10 40.5 2t25.5 -32
q8 -23 8 -53z" />
    <glyph glyph-name="hyphen" unicode="-" horiz-adv-x="641" 
d="M502 771q24 -5 31 -15.5t3 -35.5q-12 -58 -20 -87q-12 -47 -64 -52q-10 -1 -29 -1q-11 -2 -61 6q-22 4 -33 4q-28 0 -57 2.5t-73 9t-57 8.5q-11 1 -24 7q-25 11 -11 35q7 13 27 28q32 24 81 36q116 30 199 50q54 13 88 5z" />
    <glyph glyph-name="period" unicode="." horiz-adv-x="305" 
d="M182 183q19 -34 19 -90q-3 -81 -45 -147q-19 -29 -36 -40q-41 -28 -71 11q-6 7 -24.5 52.5t-20.5 57.5q-7 44 9 92q15 48 55 78q14 11 31 17q55 19 83 -31z" />
    <glyph glyph-name="slash" unicode="/" horiz-adv-x="749" 
d="M646 1342q3 -29 -9 -55q-12 -27 -43 -136q-26 -90 -55 -183.5t-73 -228t-59 -181.5q-84 -263 -135 -402q-21 -59 -42 -99q-15 -27 -27 -42q-10 -12 -21 -20q-41 -30 -65 16q-10 19 -14 56q-1 0 -1 13l1 13q0 80 35 161q14 33 64.5 143.5t75.5 171.5q183 436 261 671
q20 58 37 85q14 23 30 35q15 11 26 6q12 -6 14 -24z" />
    <glyph glyph-name="zero" unicode="0" 
d="M1601 747q36 -7 39 -44q-114 -18 -172 -27v-8q-2 -85 -58 -147q-20 -23 -45 -30q-33 -8 -51 18q-2 3 -4 7l-4.5 9t-3.5 8q-1 1 -1.5 3.5t-0.5 3.5q-2 -5 -6 -13q-9 -20 -24 -35q-22 -20 -50 -17q-20 2 -29 20q-2 4 -3 7l-7 -7q-18 -20 -38 -29q-12 -5 -22 -4
q-24 3 -31 25q-1 3 -2.5 8.5t-2.5 8.5q-2 -3 -4 -7q-14 -21 -35 -35q-20 -12 -31 -12q-22 -2 -35 16q-4 6 -12 20q0 -1 -1 -2.5t-2 -2.5q-11 -20 -21 -29q-22 -21 -54 -16q-19 3 -25 21q-1 3 -6 22q-1 -1 -2 -2.5t-1 -2.5q-9 -17 -17 -27q-21 -29 -58 -26q-22 1 -30 25
q-1 2 -2 6.5t-2 7.5q-5 -5 -7 -8q-21 -26 -43 -39q-14 -7 -25 -6q-18 1 -27 18q-4 8 -6 26q-2 28 7 73q10 51 38 130q2 6 3 10q-7 -1 -20.5 -2.5t-19.5 -1.5q-1 -4 -3.5 -13t-4.5 -14q-3 -9 -9 -25q-1 -4 -9.5 -9t-13.5 -5t-5 5q0 4 1 7q1 5 4 16.5t5 17.5q1 3 1.5 8t0.5 8
q-3 0 -7 -0.5t-6 -0.5h-23q-15 1 -10 18q12 2 44 8q0 10 -6 16q-4 4 -10 4q-5 0 -13 -2q-39 -10 -59 -40q-11 -17 -7 -38q5 -23 13 -39q3 -5 14.5 -29.5t18.5 -37.5q14 -26 15 -47q2 -32 -16 -58q-33 -51 -96 -63q-29 -5 -50 3q-28 9 -41 33q-12 19 -4 43q8 27 42 54
q0 -3 0.5 -8t1.5 -8q3 -11 8 -26q4 -8 7 -12q20 -28 49 -11q15 9 25 22q13 17 8 39q-4 18 -14 36q-4 8 -13 23.5t-13 23.5q-10 22 -14 40q-6 26 9 54q9 17 25 33q39 36 89 46q19 4 33 1q20 -3 28 -23q1 -3 6 -24q7 1 22.5 3.5t24.5 3.5q4 18 -13 27q35 19 59 22h13
q17 -2 17 -19q0 -9 -4 -25q-3 -12 -3 -13q0 1 4 5.5t6 7.5q4 6 11 7l93 15q21 4 64 11t65 11q27 5 47 -1q26 -8 40 -32q0 -2 1 -4q-17 -2 -36 -4t-41 -4.5t-35 -3.5q-19 -2 -57 -5.5t-56 -5.5q-74 -8 -112 -12q-3 -8 -9 -22t-9 -22q-42 -107 -45 -116q-8 -28 -9 -42v-11
q2 -15 17 -12q7 1 13 6q16 11 30 34q1 2 1 6q6 53 43 144q2 5 6 6q20 6 31 6q23 0 21 -21q0 -4 -5 -21q-21 -64 -26 -83q-4 -13 -8 -43q-1 -5 1 -14q2 -10 10 -7q5 1 12 8q12 17 14 22q7 17 19 53q23 73 37 105q4 9 11 10q3 0 9 2t9 2q1 0 3 0.5t3 0.5q26 0 23 -26
q-2 -12 -4 -16q-23 -64 -29 -93q-4 -19 -5 -31q-2 -8 0 -16q2 -10 12 -7q8 4 11 7q7 7 18 33q1 3 1 10q0 64 40 118q15 20 33 31q14 8 24 9q24 3 40 -19q2 -3 5.5 -10.5t5.5 -10.5q6 14 8 21q16 48 23 91q5 30 0 46q2 2 4 3q26 17 46 19q16 2 21 -3t6 -19q1 -15 -5 -41
q-9 -39 -35 -103q-29 -70 -37 -99q-1 -4 -2 -9t-2 -11.5t-2 -9.5q-1 -6 0 -12q3 -19 21 -12l6 3t5 3q2 1 5 4q11 9 11 23q1 40 19 91q4 12 13 34.5l11 27.5q3 7 9 8q18 5 22 5q5 1 11 0q14 -3 16 -18q1 -10 -4 -22q-4 -12 -12 -35.5t-12 -35.5q-10 -34 -11 -53q0 -12 1 -18
q2 -11 12 -6q8 4 11 8q7 9 13 22l10 25q0 1 1 3.5t1.5 4.5t0.5 4q3 71 47 129q16 20 36 32q18 10 37 9q23 -3 35 -21q2 -2 4.5 -7l3.5 -7q15 5 43 13q22 7 68 19q14 4 30 1zM1074 514q19 40 22 94v10t-1 10q0 4 -2 10q-5 16 -20 11q-10 -4 -15 -9q-7 -7 -14 -19
q-10 -16 -17 -43q-9 -37 -4 -63q1 -10 7 -21q6 -13 20 -6q9 4 13 9q7 8 11 17zM1421 715q-16 -4 -28 -21l1 -1v-1l45 15q-7 11 -18 8zM1436 589q10 28 12 77q0 1 -0.5 3t-0.5 4q-28 -5 -69 -10l-2 -2q-19 -49 -13 -97q2 -14 7 -23q8 -18 25 -8q9 6 17 14q16 17 24 42z
M1111 889q-16 7 -18 27q-3 19 4 41q2 9 8 28t9 29q12 46 14 71q2 20 -4 33q27 7 43 -3q13 -9 19 -39l2.5 5t1.5 4q7 16 19 29q22 23 56 20q20 -2 28 -20q5 -11 5 -35q-1 -39 -14 -78l-18 -54q-2 -7 -4 -23v-6q2 -7 7 -4q3 1 7 5q13 10 22 25q13 23 21 52q14 56 17 85
q4 31 1 46q-2 8 -3 13q20 7 35 2q15 -4 22 -21q6 -13 4 -41q-2 -31 -17 -77q-7 -21 -7 -45q0 -5 2 -13q3 -9 13 -6q7 3 9 4q12 10 17 16q21 26 26 52q2 11 7 32t7 31q6 30 6 61q0 16 -4 23q20 9 36 3t22 -23q4 -11 4 -32q-1 -41 -12 -82q-8 -33 -32 -97q-2 -6 -3 -8h28
q22 0 44 -8q21 -7 36 -24q25 -28 10 -60q-7 -15 -20 -28q-1 1 -3 3.5t-3 3.5q-29 38 -74 47q-8 2 -43 4q-5 0 -8 -5q-10 -16 -16 -24q-16 -22 -35 -36q-15 -10 -33 -12q-33 -1 -55 27l12 18q-12 -4 -37 -21q-3 5 -1 15q2 15 10 25q7 10 22 19q44 28 97 42q1 1 3 1t3 1
q1 0 2 1q5 18 10 32l-1 1q-1 -1 -2.5 -3t-2.5 -3q-21 -23 -45 -27q-15 -2 -23 -1q-23 3 -31 27q-2 4 -3 7q-6 -9 -16 -25q-8 -12 -18 -21q-17 -14 -39 -12q-32 2 -34 34q0 13 3 27q6 29 17 70q12 44 13 58q1 7 -1 19q-2 7 -7 8.5t-10 -2.5q-7 -5 -11 -12q-14 -24 -18 -32
q-23 -51 -35 -95q-10 -37 -4 -71v-3q-27 0 -39 5zM1361 813q10 11 24 39h-2q-22 -4 -52 -16q-4 -1 -4 -5q0 -11 1 -16q1 -8 8.5 -11t14.5 1q4 2 10 8zM445 745q-36 -31 -48 -81q-23 5 -36 25t-6 42q2 7 11 23q29 52 94 71q27 7 57 7q2 2 2 4l69 231q2 6 2 9q0 6 8 8
q10 3 18 -1q9 -5 8 -15q-2 -20 -4 -32q-7 -36 -29 -108q-1 -3 -1 -10q1 1 3 2.5t3 2.5q30 27 51 68q32 61 35 120q2 20 -4 35q-6 16 -13 22q-7 5 -13 5q-21 -2 -36 -10q-26 -13 -50 -42q-28 -35 -48 -75q-27 -55 -35 -96q-7 -33 -3 -59q3 -21 17 -36q-1 0 -2.5 -0.5
t-2.5 -0.5q-2 0 -9.5 0.5t-11.5 1.5q-45 11 -51 59q-4 29 7 70q27 99 117 165q52 37 116 40q27 1 49.5 -17.5t27.5 -44.5q5 -25 -3 -57q-25 -95 -87 -157q-19 -19 -41 -32l-2 -1q-2 -1 -3 -2q27 -16 51 -24q43 -16 85 -16q43 0 85 22q1 1 3 1t3 1q1 -4 1 -9q2 -25 -3 -42
q-14 -48 -64 -50q-27 0 -51 9q-56 22 -96 53q-18 14 -32 32q-2 2 -2 4q-1 0 -1 -1t-1 -1q-1 -5 -2 -16t-1 -16q34 -9 42 -37q-26 7 -43 5v-7q-2 -20 -4 -28q-4 -17 -22 -18q-12 -1 -24 3q-14 6 -17 21q-1 6 4 10q12 8 18 13q-48 -11 -85 -43zM739 899q-12 20 -10 46
q5 76 58 128q21 19 41 23q32 6 48 -20l2 -4q1 0 2.5 2t2.5 2q3 3 9 8t9 8q21 17 48 11q19 -3 25 -21q1 -3 6 -22l3 6q8 18 19 30q22 26 57 21q21 -3 28 -21q5 -10 5 -27q1 -30 -11 -72q-3 -11 -10 -32.5t-10 -31.5q-6 -21 -13 -50q0 -1 -0.5 -2.5t-0.5 -2.5q17 4 22 5
q18 2 27.5 -7t7.5 -27q-2 -23 -20 -41t-41 -19q-33 -2 -46 27l-3 6l-4 -2q-33 -20 -81 -25q-21 -2 -31 0q-5 1 -15 5q-15 8 -16 22q-2 20 13 52q3 -3 5 -4q36 -29 86 -24q14 1 38 11q5 2 5 7q0 54 24 137q11 34 12 58q0 2 -0.5 5.5t-0.5 5.5q0 10 -8 13q-5 2 -12 -5l-12 -15
q-14 -24 -19 -36q-20 -52 -29 -78q-11 -33 -6 -75v-7q-26 0 -38 5q-15 6 -18 23q-4 15 1 33q2 8 6.5 23t5.5 18q12 36 18 78q1 7 1 20q0 4 -1 6q-3 11 -12 4q-4 -3 -21 -20q-1 -1 -1 -6q8 -80 -55 -146q-22 -22 -46 -26q-29 -5 -44 20zM1047 854q-1 -1 -2 -3l-1 -1
q0 -2 0.5 -6t1.5 -6q4 -11 11 -13q10 -3 19 6q5 7 7 16q1 8 -3 11.5t-11 2.5q-9 -1 -22 -7zM813 1043q-30 -38 -32 -90q0 -11 3 -22q7 -23 27 -13q11 4 19 13q30 28 40 74v6q-6 0 -9 1q-12 3 -10 15q0 7 3 13q4 10 10 20q-7 10 -18 7q-8 -2 -14 -6q-13 -9 -19 -18zM1332 434
q19 -2 14 -21q-15 -3 -51 -11t-55 -12q-42 -9 -124.5 -26.5t-123.5 -26.5q-18 -4 -100 -21.5t-126 -26.5q-80 -16 -135 51q-1 1 -3 5q8 1 22 3l141 18q23 3 70 9.5t71 9.5q26 3 76.5 9t75.5 10q24 3 71 9.5t70 9.5q14 2 42.5 5.5t43.5 5.5q11 2 21 0zM1298 771q21 -11 9 -34
q-11 -18 -37 -20q-2 1 -8 2t-9 3q-19 10 -10 31q6 14 23.5 20t31.5 -2zM894 283q29 7 44 -7.5t12 -44.5t-22 -52t-48 -29l-48 -11l14 133zM916 223q1 16 -6 23t-22 4l-11 -2l-8 -69l12 3q32 7 35 41zM958 167l15 134l77 17l-3 -29l-44 -10l-2 -22l38 8l-3 -28l-38 -9l-3 -24
l44 10l-4 -30zM1128 251l39 93l41 9l-15 -133l-33 -8l8 74l-31 -79l-28 -6l-15 69l-8 -74l-34 -8l15 134l40 9zM1284 372q24 5 38.5 -6.5t16.5 -35.5q2 -35 -17 -61t-51 -33q-23 -5 -37.5 6.5t-16.5 35.5q-2 35 17 61t50 33zM1274 270q15 4 24 18t8 31q-2 23 -24 19
q-15 -4 -24 -17.5t-8 -30.5q2 -24 24 -20zM987 1589q180 0 343.5 -70t282.5 -189t189 -282.5t70 -343.5t-70 -343.5t-189 -282.5t-282.5 -189t-343.5 -70t-343.5 70t-282.5 189t-189 282.5t-70 343.5t70 343.5t189 282.5t282.5 189t343.5 70zM987 -63q208 0 384.5 103
t279.5 279.5t103 384.5t-103 384.5t-279.5 279.5t-384.5 103t-384.5 -103t-279 -279.5t-102.5 -384.5t102.5 -384.5t279 -279.5t384.5 -103z" />
    <glyph glyph-name="one" unicode="1" 
d="M1601 747q36 -7 39 -44q-114 -18 -172 -27v-8q-2 -85 -58 -147q-20 -23 -45 -30q-33 -8 -51 18q-2 3 -4 7l-4.5 9t-3.5 8q-1 1 -1.5 3.5t-0.5 3.5q-2 -5 -6 -13q-9 -20 -24 -35q-22 -20 -50 -17q-20 2 -29 20q-2 4 -3 7l-7 -7q-18 -20 -38 -29q-12 -5 -22 -4
q-24 3 -31 25q-1 3 -2.5 8.5t-2.5 8.5q-2 -3 -4 -7q-14 -21 -35 -35q-20 -12 -31 -12q-22 -2 -35 16q-4 6 -12 20q0 -1 -1 -2.5t-2 -2.5q-11 -20 -21 -29q-22 -21 -54 -16q-19 3 -25 21q-1 3 -6 22q-1 -1 -2 -2.5t-1 -2.5q-9 -17 -17 -27q-21 -29 -58 -26q-22 1 -30 25
q-1 2 -2 6.5t-2 7.5q-5 -5 -7 -8q-21 -26 -43 -39q-14 -7 -25 -6q-18 1 -27 18q-4 8 -6 26q-2 28 7 73q10 51 38 130q2 6 3 10q-7 -1 -20.5 -2.5t-19.5 -1.5q-1 -4 -3.5 -13t-4.5 -14q-3 -9 -9 -25q-1 -4 -9.5 -9t-13.5 -5t-5 5q0 4 1 7q1 5 4 16.5t5 17.5q1 3 1.5 8t0.5 8
q-3 0 -7 -0.5t-6 -0.5h-23q-16 2 -11 18q15 2 45 8q0 10 -6 16q-4 4 -10 4q-5 0 -13 -2q-39 -10 -59 -40q-11 -17 -7 -38q5 -23 13 -39q3 -5 14.5 -29.5t18.5 -37.5q14 -26 15 -47q2 -32 -16 -58q-33 -51 -96 -63q-29 -5 -50 3q-28 9 -41 33q-12 19 -4 43q8 27 42 54
q0 -3 0.5 -8t1.5 -8q3 -11 8 -26q4 -8 7 -12q20 -28 49 -11q15 9 25 22q13 17 8 39q-4 18 -14 36q-4 8 -13 23.5t-13 23.5q-10 22 -14 40q-6 26 9 54q9 17 25 33q39 36 89 46q19 4 33 1q20 -3 28 -23q1 -3 6 -24q7 1 22.5 3.5t24.5 3.5q4 18 -13 27q35 19 59 22h13
q17 -2 17 -19q0 -9 -4 -25q-3 -12 -3 -13q0 1 4 5.5t6 7.5q4 6 11 7l93 15q21 4 64 11t65 11q27 5 47 -1q26 -8 40 -32q0 -2 1 -4q-17 -2 -36 -4t-41 -4.5t-35 -3.5q-19 -2 -57 -5.5t-56 -5.5q-74 -8 -112 -12q-3 -8 -9 -22t-9 -22q-42 -107 -45 -116q-8 -28 -9 -42v-11
q2 -15 17 -12q7 1 13 6q16 11 30 34q1 2 1 6q6 53 43 144q2 5 6 6q20 6 31 6q23 0 21 -21q0 -4 -5 -21q-21 -64 -26 -83q-4 -13 -8 -43q-1 -5 1 -14q2 -10 10 -7q5 1 12 8q12 17 14 22q7 17 19 53q23 73 37 105q4 9 11 10q3 0 9 2t9 2q1 0 3 0.5t3 0.5q26 0 23 -26
q-2 -12 -4 -16q-23 -64 -29 -93q-4 -19 -5 -31q-2 -8 0 -16q2 -10 12 -7q8 4 11 7q7 7 18 33q1 3 1 10q0 64 40 118q15 20 33 31q14 8 24 9q24 3 40 -19q2 -3 5.5 -10.5t5.5 -10.5q6 14 8 21q16 48 23 91q5 30 0 46q2 2 4 3q26 17 46 19q16 2 21 -3t6 -19q1 -15 -5 -41
q-9 -39 -35 -103q-29 -70 -37 -99q-1 -4 -2 -9t-2 -11.5t-2 -9.5q-1 -6 0 -12q3 -19 21 -12l6 3t5 3q2 1 5 4q11 9 11 23q1 40 19 91q4 12 13 34.5l11 27.5q3 7 9 8q18 5 22 5q5 1 11 0q14 -3 16 -18q1 -10 -4 -22q-4 -12 -12 -35.5t-12 -35.5q-10 -34 -11 -53q0 -12 1 -18
q2 -11 12 -6q8 4 11 8q7 9 13 22l10 25q0 1 1 3.5t1.5 4.5t0.5 4q3 71 47 129q16 20 36 32q18 10 37 9q23 -3 35 -21q2 -2 4.5 -7l3.5 -7q15 5 43 13q22 7 68 19q14 4 30 1zM1074 514q19 40 22 94v10t-1 10q0 4 -2 10q-5 16 -20 11q-10 -4 -15 -9q-7 -7 -14 -19
q-10 -16 -17 -43q-9 -37 -4 -63q1 -10 7 -21q6 -13 20 -6q9 4 13 9q7 8 11 17zM1421 715q-16 -4 -28 -21l1 -1v-1l45 15q-7 11 -18 8zM1436 589q10 28 12 77q0 1 -0.5 3t-0.5 4q-28 -5 -69 -10l-2 -2q-19 -49 -13 -97q2 -14 7 -23q8 -18 25 -8q9 6 17 14q16 17 24 42z
M1111 889q-16 7 -18 27q-3 19 4 41q2 9 8 28t9 29q12 46 14 71q2 20 -4 33q27 7 43 -3q13 -9 19 -39l2.5 5t1.5 4q7 16 19 29q22 23 56 20q20 -2 28 -20q5 -11 5 -35q-1 -39 -14 -78l-18 -54q-2 -7 -4 -23v-6q2 -7 7 -4q3 1 7 5q13 10 22 25q13 23 21 52q14 56 17 85
q4 31 1 46q-2 8 -3 13q20 7 35 2q15 -4 22 -21q6 -13 4 -41q-2 -31 -17 -77q-7 -21 -7 -45q0 -5 2 -13q3 -9 13 -6q7 3 9 4q12 10 17 16q21 26 26 52q2 11 7 32t7 31q6 30 6 61q0 16 -4 23q20 9 36 3t22 -23q4 -11 4 -32q-1 -41 -12 -82q-8 -33 -32 -97q-2 -6 -3 -8h28
q22 0 44 -8q21 -7 36 -24q25 -28 10 -60q-7 -15 -20 -28q-1 1 -3 3.5t-3 3.5q-29 38 -74 47q-8 2 -43 4q-5 0 -8 -5q-10 -16 -16 -24q-16 -22 -35 -36q-15 -10 -33 -12q-33 -1 -55 27l12 18q-12 -4 -37 -21q-3 5 -1 15q2 15 10 25q7 10 22 19q44 28 97 42q1 1 3 1t3 1
q1 0 2 1q5 18 10 32l-1 1q-1 -1 -2.5 -3t-2.5 -3q-21 -23 -45 -27q-15 -2 -23 -1q-23 3 -31 27q-2 4 -3 7q-6 -9 -16 -25q-8 -12 -18 -21q-17 -14 -39 -12q-32 2 -34 34q0 13 3 27q6 29 17 70q12 44 13 58q1 7 -1 19q-2 7 -7 8.5t-10 -2.5q-7 -5 -11 -12q-14 -24 -18 -32
q-25 -56 -36 -95q-9 -35 -3 -71v-3q-27 0 -39 5zM1361 813q10 11 24 39h-2q-24 -4 -53 -16q-3 -1 -3 -5q0 -11 1 -16q1 -8 8.5 -11t14.5 1q4 2 10 8zM445 745q-36 -31 -48 -81q-23 5 -36 25t-6 42q2 7 11 23q29 52 94 71q27 7 57 7q2 2 2 4l69 231q2 6 2 9q0 6 8 8
q10 3 18 -1q9 -5 8 -15q-2 -20 -4 -32q-7 -36 -29 -108q-1 -3 -1 -10q1 1 3 2.5t3 2.5q30 27 51 68q32 61 35 120q2 20 -4 35q-6 16 -13 22q-7 5 -13 5q-21 -2 -36 -10q-26 -13 -50 -42q-28 -35 -48 -75q-27 -55 -35 -96q-7 -33 -3 -59q3 -21 17 -36q-1 0 -2.5 -0.5
t-2.5 -0.5q-2 0 -9.5 0.5t-11.5 1.5q-45 11 -51 59q-4 29 7 70q27 99 117 165q52 37 116 40q27 1 49.5 -17.5t27.5 -44.5q5 -25 -3 -57q-25 -95 -87 -157q-19 -19 -41 -32l-2 -1q-2 -1 -3 -2q27 -16 51 -24q43 -16 85 -16q43 0 85 22q1 1 3 1t3 1q1 -4 1 -9q2 -25 -3 -42
q-14 -48 -64 -50q-27 0 -51 9q-56 22 -96 53q-18 14 -32 32q-2 2 -2 4q-1 0 -1 -1t-1 -1q-1 -5 -2 -16t-1 -16q34 -9 42 -37q-26 7 -43 5v-7q-2 -20 -4 -28q-4 -17 -22 -18q-12 -1 -24 3q-14 6 -17 21q-1 6 4 10q12 8 18 13q-48 -11 -85 -43zM739 899q-12 20 -10 46
q5 76 58 128q21 19 41 23q32 6 48 -20l2 -4q1 0 2.5 2t2.5 2q3 3 9 8t9 8q21 17 48 11q19 -3 25 -21q1 -3 6 -22l3 6q8 18 19 30q22 26 57 21q21 -3 28 -21q5 -10 5 -27q1 -30 -11 -72q-3 -11 -10 -32.5t-10 -31.5q-6 -21 -13 -50q0 -1 -0.5 -2.5t-0.5 -2.5q17 4 22 5
q18 2 27.5 -7t7.5 -27q-2 -23 -20 -41t-41 -19q-33 -2 -46 27l-3 6l-4 -2q-33 -20 -81 -25q-21 -2 -31 0q-5 1 -15 5q-15 8 -16 22q-2 20 13 52q3 -3 5 -4q36 -29 86 -24q14 1 38 11q5 2 5 7q0 54 24 137q11 34 12 58q0 2 -0.5 5.5t-0.5 5.5q0 10 -8 13q-5 2 -12 -5l-12 -15
q-14 -24 -19 -36q-20 -52 -29 -78q-11 -33 -6 -75v-7q-26 0 -38 5q-15 6 -18 23q-4 15 1 33q2 8 6.5 23t5.5 18q12 36 18 78q1 7 1 20q0 4 -1 6q-3 11 -12 4q-4 -3 -21 -20q-1 -1 -1 -6q8 -80 -55 -146q-22 -22 -46 -26q-29 -5 -44 20zM1047 854q-1 -1 -2 -3l-1 -1
q0 -2 0.5 -6t1.5 -6q4 -11 11 -13q10 -3 19 6q5 7 7 16q1 8 -3 11.5t-11 2.5q-9 -1 -22 -7zM813 1043q-30 -38 -32 -90q0 -11 3 -22q7 -23 27 -13q11 4 19 13q30 28 40 74v6q-6 0 -9 1q-12 3 -10 15q0 7 3 13q4 10 10 20q-7 10 -18 7q-8 -2 -14 -6q-13 -9 -19 -18zM1332 434
q19 -2 14 -21q-15 -3 -51 -11t-55 -12q-42 -9 -124.5 -26.5t-123.5 -26.5q-18 -4 -100 -21.5t-126 -26.5q-80 -16 -135 51q-1 1 -3 5q8 1 22 3l141 18q23 3 70 9.5t71 9.5q26 3 76.5 9t75.5 10q24 3 71 9.5t70 9.5q14 2 42.5 5.5t43.5 5.5q11 2 21 0zM1298 771q21 -11 9 -34
q-11 -18 -37 -20q-2 1 -8 2t-9 3q-19 10 -10 31q6 14 23.5 20t31.5 -2zM894 283q29 7 44 -7.5t12 -44.5t-22 -52t-48 -29l-48 -11l14 133zM916 223q1 16 -6 23t-22 4l-11 -2l-8 -69l12 3q32 7 35 41zM958 167l15 134l77 17l-3 -29l-44 -10l-2 -22l38 8l-3 -28l-38 -9l-3 -24
l44 10l-4 -30zM1128 251l39 93l41 9l-15 -133l-33 -8l8 74l-31 -79l-28 -6l-15 69l-8 -74l-34 -8l15 134l40 9zM1284 372q24 5 38.5 -6.5t16.5 -35.5q2 -35 -17 -61t-51 -33q-23 -5 -37.5 6.5t-16.5 35.5q-2 35 17 61t50 33zM1274 270q15 4 24 18t8 31q-2 23 -24 19
q-15 -4 -24 -17.5t-8 -30.5q2 -24 24 -20zM987 1589q180 0 343.5 -70t282.5 -189t189 -282.5t70 -343.5t-70 -343.5t-189 -282.5t-282.5 -189t-343.5 -70t-343.5 70t-282.5 189t-189 282.5t-70 343.5t70 343.5t189 282.5t282.5 189t343.5 70zM987 -63q208 0 384.5 103
t279.5 279.5t103 384.5t-103 384.5t-279.5 279.5t-384.5 103t-384.5 -103t-279 -279.5t-102.5 -384.5t102.5 -384.5t279 -279.5t384.5 -103z" />
    <glyph glyph-name="two" unicode="2" 
d="M1601 747q36 -7 39 -44q-114 -18 -172 -27v-8q-2 -85 -58 -147q-20 -23 -45 -30q-33 -8 -51 18q-2 3 -4 7l-4.5 9t-3.5 8q-1 1 -1.5 3.5t-0.5 3.5q-2 -5 -6 -13q-9 -20 -24 -35q-22 -20 -50 -17q-20 2 -29 20q-2 4 -3 7l-7 -7q-18 -20 -38 -29q-12 -5 -22 -4
q-24 3 -31 25q-1 3 -2.5 8.5t-2.5 8.5q-2 -3 -4 -7q-14 -21 -35 -35q-20 -12 -31 -12q-22 -2 -35 16q-4 6 -12 20q0 -1 -1 -2.5t-2 -2.5q-11 -20 -21 -29q-22 -21 -54 -16q-19 3 -25 21q-1 3 -6 22q-1 -1 -2 -2.5t-1 -2.5q-9 -17 -17 -27q-21 -29 -58 -26q-22 1 -30 25
q-1 2 -2 6.5t-2 7.5q-5 -5 -7 -8q-21 -26 -43 -39q-14 -7 -25 -6q-18 1 -27 18q-4 8 -6 26q-2 28 7 73q10 51 38 130q2 6 3 10q-7 -1 -20.5 -2.5t-19.5 -1.5q-1 -4 -3.5 -13t-4.5 -14q-3 -9 -9 -25q-1 -4 -9.5 -9t-13.5 -5t-5 5q0 4 1 7q1 5 4 16.5t5 17.5q1 3 1.5 8t0.5 8
q-3 0 -7 -0.5t-6 -0.5h-23q-16 2 -11 18q15 2 45 8q0 10 -6 16q-4 4 -10 4q-5 0 -13 -2q-39 -10 -59 -40q-11 -17 -7 -38q5 -23 13 -39q3 -5 14.5 -29.5t18.5 -37.5q14 -26 15 -47q2 -32 -16 -58q-33 -51 -96 -63q-29 -5 -50 3q-28 9 -41 33q-12 19 -4 43q8 27 42 54
q0 -3 0.5 -8t1.5 -8q3 -11 8 -26q4 -8 7 -12q20 -28 49 -11q15 9 25 22q13 17 8 39q-4 18 -14 36q-4 8 -13 23.5t-13 23.5q-10 22 -14 40q-6 26 9 54q9 17 25 33q39 36 89 46q19 4 33 1q20 -3 28 -23q1 -3 6 -24q7 1 22.5 3.5t24.5 3.5q4 18 -13 27q35 19 59 22h13
q17 -2 17 -19q0 -9 -4 -25q-3 -12 -3 -13q0 1 4 5.5t6 7.5q4 6 11 7l93 15q21 4 64 11t65 11q27 5 47 -1q26 -8 40 -32q0 -2 1 -4q-17 -2 -36 -4t-41 -4.5t-35 -3.5q-19 -2 -57 -5.5t-56 -5.5q-74 -8 -112 -12q-3 -8 -9 -22t-9 -22q-42 -107 -45 -116q-8 -28 -9 -42v-11
q2 -15 17 -12q7 1 13 6q16 11 30 34q1 2 1 6q6 53 43 144q2 5 6 6q20 6 31 6q23 0 21 -21q0 -4 -5 -21q-21 -64 -26 -83q-4 -13 -8 -43q-1 -5 1 -14q2 -10 10 -7q5 1 12 8q12 17 14 22q7 17 19 53q23 73 37 105q4 9 11 10q3 0 9 2t9 2q1 0 3 0.5t3 0.5q26 0 23 -26
q-2 -12 -4 -16q-23 -64 -29 -93q-4 -19 -5 -31q-2 -8 0 -16q2 -10 12 -7q8 4 11 7q7 7 18 33q1 3 1 10q0 64 40 118q15 20 33 31q14 8 24 9q24 3 40 -19q2 -3 5.5 -10.5t5.5 -10.5q6 14 8 21q16 48 23 91q5 30 0 46q2 2 4 3q26 17 46 19q16 2 21 -3t6 -19q1 -15 -5 -41
q-9 -39 -35 -103q-29 -70 -37 -99q-1 -4 -2 -9t-2 -11.5t-2 -9.5q-1 -6 0 -12q3 -19 21 -12l6 3t5 3q2 1 5 4q11 9 11 23q1 40 19 91q4 12 13 34.5l11 27.5q3 7 9 8q18 5 22 5q5 1 11 0q14 -3 16 -18q1 -10 -4 -22q-4 -12 -12 -35.5t-12 -35.5q-10 -34 -11 -53q0 -12 1 -18
q2 -11 12 -6q8 4 11 8q7 9 13 22l10 25q0 1 1 3.5t1.5 4.5t0.5 4q3 71 47 129q16 20 36 32q18 10 37 9q23 -3 35 -21q2 -2 4.5 -7l3.5 -7q15 5 43 13q22 7 68 19q14 4 30 1zM1074 514q19 40 22 94v10t-1 10q0 4 -2 10q-5 16 -20 11q-10 -4 -15 -9q-7 -7 -14 -19
q-10 -16 -17 -43q-9 -37 -4 -63q1 -10 7 -21q6 -13 20 -6q9 4 13 9q7 8 11 17zM1421 715q-16 -4 -28 -21l1 -1v-1l45 15q-7 11 -18 8zM1436 589q10 28 12 77q0 1 -0.5 3t-0.5 4q-28 -5 -69 -10l-2 -2q-19 -49 -13 -97q2 -14 7 -23q8 -18 25 -8q9 6 17 14q16 17 24 42z
M1111 889q-16 7 -18 27q-3 19 4 41q2 9 8 28t9 29q12 46 14 71q2 20 -4 33q27 7 43 -3q13 -9 19 -39l2.5 5t1.5 4q7 16 19 29q22 23 56 20q20 -2 28 -20q5 -11 5 -35q-1 -39 -14 -78l-18 -54q-2 -7 -4 -23v-6q2 -7 7 -4q3 1 7 5q13 10 22 25q13 23 21 52q14 56 17 85
q4 31 1 46q-2 8 -3 13q20 7 35 2q15 -4 22 -21q6 -13 4 -41q-2 -31 -17 -77q-7 -21 -7 -45q0 -5 2 -13q3 -9 13 -6q7 3 9 4q12 10 17 16q21 26 26 52q2 11 7 32t7 31q6 30 6 61q0 16 -4 23q20 9 36 3t22 -23q4 -11 4 -32q-1 -41 -12 -82q-8 -33 -32 -97q-2 -6 -3 -8h28
q22 0 44 -8q21 -7 36 -24q25 -28 10 -60q-7 -15 -20 -28q-1 1 -3 3.5t-3 3.5q-29 38 -74 47q-8 2 -43 4q-5 0 -8 -5q-10 -16 -16 -24q-16 -22 -35 -36q-15 -10 -33 -12q-33 -1 -55 27l12 18q-12 -4 -37 -21q-3 5 -1 15q2 15 10 25q7 10 22 19q44 28 97 42q1 1 3 1t3 1
q1 0 2 1q5 18 10 32l-1 1q-1 -1 -2.5 -3t-2.5 -3q-21 -23 -45 -27q-15 -2 -23 -1q-23 3 -31 27q-2 4 -3 7q-6 -9 -16 -25q-8 -12 -18 -21q-17 -14 -39 -12q-32 2 -34 34q0 13 3 27q6 29 17 70q12 44 13 58q1 7 -1 19q-2 7 -7 8.5t-10 -2.5q-7 -5 -11 -12q-14 -24 -18 -32
q-23 -51 -35 -95q-10 -37 -4 -71v-3q-27 0 -39 5zM1361 813q10 11 24 39h-2q-24 -4 -53 -16q-3 -1 -3 -5q0 -11 1 -16q1 -8 8.5 -11t14.5 1q4 2 10 8zM445 745q-36 -31 -48 -81q-23 5 -36 25t-6 42q2 7 11 23q29 52 94 71q27 7 57 7q2 2 2 4l69 231q2 6 2 9q0 6 8 8
q10 3 18 -1q9 -5 8 -15q-2 -20 -4 -32q-7 -36 -29 -108q-1 -3 -1 -10q1 1 3 2.5t3 2.5q30 27 51 68q32 61 35 120q2 20 -4 35q-6 16 -13 22q-7 5 -13 5q-21 -2 -36 -10q-26 -13 -50 -42q-28 -35 -48 -75q-27 -55 -35 -96q-6 -30 -2 -59q3 -22 16 -36q-1 0 -2.5 -0.5
t-2.5 -0.5q-2 0 -9.5 0.5t-11.5 1.5q-45 11 -51 59q-4 29 7 70q27 99 117 165q52 37 116 40q27 1 49.5 -17.5t27.5 -44.5q5 -25 -3 -57q-25 -95 -87 -157q-19 -19 -41 -32l-2 -1q-2 -1 -3 -2q27 -16 51 -24q43 -16 85 -16q43 0 85 22q1 1 3 1t3 1q1 -4 1 -9q2 -25 -3 -42
q-14 -48 -64 -50q-27 0 -51 9q-56 22 -96 53q-18 14 -32 32q-2 2 -2 4q-1 0 -1 -1t-1 -1q-1 -5 -2 -16t-1 -16q34 -9 42 -37q-26 7 -43 5v-7q-2 -20 -4 -28q-4 -17 -22 -18q-12 -1 -24 3q-14 6 -17 21q-1 6 4 10q12 8 18 13q-48 -11 -85 -43zM739 899q-12 20 -10 46
q5 76 58 128q21 19 41 23q32 6 48 -20l2 -4q1 0 2.5 2t2.5 2q3 3 9 8t9 8q21 17 48 11q19 -3 25 -21q1 -3 6 -22l3 6q8 18 19 30q22 26 57 21q21 -3 28 -21q5 -10 5 -27q1 -30 -11 -72q-3 -11 -10 -32.5t-10 -31.5q-6 -21 -13 -50q0 -1 -0.5 -2.5t-0.5 -2.5q17 4 22 5
q18 2 27.5 -7t7.5 -27q-2 -23 -20 -41t-41 -19q-33 -2 -46 27l-3 6l-4 -2q-33 -20 -81 -25q-21 -2 -31 0q-5 1 -15 5q-15 8 -16 22q-2 20 13 52q3 -3 5 -4q36 -29 86 -24q14 1 38 11q5 2 5 7q0 54 24 137q11 34 12 58q0 2 -0.5 5.5t-0.5 5.5q0 10 -8 13q-5 2 -12 -5l-12 -15
q-14 -24 -19 -36q-20 -52 -29 -78q-11 -33 -6 -75v-7q-26 0 -38 5q-15 6 -18 23q-4 15 1 33q2 8 6.5 23t5.5 18q12 36 18 78q1 7 1 20q0 4 -1 6q-3 11 -12 4q-4 -3 -21 -20q-1 -1 -1 -6q7 -81 -55 -146q-22 -22 -46 -26q-29 -5 -44 20zM1047 854q-1 -1 -2 -3l-1 -1
q0 -2 0.5 -6t1.5 -6q4 -11 11 -13q10 -3 19 6q5 7 7 16q1 8 -3 11.5t-11 2.5q-9 -1 -22 -7zM813 1043q-30 -38 -32 -90q0 -11 3 -22q7 -23 27 -13q11 4 19 13q30 28 40 74v6q-6 0 -9 1q-12 3 -10 15q0 7 3 13q4 10 10 20q-7 10 -18 7q-8 -2 -14 -6q-13 -9 -19 -18zM1332 434
q19 -2 14 -21q-15 -3 -51 -11t-55 -12q-42 -9 -124.5 -26.5t-123.5 -26.5q-18 -4 -100 -21.5t-126 -26.5q-80 -16 -135 51q-1 1 -3 5q8 1 22 3l141 18q23 3 70 9.5t71 9.5q26 3 76.5 9t75.5 10q24 3 71 9.5t70 9.5q14 2 42.5 5.5t43.5 5.5q11 2 21 0zM1298 771q21 -11 9 -34
q-11 -18 -37 -20q-2 1 -8 2t-9 3q-19 10 -10 31q6 14 23.5 20t31.5 -2zM894 283q29 7 44 -7.5t12 -44.5t-22 -52t-48 -29l-48 -11l14 133zM916 223q1 16 -6 23t-22 4l-11 -2l-8 -69l12 3q32 7 35 41zM958 167l15 134l77 17l-3 -29l-44 -10l-2 -22l38 8l-3 -28l-38 -9l-3 -24
l44 10l-4 -30zM1128 251l39 93l41 9l-15 -133l-33 -8l8 74l-31 -79l-28 -6l-15 69l-8 -74l-34 -8l15 134l40 9zM1284 372q24 5 38.5 -6.5t16.5 -35.5q2 -35 -17 -61t-51 -33q-23 -5 -37.5 6.5t-16.5 35.5q-2 35 17 61t50 33zM1274 270q15 4 24 18t8 31q-2 23 -24 19
q-15 -4 -24 -17.5t-8 -30.5q2 -24 24 -20zM987 1589q180 0 343.5 -70t282.5 -189t189 -282.5t70 -343.5t-70 -343.5t-189 -282.5t-282.5 -189t-343.5 -70t-343.5 70t-282.5 189t-189 282.5t-70 343.5t70 343.5t189 282.5t282.5 189t343.5 70zM987 -63q208 0 384.5 103
t279.5 279.5t103 384.5t-103 384.5t-279.5 279.5t-384.5 103t-384.5 -103t-279 -279.5t-102.5 -384.5t102.5 -384.5t279 -279.5t384.5 -103z" />
    <glyph glyph-name="three" unicode="3" 
d="M1601 747q36 -7 39 -44q-114 -18 -172 -27v-8q-2 -85 -58 -147q-20 -23 -45 -30q-33 -8 -51 18q-2 3 -4 7l-4.5 9t-3.5 8q-1 1 -1.5 3.5t-0.5 3.5q-2 -5 -6 -13q-9 -20 -24 -35q-22 -20 -50 -17q-20 2 -29 20q-2 4 -3 7l-7 -7q-18 -20 -38 -29q-12 -5 -22 -4
q-24 3 -31 25q-1 3 -2.5 8.5t-2.5 8.5q-2 -3 -4 -7q-14 -21 -35 -35q-20 -12 -31 -12q-22 -2 -35 16q-4 6 -12 20q0 -1 -1 -2.5t-2 -2.5q-11 -20 -21 -29q-22 -21 -54 -16q-19 3 -25 21q-1 3 -6 22q-1 -1 -2 -2.5t-1 -2.5q-9 -17 -17 -27q-21 -29 -58 -26q-22 1 -30 25
q-1 2 -2 6.5t-2 7.5q-5 -5 -7 -8q-21 -26 -43 -39q-14 -7 -25 -6q-18 1 -27 18q-4 8 -6 26q-2 28 7 73q10 51 38 130q2 6 3 10q-7 -1 -20.5 -2.5t-19.5 -1.5q-1 -4 -3.5 -13t-4.5 -14q-3 -9 -9 -25q-1 -4 -9.5 -9t-13.5 -5t-5 5q0 4 1 7q1 5 4 16.5t5 17.5q1 3 1.5 8t0.5 8
q-3 0 -7 -0.5t-6 -0.5h-23q-15 1 -10 18q12 2 44 8q0 10 -6 16q-4 4 -10 4q-5 0 -13 -2q-39 -10 -59 -40q-11 -17 -7 -38q5 -23 13 -39q3 -5 14.5 -29.5t18.5 -37.5q14 -26 15 -47q2 -32 -16 -58q-33 -51 -96 -63q-29 -5 -50 3q-26 9 -40 33q-13 20 -5 43q8 27 42 54
q0 -3 0.5 -8t1.5 -8q3 -11 8 -26q4 -8 7 -12q20 -28 49 -11q15 9 25 22q13 17 8 39q-4 18 -14 36q-4 8 -13 23.5t-13 23.5q-10 22 -14 40q-6 26 9 54q9 17 25 33q39 36 89 46q19 4 33 1q20 -3 28 -23q1 -3 6 -24q7 1 22.5 3.5t24.5 3.5q4 18 -13 27q35 19 59 22h13
q17 -2 17 -19q0 -9 -4 -25q-3 -12 -3 -13q0 1 4 5.5t6 7.5q4 6 11 7l93 15q21 4 64 11t65 11q27 5 47 -1q26 -8 40 -32q0 -2 1 -4q-17 -2 -36 -4t-41 -4.5t-35 -3.5q-19 -2 -57 -5.5t-56 -5.5q-74 -8 -112 -12q-3 -8 -9 -22t-9 -22q-42 -107 -45 -116q-8 -28 -9 -42v-11
q2 -15 17 -12q7 1 13 6q16 11 30 34q1 2 1 6q6 53 43 144q2 5 6 6q20 6 31 6q23 0 21 -21q0 -4 -5 -21q-21 -64 -26 -83q-4 -13 -8 -43q-1 -5 1 -14q2 -10 10 -7q5 1 12 8q12 17 14 22q7 17 19 53q23 73 37 105q4 9 11 10q3 0 9 2t9 2q1 0 3 0.5t3 0.5q26 0 23 -26
q-2 -12 -4 -16q-23 -64 -29 -93q-4 -19 -5 -31q-2 -8 0 -16q2 -10 12 -7q8 4 11 7q7 7 18 33q1 3 1 10q0 64 40 118q15 20 33 31q14 8 24 9q24 3 40 -19q2 -3 5.5 -10.5t5.5 -10.5q6 14 8 21q16 48 23 91q5 30 0 46q2 2 4 3q26 17 46 19q16 2 21 -3t6 -19q1 -15 -5 -41
q-9 -39 -35 -103q-29 -70 -37 -99q-1 -4 -2 -9t-2 -11.5t-2 -9.5q-1 -6 0 -12q3 -19 21 -12l6 3t5 3q2 1 5 4q11 9 11 23q1 40 19 91q4 12 13 34.5l11 27.5q3 7 9 8q18 5 22 5q5 1 11 0q14 -3 16 -18q1 -10 -4 -22q-4 -12 -12 -35.5t-12 -35.5q-10 -34 -11 -53q0 -12 1 -18
q2 -11 12 -6q8 4 11 8q7 9 13 22l10 25q0 1 1 3.5t1.5 4.5t0.5 4q3 71 47 129q16 20 36 32q18 10 37 9q23 -3 35 -21q2 -2 4.5 -7l3.5 -7q15 5 43 13q22 7 68 19q14 4 30 1zM1074 514q19 40 22 94v10t-1 10q0 4 -2 10q-5 16 -20 11q-10 -4 -15 -9q-7 -7 -14 -19
q-10 -16 -17 -43q-9 -37 -4 -63q1 -10 7 -21q6 -13 20 -6q9 4 13 9q7 8 11 17zM1421 715q-16 -4 -28 -21l1 -1v-1l45 15q-7 11 -18 8zM1436 589q10 28 12 77q0 1 -0.5 3t-0.5 4q-28 -5 -69 -10l-2 -2q-19 -49 -13 -97q2 -14 7 -23q8 -18 25 -8q9 6 17 14q16 17 24 42z
M1111 889q-16 7 -18 27q-3 19 4 41q2 9 8 28t9 29q12 46 14 71q2 20 -4 33q27 7 43 -3q13 -9 19 -39l2.5 5t1.5 4q7 16 19 29q22 23 56 20q20 -2 28 -20q5 -11 5 -35q-1 -39 -14 -78l-18 -54q-2 -7 -4 -23v-6q2 -7 7 -4q3 1 7 5q13 10 22 25q13 23 21 52q14 56 17 85
q4 31 1 46q-2 8 -3 13q20 7 35 2q15 -4 22 -21q6 -13 4 -41q-2 -31 -17 -77q-7 -21 -7 -45q0 -5 2 -13q3 -9 13 -6q7 3 9 4q12 10 17 16q21 26 26 52q2 11 7 32t7 31q6 30 6 61q0 16 -4 23q20 9 36 3t22 -23q4 -11 4 -32q-1 -41 -12 -82q-8 -33 -32 -97q-2 -6 -3 -8h28
q22 0 44 -8q21 -7 36 -24q25 -28 10 -60q-7 -15 -20 -28q-1 1 -3 3.5t-3 3.5q-29 38 -74 47q-8 2 -43 4q-5 0 -8 -5q-10 -16 -16 -24q-16 -22 -35 -36q-15 -10 -33 -12q-33 -1 -55 27l12 18q-12 -4 -37 -21q-3 5 -1 15q2 15 10 25q7 10 22 19q44 28 97 42q1 1 3 1t3 1
q1 0 2 1q5 18 10 32l-1 1q-1 -1 -2.5 -3t-2.5 -3q-21 -23 -45 -27q-15 -2 -23 -1q-23 3 -31 27q-2 4 -3 7q-6 -9 -16 -25q-8 -12 -18 -21q-17 -14 -39 -12q-32 2 -34 34q0 13 3 27q6 29 17 70q12 44 13 58q1 7 -1 19q-2 7 -7 8.5t-10 -2.5q-7 -5 -11 -12q-14 -24 -18 -32
q-25 -56 -36 -95q-9 -35 -3 -71v-3q-27 0 -39 5zM1361 813q10 11 24 39h-2q-24 -4 -53 -16q-3 -1 -3 -5q0 -11 1 -16q1 -8 8.5 -11t14.5 1q4 2 10 8zM445 745q-36 -31 -48 -81q-23 5 -36 25t-6 42q2 7 11 23q29 52 94 71q27 7 57 7q2 2 2 4l69 231q2 6 2 9q0 6 8 8
q10 3 18 -1q9 -5 8 -15q-2 -20 -4 -32q-7 -36 -29 -108q-1 -3 -1 -10q1 1 3 2.5t3 2.5q30 27 51 68q32 61 35 120q2 20 -4 35q-6 16 -13 22q-7 5 -13 5q-21 -2 -36 -10q-26 -13 -50 -42q-28 -35 -48 -75q-27 -55 -35 -96q-6 -30 -2 -59q3 -22 16 -36q-1 0 -2.5 -0.5
t-2.5 -0.5q-2 0 -9.5 0.5t-11.5 1.5q-45 11 -51 59q-4 29 7 70q27 99 117 165q52 37 116 40q27 1 49.5 -17.5t27.5 -44.5q5 -25 -3 -57q-25 -95 -87 -157q-19 -19 -41 -32l-2 -1q-2 -1 -3 -2q27 -16 51 -24q43 -16 85 -16q43 0 85 22q1 1 3 1t3 1q1 -4 1 -9q2 -25 -3 -42
q-14 -48 -64 -50q-27 0 -51 9q-56 22 -96 53q-18 14 -32 32q-2 2 -2 4q-1 0 -1 -1t-1 -1q-1 -5 -2 -16t-1 -16q34 -9 42 -37q-26 7 -43 5v-7q-2 -20 -4 -28q-4 -17 -22 -18q-12 -1 -24 3q-14 6 -17 21q-1 6 4 10q12 8 18 13q-48 -11 -85 -43zM739 899q-12 20 -10 46
q5 76 58 128q21 19 41 23q32 6 48 -20l2 -4q1 0 2.5 2t2.5 2q3 3 9 8t9 8q21 17 48 11q19 -3 25 -21q1 -3 6 -22l3 6q8 18 19 30q22 26 57 21q21 -3 28 -21q5 -10 5 -27q1 -30 -11 -72q-3 -11 -10 -32.5t-10 -31.5q-6 -21 -13 -50q0 -1 -0.5 -2.5t-0.5 -2.5q17 4 22 5
q18 2 27.5 -7t7.5 -27q-2 -23 -20 -41t-41 -19q-33 -2 -46 27l-3 6l-4 -2q-33 -20 -81 -25q-21 -2 -31 0q-5 1 -15 5q-15 8 -16 22q-2 20 13 52q3 -3 5 -4q36 -29 86 -24q14 1 38 11q5 2 5 7q0 54 24 137q11 34 12 58q0 2 -0.5 5.5t-0.5 5.5q0 10 -8 13q-5 2 -12 -5l-12 -15
q-14 -24 -19 -36q-20 -52 -29 -78q-11 -33 -6 -75v-7q-26 0 -38 5q-15 6 -18 23q-4 15 1 33q2 8 6.5 23t5.5 18q12 36 18 78q1 7 1 20q0 4 -1 6q-3 11 -12 4q-4 -3 -21 -20q-1 -1 -1 -6q8 -80 -55 -146q-22 -22 -46 -26q-29 -5 -44 20zM1047 854q-1 -1 -2 -3l-1 -1
q0 -2 0.5 -6t1.5 -6q4 -11 11 -13q10 -3 19 6q5 7 7 16q1 8 -3 11.5t-11 2.5q-9 -1 -22 -7zM813 1043q-30 -38 -32 -90q0 -11 3 -22q7 -23 27 -13q11 4 19 13q30 28 40 74v6q-6 0 -9 1q-12 3 -10 15q0 7 3 13q4 10 10 20q-7 10 -18 7q-8 -2 -14 -6q-13 -9 -19 -18zM1332 434
q19 -2 14 -21q-15 -3 -51 -11t-55 -12q-42 -9 -124.5 -26.5t-123.5 -26.5q-18 -4 -100 -21.5t-126 -26.5q-80 -16 -135 51q-1 1 -3 5q8 1 22 3l141 18q23 3 70 9.5t71 9.5q26 3 76.5 9t75.5 10q24 3 71 9.5t70 9.5q14 2 42.5 5.5t43.5 5.5q11 2 21 0zM1298 771q21 -11 9 -34
q-11 -18 -37 -20q-2 1 -8 2t-9 3q-19 10 -10 31q6 14 23.5 20t31.5 -2zM894 283q29 7 44 -7.5t12 -44.5t-22 -52t-48 -29l-48 -11l14 133zM916 223q1 16 -6 23t-22 4l-11 -2l-8 -69l12 3q32 7 35 41zM958 167l15 134l77 17l-3 -29l-44 -10l-2 -22l38 8l-3 -28l-38 -9l-3 -24
l44 10l-4 -30zM1128 251l39 93l41 9l-15 -133l-33 -8l8 74l-31 -79l-28 -6l-15 69l-8 -74l-34 -8l15 134l40 9zM1284 372q24 5 38.5 -6.5t16.5 -35.5q2 -35 -17 -61t-51 -33q-23 -5 -37.5 6.5t-16.5 35.5q-2 35 17 61t50 33zM1274 270q15 4 24 18t8 31q-2 23 -24 19
q-15 -4 -24 -17.5t-8 -30.5q2 -24 24 -20zM987 1589q180 0 343.5 -70t282.5 -189t189 -282.5t70 -343.5t-70 -343.5t-189 -282.5t-282.5 -189t-343.5 -70t-343.5 70t-282.5 189t-189 282.5t-70 343.5t70 343.5t189 282.5t282.5 189t343.5 70zM987 -63q208 0 384.5 103
t279.5 279.5t103 384.5t-103 384.5t-279.5 279.5t-384.5 103t-384.5 -103t-279 -279.5t-102.5 -384.5t102.5 -384.5t279 -279.5t384.5 -103z" />
    <glyph glyph-name="four" unicode="4" 
d="M1601 747q36 -7 39 -44q-114 -18 -172 -27v-8q-2 -85 -58 -147q-20 -23 -45 -30q-33 -8 -51 18q-2 3 -4 7l-4.5 9t-3.5 8q-1 1 -1.5 3.5t-0.5 3.5q-2 -5 -6 -13q-9 -20 -24 -35q-22 -20 -50 -17q-20 2 -29 20q-2 4 -3 7l-7 -7q-18 -20 -38 -29q-12 -5 -22 -4
q-24 3 -31 25q-1 3 -2 8.5t-2 8.5q-1 -1 -2.5 -3.5t-2.5 -3.5q-14 -21 -35 -35q-20 -12 -31 -12q-22 -2 -35 16q-4 6 -12 20q0 -1 -1 -2.5t-2 -2.5q-11 -20 -21 -29q-22 -21 -54 -16q-19 3 -25 21q-1 3 -6 22q-1 -1 -2 -2.5t-1 -2.5q-9 -17 -17 -27q-21 -29 -58 -26
q-22 1 -30 25q-1 2 -2 6.5t-2 7.5q-5 -5 -7 -8q-21 -26 -43 -39q-14 -7 -25 -6q-18 1 -27 18q-4 8 -6 26q-2 28 7 73q10 51 38 130q2 6 3 10q-7 -1 -20.5 -2.5t-19.5 -1.5q-1 -4 -3.5 -13t-4.5 -14q-3 -9 -9 -25q-1 -4 -9.5 -9t-13.5 -5t-5 5q0 4 1 7q1 5 4 16.5t5 17.5
q1 3 1.5 8t0.5 8q-3 0 -7 -0.5t-6 -0.5h-23q-15 1 -10 18q12 2 44 8q0 10 -6 16q-4 4 -10 4q-5 0 -13 -2q-39 -10 -59 -40q-11 -17 -7 -38q5 -23 13 -39q3 -5 14.5 -29.5t18.5 -37.5q14 -26 15 -47q2 -33 -15 -58q-33 -51 -97 -63q-29 -5 -50 3q-26 9 -40 33q-13 20 -5 43
q8 27 42 54q0 -3 0.5 -8t1.5 -8q3 -11 8 -26q4 -8 7 -12q20 -28 49 -11q15 9 25 22q13 17 8 39q-4 18 -14 36q-4 8 -13 23.5t-13 23.5q-10 22 -14 40q-6 26 9 54q9 17 25 33q39 36 89 46q19 4 33 1q20 -3 28 -23q1 -3 6 -24q7 1 22.5 3.5t24.5 3.5q4 18 -13 27q35 19 59 22
h13q17 -2 17 -19q0 -9 -4 -25q-3 -12 -3 -13q0 1 4 5.5t6 7.5q4 6 11 7l93 15q21 4 64 11t65 11q27 5 47 -1q26 -8 40 -32q0 -2 1 -4q-17 -2 -36 -4t-41 -4.5t-35 -3.5q-19 -2 -57 -5.5t-56 -5.5q-74 -8 -112 -12q-3 -8 -9 -22t-9 -22q-42 -107 -45 -116q-8 -28 -9 -42v-11
q2 -15 17 -12q7 1 13 6q16 11 30 34q1 2 1 6q6 53 43 144q2 5 6 6q20 6 31 6q23 0 21 -21q0 -4 -5 -21q-21 -64 -26 -83q-4 -13 -8 -43q-1 -5 1 -14q2 -10 10 -7q5 1 12 8q12 17 14 22q7 17 19 53q23 73 37 105q4 9 11 10q3 1 9.5 2.5t9.5 1.5q1 0 2.5 0.5t2.5 0.5
q26 0 23 -26q-2 -12 -4 -16q-23 -64 -29 -93q-4 -19 -5 -31q-2 -8 0 -16q2 -10 12 -7q8 4 11 7q7 7 18 33q1 3 1 10q0 64 40 118q15 20 33 31q14 8 24 9q24 3 40 -19q2 -3 5.5 -10.5t5.5 -10.5q6 14 8 21q16 48 23 91q5 30 0 46q2 2 4 3q26 17 46 19q16 2 21 -3t6 -19
q1 -15 -5 -41q-9 -39 -35 -103q-29 -70 -37 -99q-1 -4 -2 -9t-2 -11.5t-2 -9.5q-1 -6 0 -12q3 -19 21 -12l6 3t5 3q2 1 5 4q11 9 11 23q1 40 19 91q4 12 13 34.5l11 27.5q3 7 9 8q18 5 22 5q5 1 11 0q14 -3 16 -18q1 -10 -4 -22q-4 -12 -12 -35.5t-12 -35.5q-10 -34 -11 -53
q0 -12 1 -18q2 -11 12 -6q8 4 11 8q7 9 13 22l10 25q0 1 1 3.5t1.5 4.5t0.5 4q3 71 47 129q16 20 36 32q18 10 37 9q23 -3 35 -21q2 -2 4.5 -7l3.5 -7q15 5 43 13q22 7 68 19q14 4 30 1zM1074 514q19 40 22 94v10t-1 10q0 4 -2 10q-5 16 -20 11q-10 -4 -15 -9q-7 -7 -14 -19
q-10 -16 -17 -43q-9 -37 -4 -63q1 -10 7 -21q6 -13 20 -6q9 4 13 9q7 8 11 17zM1421 715q-16 -4 -28 -21l1 -1v-1l45 15q-7 11 -18 8zM1436 589q10 28 12 77q0 1 -0.5 3t-0.5 4q-28 -5 -69 -10l-2 -2q-19 -49 -13 -97q2 -14 7 -23q8 -18 25 -8q9 6 17 14q16 17 24 42z
M1111 889q-16 7 -18 27q-3 19 4 41q2 9 8 28t9 29q12 46 14 71q2 20 -4 33q27 7 43 -3q13 -9 19 -39l2.5 5t1.5 4q7 16 19 29q22 23 56 20q20 -2 28 -20q5 -11 5 -35q-1 -39 -14 -78l-18 -54q-2 -7 -4 -23v-6q2 -7 7 -4q3 1 7 5q13 10 22 25q13 23 21 52q14 56 17 85
q4 31 1 46q-2 8 -3 13q20 7 35 2q15 -4 22 -21q6 -13 4 -41q-2 -31 -17 -77q-7 -21 -7 -45q0 -5 2 -13q3 -9 13 -6q7 3 9 4q12 10 17 16q21 26 26 52q2 11 7 32t7 31q6 30 6 61q0 16 -4 23q20 9 36 3t22 -23q4 -11 4 -32q-1 -41 -12 -82q-8 -33 -32 -97q-2 -6 -3 -8h28
q22 0 44 -8q21 -7 36 -24q25 -28 10 -60q-7 -15 -20 -28q-1 1 -3 3.5t-3 3.5q-29 38 -74 47q-8 2 -43 4q-5 0 -8 -5q-10 -16 -16 -24q-16 -22 -35 -36q-15 -10 -33 -12q-33 -1 -55 27l12 18q-12 -4 -37 -21q-3 5 -1 15q2 15 10 25q7 10 22 19q44 28 97 42q1 1 3 1t3 1
q1 0 2 1q5 18 10 32l-1 1q-1 -1 -2.5 -3t-2.5 -3q-21 -23 -45 -27q-15 -2 -23 -1q-23 3 -31 27q-2 4 -3 7q-6 -9 -16 -25q-8 -12 -18 -21q-17 -14 -39 -12q-32 2 -34 34q0 13 3 27q6 29 17 70q12 44 13 58q1 7 -1 19q-2 7 -7 8.5t-10 -2.5q-7 -5 -11 -12q-14 -24 -18 -32
q-25 -56 -36 -95q-9 -35 -3 -71v-3q-27 0 -39 5zM1361 813q10 11 24 39h-2q-24 -4 -53 -16q-3 -1 -3 -5q0 -11 1 -16q1 -8 8.5 -11t14.5 1q4 2 10 8zM445 745q-36 -31 -48 -81q-23 5 -36 25t-6 42q2 7 11 23q29 52 94 71q27 7 57 7q2 2 2 4l69 231q2 6 2 9q0 6 8 8
q10 3 18 -1q9 -5 8 -15q-2 -20 -4 -32q-7 -36 -29 -108q-1 -3 -1 -10q1 1 3 2.5t3 2.5q30 27 51 68q32 61 35 120q2 20 -4 35q-6 16 -13 22q-7 5 -13 5q-21 -2 -36 -10q-26 -13 -50 -42q-28 -35 -48 -75q-27 -55 -35 -96q-6 -30 -2 -59q3 -22 16 -36q-1 0 -2.5 -0.5
t-2.5 -0.5q-2 0 -9.5 0.5t-11.5 1.5q-45 11 -51 59q-4 29 7 70q27 99 117 165q52 37 116 40q27 1 49.5 -17.5t27.5 -44.5q5 -25 -3 -57q-25 -95 -87 -157q-19 -19 -41 -32l-2 -1q-2 -1 -3 -2q27 -16 51 -24q43 -16 85 -16q43 0 85 22q1 1 3 1t3 1q1 -4 1 -9q2 -25 -3 -42
q-14 -48 -64 -50q-27 0 -51 9q-56 22 -96 53q-18 14 -32 32q-2 2 -2 4q-1 0 -1 -1t-1 -1q-1 -5 -2 -16t-1 -16q34 -9 42 -37q-26 7 -43 5v-7q-2 -20 -4 -28q-4 -17 -22 -18q-12 -1 -24 3q-14 6 -17 21q-1 6 4 10q12 8 18 13q-48 -11 -85 -43zM739 899q-12 20 -10 46
q5 76 58 128q21 19 41 23q32 6 48 -20l2 -4q1 0 2.5 2t2.5 2q3 3 9 8t9 8q21 17 48 11q19 -3 25 -21q1 -3 6 -22l3 6q8 18 19 30q22 26 57 21q21 -3 28 -21q5 -10 5 -27q1 -30 -11 -72q-3 -11 -10 -32.5t-10 -31.5q-6 -21 -13 -50q0 -1 -0.5 -2.5t-0.5 -2.5q17 4 22 5
q18 2 27.5 -7t7.5 -27q-2 -23 -20 -41t-41 -19q-33 -2 -46 27l-3 6l-4 -2q-33 -20 -81 -25q-21 -2 -31 0q-5 1 -15 5q-15 8 -16 22q-2 20 13 52q3 -3 5 -4q36 -29 86 -24q14 1 38 11q5 2 5 7q0 54 24 137q11 34 12 58q0 2 -0.5 5.5t-0.5 5.5q0 10 -8 13q-5 2 -12 -5l-12 -15
q-14 -24 -19 -36q-20 -52 -29 -78q-11 -33 -6 -75v-7q-26 0 -38 5q-15 6 -18 23q-4 15 1 33q2 8 6.5 23t5.5 18q12 36 18 78q1 7 1 20q0 4 -1 6q-3 11 -12 4q-4 -3 -21 -20q-1 -1 -1 -6q8 -80 -55 -146q-22 -22 -46 -26q-29 -5 -44 20zM1047 854q-1 -1 -2 -3l-1 -1
q0 -2 0.5 -6t1.5 -6q4 -11 11 -13q10 -3 19 6q5 7 7 16q1 8 -3 11.5t-11 2.5q-9 -1 -22 -7zM813 1043q-30 -38 -32 -90q0 -11 3 -22q7 -23 27 -13q11 4 19 13q30 28 40 74v6q-6 0 -9 1q-12 3 -10 15q0 7 3 13q4 10 10 20q-7 10 -18 7q-8 -2 -14 -6q-13 -9 -19 -18zM1332 434
q19 -2 14 -21q-15 -3 -51 -11t-55 -12q-42 -9 -124.5 -26.5t-123.5 -26.5q-18 -4 -100 -21.5t-126 -26.5q-80 -16 -135 51q-1 1 -3 5q8 1 22 3l141 18q23 3 70 9.5t71 9.5q26 3 76.5 9t75.5 10q24 3 71 9.5t70 9.5q14 2 42.5 5.5t43.5 5.5q11 2 21 0zM1298 771q21 -11 9 -34
q-11 -18 -37 -20q-2 1 -8 2t-9 3q-19 10 -10 31q6 14 23.5 20t31.5 -2zM894 283q29 7 44 -7.5t12 -44.5t-22 -52t-48 -29l-48 -11l14 133zM916 223q1 16 -6 23t-22 4l-11 -2l-8 -69l12 3q32 7 35 41zM958 167l15 134l77 17l-3 -29l-44 -10l-2 -22l38 8l-3 -28l-38 -9l-3 -24
l44 10l-4 -30zM1128 251l39 93l41 9l-15 -133l-33 -8l8 74l-31 -79l-28 -6l-15 69l-8 -74l-34 -8l15 134l40 9zM1284 372q24 5 38.5 -6.5t16.5 -35.5q2 -35 -17 -61t-51 -33q-23 -5 -37.5 6.5t-16.5 35.5q-2 35 17 61t50 33zM1274 270q15 4 24 18t8 31q-2 23 -24 19
q-15 -4 -24 -17.5t-8 -30.5q2 -24 24 -20zM987 1589q180 0 343.5 -70t282.5 -189t189 -282.5t70 -343.5t-70 -343.5t-189 -282.5t-282.5 -189t-343.5 -70t-343.5 70t-282.5 189t-189 282.5t-70 343.5t70 343.5t189 282.5t282.5 189t343.5 70zM987 -63q208 0 384.5 103
t279.5 279.5t103 384.5t-103 384.5t-279.5 279.5t-384.5 103t-384.5 -103t-279 -279.5t-102.5 -384.5t102.5 -384.5t279 -279.5t384.5 -103z" />
    <glyph glyph-name="five" unicode="5" 
d="M1601 747q36 -7 39 -44q-114 -18 -172 -27v-8q-2 -85 -58 -147q-20 -23 -45 -30q-33 -8 -51 18q-2 3 -4 7l-4.5 9t-3.5 8q-1 1 -1.5 3.5t-0.5 3.5q-2 -5 -6 -13q-9 -20 -24 -35q-22 -20 -50 -17q-20 2 -29 20q-2 4 -3 7l-7 -7q-18 -20 -38 -29q-12 -5 -22 -4
q-24 3 -31 25q-1 3 -2.5 8.5t-2.5 8.5q-2 -3 -4 -7q-14 -21 -35 -35q-20 -12 -31 -12q-22 -2 -35 16q-4 6 -12 20q0 -1 -1 -2.5t-2 -2.5q-11 -20 -21 -29q-22 -21 -54 -16q-19 3 -25 21q-1 3 -6 22q-1 -1 -2 -2.5t-1 -2.5q-9 -17 -17 -27q-21 -29 -58 -26q-22 1 -30 25
q-1 2 -2 6.5t-2 7.5q-5 -5 -7 -8q-21 -26 -43 -39q-14 -7 -25 -6q-18 1 -27 18q-4 8 -6 26q-2 28 7 73q10 51 38 130q2 6 3 10q-7 -1 -20.5 -2.5t-19.5 -1.5q-1 -4 -3.5 -13t-4.5 -14q-3 -9 -9 -25q-1 -4 -9.5 -9t-13.5 -5t-5 5q0 4 1 7q1 5 4 16.5t5 17.5q1 3 1.5 8t0.5 8
q-3 0 -7 -0.5t-6 -0.5h-23q-16 2 -11 18q15 2 45 8q0 10 -6 16q-4 4 -10 4q-5 0 -13 -2q-39 -10 -59 -40q-11 -17 -7 -38q5 -23 13 -39q3 -5 14.5 -29.5t18.5 -37.5q14 -26 15 -47q2 -32 -16 -58q-33 -51 -96 -63q-29 -5 -50 3q-28 9 -41 33q-12 19 -4 43q8 27 42 54
q0 -3 0.5 -8t1.5 -8q3 -11 8 -26q4 -8 7 -12q20 -28 49 -11q15 9 25 22q13 17 8 39q-4 18 -14 36q-4 8 -13 23.5t-13 23.5q-10 22 -14 40q-6 26 9 54q9 17 25 33q39 36 89 46q19 4 33 1q20 -3 28 -23q1 -3 6 -24q7 1 22.5 3.5t24.5 3.5q4 18 -13 27q35 19 59 22h13
q17 -2 17 -19q0 -9 -4 -25q-3 -12 -3 -13q0 1 4 5.5t6 7.5q4 6 11 7l93 15q21 4 64 11t65 11q27 5 47 -1q26 -8 40 -32q0 -2 1 -4q-17 -2 -36 -4t-41 -4.5t-35 -3.5q-19 -2 -57 -5.5t-56 -5.5q-74 -8 -112 -12q-3 -8 -9 -22t-9 -22q-42 -107 -45 -116q-8 -28 -9 -42v-11
q2 -15 17 -12q7 1 13 6q16 11 30 34q1 2 1 6q6 53 43 144q2 5 6 6q20 6 31 6q23 0 21 -21q0 -4 -5 -21q-21 -64 -26 -83q-4 -13 -8 -43q-1 -5 1 -14q2 -10 10 -7q5 1 12 8q12 17 14 22q7 17 19 53q23 73 37 105q4 9 11 10q3 0 9 2t9 2q1 0 3 0.5t3 0.5q26 0 23 -26
q-2 -12 -4 -16q-23 -64 -29 -93q-4 -19 -5 -31q-2 -8 0 -16q2 -10 12 -7q8 4 11 7q7 7 18 33q1 3 1 10q0 64 40 118q15 20 33 31q14 8 24 9q24 3 40 -19q2 -3 5.5 -10.5t5.5 -10.5q6 14 8 21q16 48 23 91q5 30 0 46q2 2 4 3q26 17 46 19q16 2 21 -3t6 -19q1 -15 -5 -41
q-9 -39 -35 -103q-29 -70 -37 -99q-1 -4 -2 -9t-2 -11.5t-2 -9.5q-1 -6 0 -12q3 -19 21 -12l6 3t5 3q2 1 5 4q11 9 11 23q1 40 19 91q4 12 13 34.5l11 27.5q3 7 9 8q18 5 22 5q5 1 11 0q14 -3 16 -18q1 -10 -4 -22q-4 -12 -12 -35.5t-12 -35.5q-10 -34 -11 -53q0 -12 1 -18
q2 -11 12 -6q8 4 11 8q7 9 13 22l10 25q0 1 1 3.5t1.5 4.5t0.5 4q3 71 47 129q16 20 36 32q18 10 37 9q23 -3 35 -21q2 -2 4.5 -7l3.5 -7q15 5 43 13q22 7 68 19q14 4 30 1zM1074 514q19 40 22 94v10t-1 10q0 4 -2 10q-5 16 -20 11q-10 -4 -15 -9q-7 -7 -14 -19
q-10 -16 -17 -43q-9 -37 -4 -63q1 -10 7 -21q6 -13 20 -6q9 4 13 9q7 8 11 17zM1421 715q-16 -4 -28 -21l1 -1v-1l45 15q-7 11 -18 8zM1436 589q10 28 12 77q0 1 -0.5 3t-0.5 4q-28 -5 -69 -10l-2 -2q-19 -49 -13 -97q2 -14 7 -23q8 -18 25 -8q9 6 17 14q16 17 24 42z
M1111 889q-16 7 -18 27q-3 19 4 41q2 9 8 28t9 29q12 46 14 71q2 20 -4 33q27 7 43 -3q13 -9 19 -39l2.5 5t1.5 4q7 16 19 29q22 23 56 20q20 -2 28 -20q5 -11 5 -35q-1 -39 -14 -78l-18 -54q-2 -7 -4 -23v-6q2 -7 7 -4q3 1 7 5q13 10 22 25q13 23 21 52q14 56 17 85
q4 31 1 46q-2 8 -3 13q20 7 35 2q15 -4 22 -21q6 -13 4 -41q-2 -31 -17 -77q-7 -21 -7 -45q0 -5 2 -13q3 -9 13 -6q7 3 9 4q12 10 17 16q21 26 26 52q2 11 7 32t7 31q6 30 6 61q0 16 -4 23q20 9 36 3t22 -23q4 -11 4 -32q-1 -41 -12 -82q-8 -33 -32 -97q-2 -6 -3 -8h28
q22 0 44 -8q21 -7 36 -24q25 -28 10 -60q-7 -15 -20 -28q-1 1 -3 3.5t-3 3.5q-29 38 -74 47q-8 2 -43 4q-5 0 -8 -5q-10 -16 -16 -24q-16 -22 -35 -36q-15 -10 -33 -12q-33 -1 -55 27l12 18q-12 -4 -37 -21q-3 5 -1 15q2 15 10 25q7 10 22 19q44 28 97 42q1 1 3 1t3 1
q1 0 2 1q5 18 10 32l-1 1q-1 -1 -2.5 -3t-2.5 -3q-21 -23 -45 -27q-15 -2 -23 -1q-23 3 -31 27q-2 4 -3 7q-6 -9 -16 -25q-8 -12 -18 -21q-17 -14 -39 -12q-32 2 -34 34q0 13 3 27q6 29 17 70q12 44 13 58q1 7 -1 19q-2 7 -7 8.5t-10 -2.5q-7 -5 -11 -12q-14 -24 -18 -32
q-25 -56 -36 -95q-9 -35 -3 -71v-3q-27 0 -39 5zM1361 813q10 11 24 39h-2q-24 -4 -53 -16q-3 -1 -3 -5q0 -11 1 -16q1 -8 8.5 -11t14.5 1q4 2 10 8zM445 745q-36 -31 -48 -81q-23 5 -36 25t-6 42q2 7 11 23q29 52 94 71q27 7 57 7q2 2 2 4l69 231q2 6 2 9q0 6 8 8
q10 3 18 -1q9 -5 8 -15q-2 -20 -4 -32q-7 -36 -29 -108q-1 -3 -1 -10q1 1 3 2.5t3 2.5q30 27 51 68q32 61 35 120q2 20 -4 35q-6 16 -13 22q-7 5 -13 5q-21 -2 -36 -10q-26 -13 -50 -42q-28 -35 -48 -75q-27 -55 -35 -96q-7 -33 -3 -59q3 -21 17 -36q-1 0 -2.5 -0.5
t-2.5 -0.5q-2 0 -9.5 0.5t-11.5 1.5q-45 11 -51 59q-4 29 7 70q27 99 117 165q52 37 116 40q27 1 49.5 -17.5t27.5 -44.5q5 -25 -3 -57q-25 -95 -87 -157q-19 -19 -41 -32l-2 -1q-2 -1 -3 -2q27 -16 51 -24q43 -16 85 -16q43 0 85 22q1 1 3 1t3 1q1 -4 1 -9q2 -25 -3 -42
q-14 -48 -64 -50q-27 0 -51 9q-56 22 -96 53q-18 14 -32 32q-2 2 -2 4q-1 0 -1 -1t-1 -1q-1 -5 -2 -16t-1 -16q34 -9 42 -37q-26 7 -43 5v-7q-2 -20 -4 -28q-4 -17 -22 -18q-12 -1 -24 3q-14 6 -17 21q-1 6 4 10q12 8 18 13q-48 -11 -85 -43zM739 899q-12 20 -10 46
q5 76 58 128q21 19 41 23q32 6 48 -20l2 -4q1 0 2.5 2t2.5 2q3 3 9 8t9 8q21 17 48 11q19 -3 25 -21q1 -3 6 -22l3 6q8 18 19 30q22 26 57 21q21 -3 28 -21q5 -10 5 -27q1 -30 -11 -72q-3 -11 -10 -32.5t-10 -31.5q-6 -21 -13 -50q0 -1 -0.5 -2.5t-0.5 -2.5q17 4 22 5
q18 2 27.5 -7t7.5 -27q-2 -23 -20 -41t-41 -19q-33 -2 -46 27l-3 6l-4 -2q-33 -20 -81 -25q-21 -2 -31 0q-5 1 -15 5q-15 8 -16 22q-2 20 13 52q3 -3 5 -4q36 -29 86 -24q14 1 38 11q5 2 5 7q0 54 24 137q11 34 12 58q0 2 -0.5 5.5t-0.5 5.5q0 10 -8 13q-5 2 -12 -5l-12 -15
q-14 -24 -19 -36q-20 -52 -29 -78q-11 -33 -6 -75v-7q-26 0 -38 5q-15 6 -18 23q-4 15 1 33q2 8 6.5 23t5.5 18q12 36 18 78q1 7 1 20q0 4 -1 6q-3 11 -12 4q-4 -3 -21 -20q-1 -1 -1 -6q7 -81 -55 -146q-22 -22 -46 -26q-29 -5 -44 20zM1047 854q-1 -1 -2 -3l-1 -1
q0 -2 0.5 -6t1.5 -6q4 -11 11 -13q10 -3 19 6q5 7 7 16q1 8 -3 11.5t-11 2.5q-9 -1 -22 -7zM813 1043q-30 -38 -32 -90q0 -11 3 -22q7 -23 27 -13q11 4 19 13q30 28 40 74v6q-6 0 -9 1q-12 3 -10 15q0 7 3 13q4 10 10 20q-7 10 -18 7q-8 -2 -14 -6q-13 -9 -19 -18zM1332 434
q19 -2 14 -21q-15 -3 -51 -11t-55 -12q-42 -9 -124.5 -26.5t-123.5 -26.5q-18 -4 -100 -21.5t-126 -26.5q-80 -16 -135 51q-1 1 -3 5q8 1 22 3l141 18q23 3 70 9.5t71 9.5q26 3 76.5 9t75.5 10q24 3 71 9.5t70 9.5q14 2 42.5 5.5t43.5 5.5q11 2 21 0zM1298 771q21 -11 9 -34
q-11 -18 -37 -20q-2 1 -8 2t-9 3q-19 10 -10 31q6 14 23.5 20t31.5 -2zM894 283q29 7 44 -7.5t12 -44.5t-22 -52t-48 -29l-48 -11l14 133zM916 223q1 16 -6 23t-22 4l-11 -2l-8 -69l12 3q32 7 35 41zM958 167l15 134l77 17l-3 -29l-44 -10l-2 -22l38 8l-3 -28l-38 -9l-3 -24
l44 10l-4 -30zM1128 251l39 93l41 9l-15 -133l-33 -8l8 74l-31 -79l-28 -6l-15 69l-8 -74l-34 -8l15 134l40 9zM1284 372q24 5 38.5 -6.5t16.5 -35.5q2 -35 -17 -61t-51 -33q-23 -5 -37.5 6.5t-16.5 35.5q-2 35 17 61t50 33zM1274 270q15 4 24 18t8 31q-2 23 -24 19
q-15 -4 -24 -17.5t-8 -30.5q2 -24 24 -20zM987 1589q180 0 343.5 -70t282.5 -189t189 -282.5t70 -343.5t-70 -343.5t-189 -282.5t-282.5 -189t-343.5 -70t-343.5 70t-282.5 189t-189 282.5t-70 343.5t70 343.5t189 282.5t282.5 189t343.5 70zM987 -63q208 0 384.5 103
t279.5 279.5t103 384.5t-103 384.5t-279.5 279.5t-384.5 103t-384.5 -103t-279 -279.5t-102.5 -384.5t102.5 -384.5t279 -279.5t384.5 -103z" />
    <glyph glyph-name="six" unicode="6" 
d="M1601 747q36 -7 39 -44q-114 -18 -172 -27v-8q-2 -85 -58 -147q-20 -23 -45 -30q-33 -8 -51 18q-2 3 -4 7l-4.5 9t-3.5 8q-1 1 -1.5 3.5t-0.5 3.5q-2 -5 -6 -13q-9 -20 -24 -35q-22 -20 -50 -17q-20 2 -29 20q-2 4 -3 7l-7 -7q-18 -20 -38 -29q-12 -5 -22 -4
q-24 3 -31 25q-1 3 -2.5 8.5t-2.5 8.5q-2 -3 -4 -7q-14 -21 -35 -35q-20 -12 -31 -12q-22 -2 -35 16q-4 6 -12 20q0 -1 -1 -2.5t-2 -2.5q-11 -20 -21 -29q-22 -21 -54 -16q-19 3 -25 21q-1 3 -6 22q-1 -1 -2 -2.5t-1 -2.5q-9 -17 -17 -27q-21 -29 -58 -26q-22 1 -30 25
q-1 2 -2 6.5t-2 7.5q-5 -5 -7 -8q-21 -26 -43 -39q-14 -7 -25 -6q-18 1 -27 18q-4 8 -6 26q-2 28 7 73q10 51 38 130q2 6 3 10q-7 -1 -20.5 -2.5t-19.5 -1.5q-1 -4 -3.5 -13t-4.5 -14q-3 -9 -9 -25q-1 -4 -9.5 -9t-13.5 -5t-5 5q0 4 1 7q1 5 4 16.5t5 17.5q1 3 1.5 8t0.5 8
q-3 0 -7 -0.5t-6 -0.5h-23q-15 1 -10 18q12 2 44 8q0 10 -6 16q-4 4 -10 4q-5 0 -13 -2q-39 -10 -59 -40q-11 -17 -7 -38q5 -23 13 -39q3 -5 14.5 -29.5t18.5 -37.5q14 -26 15 -47q2 -32 -16 -58q-33 -51 -96 -63q-29 -5 -50 3q-26 9 -40 33q-13 20 -5 43q8 27 42 54
q0 -3 0.5 -8t1.5 -8q3 -11 8 -26q4 -8 7 -12q20 -28 49 -11q15 9 25 22q13 17 8 39q-4 18 -14 36q-4 8 -13 23.5t-13 23.5q-10 22 -14 40q-6 26 9 54q9 17 25 33q39 36 89 46q19 4 33 1q20 -3 28 -23q1 -3 6 -24q7 1 22.5 3.5t24.5 3.5q4 18 -13 27q35 19 59 22h13
q17 -2 17 -19q0 -9 -4 -25q-3 -12 -3 -13q0 1 4 5.5t6 7.5q4 6 11 7l93 15q21 4 64 11t65 11q27 5 47 -1q26 -8 40 -32q0 -2 1 -4q-17 -2 -36 -4t-41 -4.5t-35 -3.5q-19 -2 -57 -5.5t-56 -5.5q-74 -8 -112 -12q-3 -8 -9 -22t-9 -22q-42 -107 -45 -116q-8 -28 -9 -42v-11
q2 -15 17 -12q7 1 13 6q16 11 30 34q1 2 1 6q6 53 43 144q2 5 6 6q20 6 31 6q23 0 21 -21q0 -4 -5 -21q-21 -64 -26 -83q-4 -13 -8 -43q-1 -5 1 -14q2 -10 10 -7q5 1 12 8q12 17 14 22q7 17 19 53q23 73 37 105q4 9 11 10q3 1 9.5 2.5t9.5 1.5q1 0 2.5 0.5t2.5 0.5
q26 0 23 -26q-2 -12 -4 -16q-23 -64 -29 -93q-4 -19 -5 -31q-2 -8 0 -16q2 -10 12 -7q8 4 11 7q7 7 18 33q1 3 1 10q0 64 40 118q15 20 33 31q14 8 24 9q24 3 40 -19q2 -3 5.5 -10.5t5.5 -10.5q6 14 8 21q16 48 23 91q5 30 0 46q2 2 4 3q26 17 46 19q16 2 21 -3t6 -19
q1 -15 -5 -41q-9 -39 -35 -103q-29 -70 -37 -99q-1 -4 -2 -9t-2 -11.5t-2 -9.5q-1 -6 0 -12q3 -19 21 -12l6 3t5 3q2 1 5 4q11 9 11 23q1 40 19 91q4 12 13 34.5l11 27.5q3 7 9 8q18 5 22 5q5 1 11 0q14 -3 16 -18q1 -10 -4 -22q-4 -12 -12 -35.5t-12 -35.5q-10 -34 -11 -53
q0 -12 1 -18q2 -11 12 -6q8 4 11 8q7 9 13 22l10 25q0 1 1 3.5t1.5 4.5t0.5 4q3 71 47 129q16 20 36 32q18 10 37 9q23 -3 35 -21q2 -2 4.5 -7l3.5 -7q15 5 43 13q22 7 68 19q14 4 30 1zM1074 514q19 40 22 94v10t-1 10q0 4 -2 10q-5 16 -20 11q-10 -4 -15 -9q-7 -7 -14 -19
q-10 -16 -17 -43q-9 -37 -4 -63q1 -10 7 -21q6 -13 20 -6q9 4 13 9q7 8 11 17zM1421 715q-16 -4 -28 -21l1 -1v-1l45 15q-7 11 -18 8zM1436 589q10 28 12 77q0 1 -0.5 3t-0.5 4q-28 -5 -69 -10l-2 -2q-19 -49 -13 -97q2 -14 7 -23q8 -18 25 -8q9 6 17 14q16 17 24 42z
M1111 889q-16 7 -18 27q-3 19 4 41q2 9 8 28t9 29q12 46 14 71q2 20 -4 33q27 7 43 -3q13 -9 19 -39l2.5 5t1.5 4q7 16 19 29q22 23 56 20q20 -2 28 -20q5 -11 5 -35q-1 -39 -14 -78l-18 -54q-2 -7 -4 -23v-6q2 -7 7 -4q3 1 7 5q13 10 22 25q13 23 21 52q14 56 17 85
q4 31 1 46q-2 8 -3 13q20 7 35 2q15 -4 22 -21q6 -13 4 -41q-2 -31 -17 -77q-7 -21 -7 -45q0 -5 2 -13q3 -9 13 -6q7 3 9 4q12 10 17 16q21 26 26 52q2 11 7 32t7 31q6 30 6 61q0 16 -4 23q20 9 36 3t22 -23q4 -11 4 -32q-1 -41 -12 -82q-8 -33 -32 -97q-2 -6 -3 -8h28
q22 0 44 -8q21 -7 36 -24q25 -28 10 -60q-7 -15 -20 -28q-1 1 -3 3.5t-3 3.5q-29 38 -74 47q-8 2 -43 4q-5 0 -8 -5q-10 -16 -16 -24q-16 -22 -35 -36q-15 -10 -33 -12q-33 -1 -55 27l12 18q-12 -4 -37 -21q-3 5 -1 15q2 15 10 25q7 10 22 19q44 28 97 42q1 1 3 1t3 1
q1 0 2 1q5 18 10 32l-1 1q-1 -1 -2.5 -3t-2.5 -3q-21 -23 -45 -27q-15 -2 -23 -1q-23 3 -31 27q-2 4 -3 7q-6 -9 -16 -25q-8 -12 -18 -21q-17 -14 -39 -12q-32 2 -34 34q0 13 3 27q6 29 17 70q12 44 13 58q1 7 -1 19q-2 7 -7 8.5t-10 -2.5q-7 -5 -11 -12q-14 -24 -18 -32
q-25 -56 -36 -95q-9 -35 -3 -71v-3q-27 0 -39 5zM1361 813q10 11 24 39h-2q-24 -4 -53 -16q-3 -1 -3 -5q0 -11 1 -16q1 -8 8.5 -11t14.5 1q4 2 10 8zM445 745q-36 -31 -48 -81q-23 5 -36 25t-6 42q2 7 11 23q29 52 94 71q27 7 57 7q2 2 2 4l69 231q2 6 2 9q0 6 8 8
q10 3 18 -1q9 -5 8 -15q-2 -20 -4 -32q-7 -36 -29 -108q-1 -3 -1 -10q1 1 3 2.5t3 2.5q30 27 51 68q32 61 35 120q2 20 -4 35q-6 16 -13 22q-7 5 -13 5q-21 -2 -36 -10q-26 -13 -50 -42q-28 -35 -48 -75q-27 -55 -35 -96q-7 -33 -3 -59q3 -21 17 -36q-1 0 -2.5 -0.5
t-2.5 -0.5q-2 0 -9.5 0.5t-11.5 1.5q-45 11 -51 59q-4 29 7 70q27 99 117 165q52 37 116 40q27 1 49.5 -17.5t27.5 -44.5q5 -25 -3 -57q-25 -95 -87 -157q-19 -19 -41 -32l-2 -1q-2 -1 -3 -2q27 -16 51 -24q43 -16 85 -16q43 0 85 22q1 1 3 1t3 1q1 -4 1 -9q2 -25 -3 -42
q-14 -48 -64 -50q-27 0 -51 9q-56 22 -96 53q-18 14 -32 32q-2 2 -2 4q-1 0 -1 -1t-1 -1q-1 -5 -2 -16t-1 -16q34 -9 42 -37q-26 7 -43 5v-7q-2 -20 -4 -28q-4 -17 -22 -18q-12 -1 -24 3q-14 6 -17 21q-1 6 4 10q12 8 18 13q-48 -11 -85 -43zM739 899q-12 20 -10 46
q5 76 58 128q21 19 41 23q32 6 48 -20l2 -4q1 0 2.5 2t2.5 2q3 3 9 8t9 8q21 17 48 11q19 -3 25 -21q1 -3 6 -22l3 6q8 18 19 30q22 26 57 21q21 -3 28 -21q5 -10 5 -27q1 -30 -11 -72q-3 -11 -10 -32.5t-10 -31.5q-6 -21 -13 -50q0 -1 -0.5 -2.5t-0.5 -2.5q17 4 22 5
q18 2 27.5 -7t7.5 -27q-2 -23 -20 -41t-41 -19q-33 -2 -46 27l-3 6l-4 -2q-33 -20 -81 -25q-21 -2 -31 0q-5 1 -15 5q-15 8 -16 22q-2 20 13 52q3 -3 5 -4q36 -29 86 -24q14 1 38 11q5 2 5 7q0 54 24 137q11 34 12 58q0 2 -0.5 5.5t-0.5 5.5q0 10 -8 13q-5 2 -12 -5l-12 -15
q-14 -24 -19 -36q-20 -52 -29 -78q-11 -33 -6 -75v-7q-26 0 -38 5q-15 6 -18 23q-4 15 1 33q2 8 6.5 23t5.5 18q12 36 18 78q1 7 1 20q0 4 -1 6q-3 11 -12 4q-4 -3 -21 -20q-1 -1 -1 -6q7 -81 -55 -146q-22 -22 -46 -26q-29 -5 -44 20zM1047 854q-1 -1 -2 -3l-1 -1
q0 -2 0.5 -6t1.5 -6q4 -11 11 -13q10 -3 19 6q5 7 7 16q1 8 -3 11.5t-11 2.5q-9 -1 -22 -7zM813 1043q-30 -38 -32 -90q0 -11 3 -22q7 -23 27 -13q11 4 19 13q30 28 40 74v6q-6 0 -9 1q-12 3 -10 15q0 7 3 13q4 10 10 20q-7 10 -18 7q-8 -2 -14 -6q-13 -9 -19 -18zM1332 434
q19 -2 14 -21q-15 -3 -51 -11t-55 -12q-42 -9 -124.5 -26.5t-123.5 -26.5q-18 -4 -100 -21.5t-126 -26.5q-80 -16 -135 51q-1 1 -3 5q8 1 22 3l141 18q23 3 70 9.5t71 9.5q26 3 76.5 9t75.5 10q24 3 71 9.5t70 9.5q14 2 42.5 5.5t43.5 5.5q11 2 21 0zM1298 771q21 -11 9 -34
q-11 -18 -37 -20q-2 1 -8 2t-9 3q-19 10 -10 31q6 14 23.5 20t31.5 -2zM894 283q29 7 44 -7.5t12 -44.5t-22 -52t-48 -29l-48 -11l14 133zM916 223q1 16 -6 23t-22 4l-11 -2l-8 -69l12 3q32 7 35 41zM958 167l15 134l77 17l-3 -29l-44 -10l-2 -22l38 8l-3 -28l-38 -9l-3 -24
l44 10l-4 -30zM1128 251l39 93l41 9l-15 -133l-33 -8l8 74l-31 -79l-28 -6l-15 69l-8 -74l-34 -8l15 134l40 9zM1284 372q24 5 38.5 -6.5t16.5 -35.5q2 -35 -17 -61t-51 -33q-23 -5 -37.5 6.5t-16.5 35.5q-2 35 17 61t50 33zM1274 270q15 4 24 18t8 31q-2 23 -24 19
q-15 -4 -24 -17.5t-8 -30.5q2 -24 24 -20zM987 1589q180 0 343.5 -70t282.5 -189t189 -282.5t70 -343.5t-70 -343.5t-189 -282.5t-282.5 -189t-343.5 -70t-343.5 70t-282.5 189t-189 282.5t-70 343.5t70 343.5t189 282.5t282.5 189t343.5 70zM987 -63q208 0 384.5 103
t279.5 279.5t103 384.5t-103 384.5t-279.5 279.5t-384.5 103t-384.5 -103t-279 -279.5t-102.5 -384.5t102.5 -384.5t279 -279.5t384.5 -103z" />
    <glyph glyph-name="seven" unicode="7" 
d="M1601 747q36 -7 39 -44q-114 -18 -172 -27v-8q-2 -85 -58 -147q-20 -23 -45 -30q-33 -8 -51 18q-2 3 -4 7l-4.5 9t-3.5 8q-1 1 -1.5 3.5t-0.5 3.5q-2 -5 -6 -13q-9 -20 -24 -35q-22 -20 -50 -17q-20 2 -29 20q-2 4 -3 7l-7 -7q-18 -20 -38 -29q-12 -5 -22 -4
q-24 3 -31 25q-1 3 -2.5 8.5t-2.5 8.5q-2 -3 -4 -7q-14 -21 -35 -35q-20 -12 -31 -12q-22 -2 -35 16q-4 6 -12 20q0 -1 -1 -2.5t-2 -2.5q-11 -20 -21 -29q-22 -21 -54 -16q-19 3 -25 21q-1 3 -6 22q-1 -1 -2 -2.5t-1 -2.5q-9 -17 -17 -27q-21 -29 -58 -26q-22 1 -30 25
q-1 2 -2 6.5t-2 7.5q-5 -5 -7 -8q-21 -26 -43 -39q-14 -7 -25 -6q-18 1 -27 18q-4 8 -6 26q-2 28 7 73q10 51 38 130q2 6 3 10q-7 -1 -20.5 -2.5t-19.5 -1.5q-1 -4 -3.5 -13t-4.5 -14q-3 -9 -9 -25q-1 -4 -9.5 -9t-13.5 -5t-5 5q0 4 1 7q1 5 4 16.5t5 17.5q1 3 1.5 8t0.5 8
q-3 0 -7 -0.5t-6 -0.5h-23q-16 2 -11 18q15 2 45 8q0 10 -6 16q-4 4 -10 4q-5 0 -13 -2q-39 -10 -59 -40q-11 -17 -7 -38q5 -23 13 -39q3 -5 14.5 -29.5t18.5 -37.5q14 -26 15 -47q2 -32 -16 -58q-33 -51 -96 -63q-29 -5 -50 3q-28 9 -41 33q-12 19 -4 43q8 27 42 54
q0 -3 0.5 -8t1.5 -8q3 -11 8 -26q4 -8 7 -12q20 -28 49 -11q15 9 25 22q13 17 8 39q-4 18 -14 36q-4 8 -13 23.5t-13 23.5q-10 22 -14 40q-6 26 9 54q9 17 25 33q39 36 89 46q19 4 33 1q20 -3 28 -23q1 -3 6 -24q7 1 22.5 3.5t24.5 3.5q4 18 -13 27q35 19 59 22h13
q17 -2 17 -19q0 -9 -4 -25q-3 -12 -3 -13q0 1 4 5.5t6 7.5q4 6 11 7l93 15q21 4 64 11t65 11q27 5 47 -1q26 -8 40 -32q0 -2 1 -4q-17 -2 -36 -4t-41 -4.5t-35 -3.5q-19 -2 -57 -5.5t-56 -5.5q-74 -8 -112 -12q-3 -8 -9 -22t-9 -22q-42 -107 -45 -116q-8 -28 -9 -42v-11
q2 -15 17 -12q7 1 13 6q16 11 30 34q1 2 1 6q6 53 43 144q2 5 6 6q20 6 31 6q23 0 21 -21q0 -4 -5 -21q-21 -64 -26 -83q-4 -13 -8 -43q-1 -5 1 -14q2 -10 10 -7q5 1 12 8q12 17 14 22q7 17 19 53q23 73 37 105q4 9 11 10q3 0 9 2t9 2q1 0 3 0.5t3 0.5q26 0 23 -26
q-2 -12 -4 -16q-23 -64 -29 -93q-4 -19 -5 -31q-2 -8 0 -16q2 -10 12 -7q8 4 11 7q7 7 18 33q1 3 1 10q0 64 40 118q15 20 33 31q14 8 24 9q24 3 40 -19q2 -3 5.5 -10.5t5.5 -10.5q6 14 8 21q16 48 23 91q5 30 0 46q2 2 4 3q26 17 46 19q16 2 21 -3t6 -19q1 -15 -5 -41
q-9 -39 -35 -103q-29 -70 -37 -99q-1 -4 -2 -9t-2 -11.5t-2 -9.5q-1 -6 0 -12q3 -19 21 -12l6 3t5 3q2 1 5 4q11 9 11 23q1 40 19 91q4 12 13 34.5l11 27.5q3 7 9 8q18 5 22 5q5 1 11 0q14 -3 16 -18q1 -10 -4 -22q-4 -12 -12 -35.5t-12 -35.5q-10 -34 -11 -53q0 -12 1 -18
q2 -11 12 -6q8 4 11 8q7 9 13 22l10 25q0 1 1 3.5t1.5 4.5t0.5 4q3 71 47 129q16 20 36 32q18 10 37 9q23 -3 35 -21q2 -2 4.5 -7l3.5 -7q15 5 43 13q22 7 68 19q14 4 30 1zM1074 514q19 40 22 94v10t-1 10q0 4 -2 10q-5 16 -20 11q-10 -4 -15 -9q-7 -7 -14 -19
q-10 -16 -17 -43q-9 -37 -4 -63q1 -10 7 -21q6 -13 20 -6q9 4 13 9q7 8 11 17zM1421 715q-16 -4 -28 -21l1 -1v-1l45 15q-7 11 -18 8zM1436 589q10 28 12 77q0 1 -0.5 3t-0.5 4q-28 -5 -69 -10l-2 -2q-19 -49 -13 -97q2 -14 7 -23q8 -18 25 -8q9 6 17 14q16 17 24 42z
M1111 889q-16 7 -18 27q-3 19 4 41q2 9 8 28t9 29q12 46 14 71q2 20 -4 33q27 7 43 -3q13 -9 19 -39l2.5 5t1.5 4q7 16 19 29q22 23 56 20q20 -2 28 -20q5 -11 5 -35q-1 -39 -14 -78l-18 -54q-2 -7 -4 -23v-6q2 -7 7 -4q3 1 7 5q13 10 22 25q13 23 21 52q14 56 17 85
q4 31 1 46q-2 8 -3 13q20 7 35 2q15 -4 22 -21q6 -13 4 -41q-2 -31 -17 -77q-7 -21 -7 -45q0 -5 2 -13q3 -9 13 -6q7 3 9 4q12 10 17 16q21 26 26 52q2 11 7 32t7 31q6 30 6 61q0 16 -4 23q20 9 36 3t22 -23q4 -11 4 -32q-1 -41 -12 -82q-8 -33 -32 -97q-2 -6 -3 -8h28
q22 0 44 -8q21 -7 36 -24q25 -28 10 -60q-7 -15 -20 -28q-1 1 -3 3.5t-3 3.5q-29 38 -74 47q-8 2 -43 4q-5 0 -8 -5q-10 -16 -16 -24q-16 -22 -35 -36q-15 -10 -33 -12q-33 -1 -55 27l12 18q-12 -4 -37 -21q-3 5 -1 15q2 15 10 25q7 10 22 19q44 28 97 42q1 1 3 1t3 1
q1 0 2 1q5 18 10 32l-1 1q-1 -1 -2.5 -3t-2.5 -3q-21 -23 -45 -27q-15 -2 -23 -1q-23 3 -31 27q-2 4 -3 7q-6 -9 -16 -25q-8 -12 -18 -21q-17 -14 -39 -12q-32 2 -34 34q0 13 3 27q6 29 17 70q12 44 13 58q1 7 -1 19q-2 7 -7 8.5t-10 -2.5q-7 -5 -11 -12q-14 -24 -18 -32
q-25 -56 -36 -95q-9 -35 -3 -71v-3q-27 0 -39 5zM1361 813q10 11 24 39h-2q-24 -4 -53 -16q-3 -1 -3 -5q0 -11 1 -16q1 -8 8.5 -11t14.5 1q4 2 10 8zM445 745q-36 -31 -48 -81q-23 5 -36 25t-6 42q2 7 11 23q29 52 94 71q27 7 57 7q2 2 2 4l69 231q2 6 2 9q0 6 8 8
q10 3 18 -1q9 -5 8 -15q-2 -20 -4 -32q-7 -36 -29 -108q-1 -3 -1 -10q1 1 3 2.5t3 2.5q30 27 51 68q32 61 35 120q2 20 -4 35q-6 16 -13 22q-7 5 -13 5q-21 -2 -36 -10q-26 -13 -50 -42q-28 -35 -48 -75q-27 -55 -35 -96q-7 -33 -3 -59q3 -21 17 -36q-1 0 -2.5 -0.5
t-2.5 -0.5q-2 0 -9.5 0.5t-11.5 1.5q-45 11 -51 59q-4 29 7 70q27 99 117 165q52 37 116 40q27 1 49.5 -17.5t27.5 -44.5q5 -25 -3 -57q-25 -95 -87 -157q-19 -19 -41 -32l-2 -1q-2 -1 -3 -2q27 -16 51 -24q43 -16 85 -16q43 0 85 22q1 1 3 1t3 1q1 -4 1 -9q2 -25 -3 -42
q-14 -48 -64 -50q-27 0 -51 9q-56 22 -96 53q-18 14 -32 32q-2 2 -2 4l-2 -2q-1 -5 -2 -16t-1 -16q34 -9 42 -37q-26 7 -43 5v-7q-2 -20 -4 -28q-4 -17 -22 -18q-12 -1 -24 3q-14 6 -17 21q-1 6 4 10q12 8 18 13q-48 -11 -85 -43zM739 899q-12 20 -10 46q5 76 58 128
q21 19 41 23q32 6 48 -20l2 -4q1 0 2.5 2t2.5 2q3 3 9 8t9 8q21 17 48 11q19 -3 25 -21q1 -3 6 -22l3 6q8 18 19 30q22 26 57 21q21 -3 28 -21q5 -10 5 -27q1 -30 -11 -72q-3 -11 -10 -32.5t-10 -31.5q-6 -21 -13 -50q0 -1 -0.5 -2.5t-0.5 -2.5q17 4 22 5q18 2 27.5 -7
t7.5 -27q-2 -23 -20 -41t-41 -19q-33 -2 -46 27l-3 6l-4 -2q-33 -20 -81 -25q-21 -2 -31 0q-5 1 -15 5q-15 8 -16 22q-2 20 13 52q3 -3 5 -4q36 -29 86 -24q14 1 38 11q5 2 5 7q0 54 24 137q11 34 12 58q0 2 -0.5 5.5t-0.5 5.5q0 10 -8 13q-5 2 -12 -5l-12 -15
q-14 -24 -19 -36q-20 -52 -29 -78q-11 -33 -6 -75v-7q-26 0 -38 5q-15 6 -18 23q-4 15 1 33q2 8 6.5 23t5.5 18q12 36 18 78q1 7 1 20q0 4 -1 6q-3 11 -12 4q-4 -3 -21 -20q-1 -1 -1 -6q7 -81 -55 -146q-22 -22 -46 -26q-29 -5 -44 20zM1047 854q-1 -1 -2 -3l-1 -1
q0 -2 0.5 -6t1.5 -6q4 -11 11 -13q10 -3 19 6q5 7 7 16q1 8 -3 11.5t-11 2.5q-9 -1 -22 -7zM813 1043q-30 -38 -32 -90q0 -11 3 -22q7 -23 27 -13q11 4 19 13q30 28 40 74v6q-6 0 -9 1q-12 3 -10 15q0 7 3 13q4 10 10 20q-7 10 -18 7q-8 -2 -14 -6q-13 -9 -19 -18zM1332 434
q19 -2 14 -21q-15 -3 -51 -11t-55 -12q-42 -9 -124.5 -26.5t-123.5 -26.5q-18 -4 -100 -21.5t-126 -26.5q-80 -16 -135 51q-1 1 -3 5q8 1 22 3l141 18q23 3 70 9.5t71 9.5q26 3 76.5 9t75.5 10q24 3 71 9.5t70 9.5q14 2 42.5 5.5t43.5 5.5q11 2 21 0zM1298 771q21 -11 9 -34
q-11 -18 -37 -20q-2 1 -8 2t-9 3q-19 10 -10 31q6 14 23.5 20t31.5 -2zM894 283q29 7 44 -7.5t12 -44.5t-22 -52t-48 -29l-48 -11l14 133zM916 223q1 16 -6 23t-22 4l-11 -2l-8 -69l12 3q32 7 35 41zM958 167l15 134l77 17l-3 -29l-44 -10l-2 -22l38 8l-3 -28l-38 -9l-3 -24
l44 10l-4 -30zM1128 251l39 93l41 9l-15 -133l-33 -8l8 74l-31 -79l-28 -6l-15 69l-8 -74l-34 -8l15 134l40 9zM1284 372q24 5 38.5 -6.5t16.5 -35.5q2 -35 -17 -61t-51 -33q-23 -5 -37.5 6.5t-16.5 35.5q-2 35 17 61t50 33zM1274 270q15 4 24 18t8 31q-2 23 -24 19
q-15 -4 -24 -17.5t-8 -30.5q2 -24 24 -20zM987 1589q180 0 343.5 -70t282.5 -189t189 -282.5t70 -343.5t-70 -343.5t-189 -282.5t-282.5 -189t-343.5 -70t-343.5 70t-282.5 189t-189 282.5t-70 343.5t70 343.5t189 282.5t282.5 189t343.5 70zM987 -63q208 0 384.5 103
t279.5 279.5t103 384.5t-103 384.5t-279.5 279.5t-384.5 103t-384.5 -103t-279 -279.5t-102.5 -384.5t102.5 -384.5t279 -279.5t384.5 -103z" />
    <glyph glyph-name="eight" unicode="8" 
d="M1601 747q36 -7 39 -44q-114 -18 -172 -27v-8q-2 -85 -58 -147q-20 -23 -45 -30q-33 -8 -51 18q-2 3 -4 7l-4.5 9t-3.5 8q-1 1 -1.5 3.5t-0.5 3.5q-2 -5 -6 -13q-9 -20 -24 -35q-22 -20 -50 -17q-20 2 -29 20q-2 4 -3 7l-7 -7q-18 -20 -38 -29q-12 -5 -22 -4
q-24 3 -31 25q-1 3 -2.5 8.5t-2.5 8.5q-2 -3 -4 -7q-14 -21 -35 -35q-20 -12 -31 -12q-22 -2 -35 16q-4 6 -12 20q0 -1 -1 -2.5t-2 -2.5q-11 -20 -21 -29q-22 -21 -54 -16q-19 3 -25 21q-1 3 -6 22q-1 -1 -2 -2.5t-1 -2.5q-9 -17 -17 -27q-21 -29 -58 -26q-22 1 -30 25
q-1 2 -2 6.5t-2 7.5q-5 -5 -7 -8q-21 -26 -43 -39q-14 -7 -25 -6q-18 1 -27 18q-4 8 -6 26q-2 28 7 73q10 51 38 130q2 6 3 10q-7 -1 -20.5 -2.5t-19.5 -1.5q-1 -4 -3.5 -13t-4.5 -14q-3 -9 -9 -25q-1 -4 -9.5 -9t-13.5 -5t-5 5q0 4 1 7q1 5 4 16.5t5 17.5q1 3 1.5 8t0.5 8
q-3 0 -7 -0.5t-6 -0.5h-23q-15 1 -10 18q12 2 44 8q0 10 -6 16q-4 4 -10 4q-5 0 -13 -2q-39 -10 -59 -40q-11 -17 -7 -38q5 -23 13 -39q3 -5 14.5 -29.5t18.5 -37.5q14 -26 15 -47q2 -32 -16 -58q-33 -51 -96 -63q-29 -5 -50 3q-26 9 -40 33q-13 20 -5 43q8 27 42 54
q0 -3 0.5 -8t1.5 -8q3 -11 8 -26q4 -8 7 -12q20 -28 49 -11q15 9 25 22q13 17 8 39q-4 18 -14 36q-4 8 -13 23.5t-13 23.5q-10 22 -14 40q-6 26 9 54q9 17 25 33q39 36 89 46q19 4 33 1q20 -3 28 -23q1 -3 6 -24q7 1 22.5 3.5t24.5 3.5q4 18 -13 27q35 19 59 22h13
q17 -2 17 -19q0 -9 -4 -25q-3 -12 -3 -13q0 1 4 5.5t6 7.5q4 6 11 7l93 15q21 4 64 11t65 11q27 5 47 -1q26 -8 40 -32q0 -2 1 -4q-17 -2 -36 -4t-41 -4.5t-35 -3.5q-19 -2 -57 -5.5t-56 -5.5q-74 -8 -112 -12q-3 -8 -9 -22t-9 -22q-42 -107 -45 -116q-8 -28 -9 -42v-11
q2 -15 17 -12q7 1 13 6q16 11 30 34q1 2 1 6q6 53 43 144q2 5 6 6q20 6 31 6q23 0 21 -21q0 -4 -5 -21q-21 -64 -26 -83q-4 -13 -8 -43q-1 -5 1 -14q2 -10 10 -7q5 1 12 8q12 17 14 22q7 17 19 53q23 73 37 105q4 9 11 10q3 0 9 2t9 2q1 0 3 0.5t3 0.5q26 0 23 -26
q-2 -12 -4 -16q-23 -64 -29 -93q-4 -19 -5 -31q-2 -8 0 -16q2 -10 12 -7q8 4 11 7q7 7 18 33q1 3 1 10q0 64 40 118q15 20 33 31q14 8 24 9q24 3 40 -19q2 -3 5.5 -10.5t5.5 -10.5q6 14 8 21q16 48 23 91q5 30 0 46q2 2 4 3q26 17 46 19q16 2 21 -3t6 -19q1 -15 -5 -41
q-9 -39 -35 -103q-29 -70 -37 -99q-1 -4 -2 -9t-2 -11.5t-2 -9.5q-1 -6 0 -12q3 -19 21 -12l6 3t5 3q2 1 5 4q11 9 11 23q1 40 19 91q4 12 13 34.5l11 27.5q3 7 9 8q18 5 22 5q5 1 11 0q14 -3 16 -18q1 -10 -4 -22q-4 -12 -12 -35.5t-12 -35.5q-10 -34 -11 -53q0 -12 1 -18
q2 -11 12 -6q8 4 11 8q7 9 13 22l10 25q0 1 1 3.5t1.5 4.5t0.5 4q3 71 47 129q16 20 36 32q18 10 37 9q23 -3 35 -21q2 -2 4.5 -7l3.5 -7q15 5 43 13q22 7 68 19q14 4 30 1zM1074 514q19 40 22 94v10t-1 10q0 4 -2 10q-5 16 -20 11q-10 -4 -15 -9q-7 -7 -14 -19
q-10 -16 -17 -43q-9 -37 -4 -63q1 -10 7 -21q6 -13 20 -6q9 4 13 9q7 8 11 17zM1421 715q-16 -4 -28 -21l1 -1v-1l45 15q-7 11 -18 8zM1436 589q10 28 12 77q0 1 -0.5 3t-0.5 4q-28 -5 -69 -10l-2 -2q-19 -49 -13 -97q2 -14 7 -23q8 -18 25 -8q9 6 17 14q16 17 24 42z
M1111 889q-16 7 -18 27q-3 19 4 41q2 9 8 28t9 29q12 46 14 71q2 20 -4 33q27 7 43 -3q13 -9 19 -39l2.5 5t1.5 4q7 16 19 29q22 23 56 20q20 -2 28 -20q5 -11 5 -35q-1 -39 -14 -78l-18 -54q-2 -7 -4 -23v-6q2 -7 7 -4q3 1 7 5q13 10 22 25q13 23 21 52q14 56 17 85
q4 31 1 46q-2 8 -3 13q20 7 35 2q15 -4 22 -21q6 -13 4 -41q-2 -31 -17 -77q-7 -21 -7 -45q0 -5 2 -13q3 -9 13 -6q7 3 9 4q12 10 17 16q21 26 26 52q2 11 7 32t7 31q6 30 6 61q0 16 -4 23q20 9 36 3t22 -23q4 -11 4 -32q-1 -41 -12 -82q-8 -33 -32 -97q-2 -6 -3 -8h28
q22 0 44 -8q21 -7 36 -24q25 -28 10 -60q-7 -15 -20 -28q-1 1 -3 3.5t-3 3.5q-29 38 -74 47q-8 2 -43 4q-5 0 -8 -5q-10 -16 -16 -24q-16 -22 -35 -36q-15 -10 -33 -12q-33 -1 -55 27l12 18q-12 -4 -37 -21q-3 5 -1 15q2 15 10 25q7 10 22 19q44 28 97 42q1 1 3 1t3 1
q1 0 2 1q5 18 10 32l-1 1q-1 -1 -2.5 -3t-2.5 -3q-21 -23 -45 -27q-15 -2 -23 -1q-23 3 -31 27q-2 4 -3 7q-6 -9 -16 -25q-8 -12 -18 -21q-17 -14 -39 -12q-32 2 -34 34q0 13 3 27q6 29 17 70q12 44 13 58q1 7 -1 19q-2 7 -7 8.5t-10 -2.5q-7 -5 -11 -12q-14 -24 -18 -32
q-25 -56 -36 -95q-9 -35 -3 -71v-3q-27 0 -39 5zM1361 813q10 11 24 39h-2q-24 -4 -53 -16q-3 -1 -3 -5q0 -11 1 -16q1 -8 8.5 -11t14.5 1q4 2 10 8zM445 745q-36 -31 -48 -81q-23 5 -36 25t-6 42q2 7 11 23q29 52 94 71q27 7 57 7q2 2 2 4l69 231q2 6 2 9q0 6 8 8
q10 3 18 -1q9 -5 8 -15q-2 -20 -4 -32q-7 -36 -29 -108q-1 -3 -1 -10q1 1 3 2.5t3 2.5q30 27 51 68q32 61 35 120q2 20 -4 35q-6 16 -13 22q-7 5 -13 5q-21 -2 -36 -10q-26 -13 -50 -42q-28 -35 -48 -75q-27 -55 -35 -96q-6 -30 -2 -59q3 -22 16 -36q-1 0 -2.5 -0.5
t-2.5 -0.5q-2 0 -9.5 0.5t-11.5 1.5q-45 11 -51 59q-4 29 7 70q27 99 117 165q52 37 116 40q27 1 49.5 -17.5t27.5 -44.5q5 -25 -3 -57q-25 -95 -87 -157q-19 -19 -41 -32l-2 -1q-2 -1 -3 -2q27 -16 51 -24q43 -16 85 -16q43 0 85 22q1 1 3 1t3 1q1 -4 1 -9q2 -25 -3 -42
q-14 -48 -64 -50q-27 0 -51 9q-56 22 -96 53q-18 14 -32 32q-2 2 -2 4l-2 -2q-1 -5 -2 -16t-1 -16q34 -9 42 -37q-26 7 -43 5v-7q-2 -20 -4 -28q-4 -17 -22 -18q-12 -1 -24 3q-14 6 -17 21q-1 6 4 10q12 8 18 13q-48 -11 -85 -43zM739 899q-12 20 -10 46q5 76 58 128
q21 19 41 23q32 6 48 -20v-2q0 -1 1 -2q1 0 2.5 2t2.5 2q3 3 9.5 8t9.5 8q21 17 48 11q19 -3 25 -21q1 -3 6 -22l3 6q8 18 19 30q22 26 57 21q21 -3 28 -21q5 -10 5 -27q1 -30 -11 -72q-3 -11 -10 -32.5t-10 -31.5q-6 -21 -13 -50q0 -1 -0.5 -2.5t-0.5 -2.5q17 4 22 5
q18 2 27.5 -7t7.5 -27q-2 -23 -20 -41t-41 -19q-33 -2 -46 27l-3 6l-4 -2q-33 -20 -81 -25q-21 -2 -31 0q-5 1 -15 5q-15 8 -16 22q-2 20 13 52q3 -3 5 -4q36 -29 86 -24q14 1 38 11q5 2 5 7q0 54 24 137q11 34 12 58q0 2 -0.5 5.5t-0.5 5.5q0 10 -8 13q-5 2 -12 -5l-12 -15
q-14 -24 -19 -36q-20 -52 -29 -78q-11 -33 -6 -75v-7q-26 0 -38 5q-15 6 -18 23q-4 15 1 33q2 8 6.5 23t5.5 18q12 36 18 78q1 7 1 20q0 4 -1 6q-3 11 -12 4q-4 -3 -21 -20q-1 -1 -1 -6q7 -81 -55 -146q-22 -22 -46 -26q-29 -5 -44 20zM1047 854q-1 -1 -2 -3l-1 -1
q0 -2 0.5 -6t1.5 -6q4 -11 11 -13q10 -3 19 6q5 7 7 16q1 8 -3 11.5t-11 2.5q-9 -1 -22 -7zM813 1043q-30 -38 -32 -90q0 -11 3 -22q7 -23 27 -13q11 4 19 13q30 28 40 74v6q-6 0 -9 1q-12 3 -10 15q0 7 3 13q4 10 10 20q-7 10 -18 7q-8 -2 -14 -6q-13 -9 -19 -18zM1332 434
q19 -2 14 -21q-15 -3 -51 -11t-55 -12q-42 -9 -124.5 -26.5t-123.5 -26.5q-18 -4 -100 -21.5t-126 -26.5q-80 -16 -135 51q-1 1 -3 5q8 1 22 3l141 18q23 3 70 9.5t71 9.5q26 3 76.5 9t75.5 10q24 3 71 9.5t70 9.5q14 2 42.5 5.5t43.5 5.5q11 2 21 0zM1298 771q21 -11 9 -34
q-11 -18 -37 -20q-2 1 -8 2t-9 3q-19 10 -10 31q6 14 23.5 20t31.5 -2zM894 283q29 7 44 -7.5t12 -44.5t-22 -52t-48 -29l-48 -11l14 133zM916 223q1 16 -6 23t-22 4l-11 -2l-8 -69l12 3q32 7 35 41zM958 167l15 134l77 17l-3 -29l-44 -10l-2 -22l38 8l-3 -28l-38 -9l-3 -24
l44 10l-4 -30zM1128 251l39 93l41 9l-15 -133l-33 -8l8 74l-31 -79l-28 -6l-15 69l-8 -74l-34 -8l15 134l40 9zM1284 372q24 5 38.5 -6.5t16.5 -35.5q2 -35 -17 -61t-51 -33q-23 -5 -37.5 6.5t-16.5 35.5q-2 35 17 61t50 33zM1274 270q15 4 24 18t8 31q-2 23 -24 19
q-15 -4 -24 -17.5t-8 -30.5q2 -24 24 -20zM987 1589q180 0 343.5 -70t282.5 -189t189 -282.5t70 -343.5t-70 -343.5t-189 -282.5t-282.5 -189t-343.5 -70t-343.5 70t-282.5 189t-189 282.5t-70 343.5t70 343.5t189 282.5t282.5 189t343.5 70zM987 -63q208 0 384.5 103
t279.5 279.5t103 384.5t-103 384.5t-279.5 279.5t-384.5 103t-384.5 -103t-279 -279.5t-102.5 -384.5t102.5 -384.5t279 -279.5t384.5 -103z" />
    <glyph glyph-name="nine" unicode="9" 
d="M1601 747q36 -7 39 -44q-114 -18 -172 -27v-8q-2 -85 -58 -147q-20 -23 -45 -30q-33 -8 -51 18q-2 3 -4 7l-4.5 9t-3.5 8q-1 1 -1.5 3.5t-0.5 3.5q-2 -5 -6 -13q-9 -20 -24 -35q-22 -20 -50 -17q-20 2 -29 20q-2 4 -3 7l-7 -7q-18 -20 -38 -29q-12 -5 -22 -4
q-24 3 -31 25q-1 3 -2.5 8.5t-2.5 8.5q-2 -3 -4 -7q-14 -21 -35 -35q-20 -12 -31 -12q-22 -2 -35 16q-4 6 -12 20q0 -1 -1 -2.5t-2 -2.5q-11 -20 -21 -29q-22 -21 -54 -16q-19 3 -25 21q-1 3 -6 22q-1 -1 -2 -2.5t-1 -2.5q-9 -17 -17 -27q-21 -29 -58 -26q-22 1 -30 25
q-1 2 -2 6.5t-2 7.5q-5 -5 -7 -8q-21 -26 -43 -39q-14 -7 -25 -6q-18 1 -27 18q-4 8 -6 26q-2 28 7 73q10 51 38 130q2 6 3 10q-7 -1 -20.5 -2.5t-19.5 -1.5q-1 -4 -3.5 -13t-4.5 -14q-3 -9 -9 -25q-1 -4 -9.5 -9t-13.5 -5t-5 5q0 4 1 7q1 5 4 16.5t5 17.5q1 3 1.5 8t0.5 8
q-3 0 -7 -0.5t-6 -0.5h-23q-15 1 -10 18q12 2 44 8q0 10 -6 16q-4 4 -10 4q-5 0 -13 -2q-39 -10 -59 -40q-11 -17 -7 -38q5 -23 13 -39q3 -5 14.5 -29.5t18.5 -37.5q14 -26 15 -47q2 -32 -16 -58q-33 -51 -96 -63q-29 -5 -50 3q-28 9 -41 33q-12 19 -4 43q8 27 42 54
q0 -3 0.5 -8t1.5 -8q3 -11 8 -26q4 -8 7 -12q20 -28 49 -11q15 9 25 22q13 17 8 39q-4 18 -14 36q-4 8 -13 23.5t-13 23.5q-10 22 -14 40q-6 26 9 54q9 17 25 33q39 36 89 46q19 4 33 1q20 -3 28 -23q1 -3 6 -24q7 1 22.5 3.5t24.5 3.5q4 18 -13 27q35 19 59 22h13
q17 -2 17 -19q0 -9 -4 -25q-3 -12 -3 -13q0 1 4 5.5t6 7.5q4 6 11 7l93 15q21 4 64 11t65 11q27 5 47 -1q26 -8 40 -32q0 -2 1 -4q-17 -2 -36 -4t-41 -4.5t-35 -3.5q-19 -2 -57 -5.5t-56 -5.5q-74 -8 -112 -12q-3 -8 -9 -22t-9 -22q-42 -107 -45 -116q-8 -28 -9 -42v-11
q2 -15 17 -12q7 1 13 6q16 11 30 34q1 2 1 6q6 53 43 144q2 5 6 6q20 6 31 6q23 0 21 -21q0 -4 -5 -21q-21 -64 -26 -83q-4 -13 -8 -43q-1 -5 1 -14q2 -10 10 -7q5 1 12 8q12 17 14 22q7 17 19 53q23 73 37 105q4 9 11 10q3 0 9 2t9 2q1 0 3 0.5t3 0.5q26 0 23 -26
q-2 -12 -4 -16q-23 -64 -29 -93q-4 -19 -5 -31q-2 -8 0 -16q2 -10 12 -7q8 4 11 7q7 7 18 33q1 3 1 10q0 64 40 118q15 20 33 31q14 8 24 9q24 3 40 -19q2 -3 5.5 -10.5t5.5 -10.5q6 14 8 21q16 48 23 91q5 30 0 46q2 2 4 3q26 17 46 19q16 2 21 -3t6 -19q1 -15 -5 -41
q-9 -39 -35 -103q-29 -70 -37 -99q-1 -4 -2 -9t-2 -11.5t-2 -9.5q-1 -6 0 -12q3 -19 21 -12l6 3t5 3q2 1 5 4q11 9 11 23q1 40 19 91q4 12 13 34.5l11 27.5q3 7 9 8q18 5 22 5q5 1 11 0q14 -3 16 -18q1 -10 -4 -22q-4 -12 -12 -35.5t-12 -35.5q-10 -34 -11 -53q0 -12 1 -18
q2 -11 12 -6q8 4 11 8q7 9 13 22l10 25q0 1 1 3.5t1.5 4.5t0.5 4q3 71 47 129q16 20 36 32q18 10 37 9q23 -3 35 -21q2 -2 4.5 -7l3.5 -7q15 5 43 13q22 7 68 19q14 4 30 1zM1074 514q19 40 22 94v10t-1 10q0 4 -2 10q-5 16 -20 11q-10 -4 -15 -9q-7 -7 -14 -19
q-10 -16 -17 -43q-9 -37 -4 -63q1 -10 7 -21q6 -13 20 -6q9 4 13 9q7 8 11 17zM1421 715q-16 -4 -28 -21l1 -1v-1l45 15q-7 11 -18 8zM1436 589q10 28 12 77q0 1 -0.5 3t-0.5 4q-28 -5 -69 -10l-2 -2q-19 -49 -13 -97q2 -14 7 -23q8 -18 25 -8q9 6 17 14q16 17 24 42z
M1111 889q-16 7 -18 27q-3 19 4 41q2 9 8 28t9 29q12 46 14 71q2 20 -4 33q27 7 43 -3q13 -9 19 -39l2.5 5t1.5 4q7 16 19 29q22 23 56 20q20 -2 28 -20q5 -11 5 -35q-1 -39 -14 -78l-18 -54q-2 -7 -4 -23v-6q2 -7 7 -4q3 1 7 5q13 10 22 25q13 23 21 52q14 56 17 85
q4 31 1 46q-2 8 -3 13q20 7 35 2q15 -4 22 -21q6 -13 4 -41q-2 -31 -17 -77q-7 -21 -7 -45q0 -5 2 -13q3 -9 13 -6q7 3 9 4q12 10 17 16q21 26 26 52q2 11 7 32t7 31q6 30 6 61q0 16 -4 23q20 9 36 3t22 -23q4 -11 4 -32q-1 -41 -12 -82q-8 -33 -32 -97q-2 -6 -3 -8h28
q22 0 44 -8q21 -7 36 -24q25 -28 10 -60q-7 -15 -20 -28q-1 1 -3 3.5t-3 3.5q-29 38 -74 47q-8 2 -43 4q-5 0 -8 -5q-10 -16 -16 -24q-16 -22 -35 -36q-15 -10 -33 -12q-33 -1 -55 27l12 18q-12 -4 -37 -21q-3 5 -1 15q2 15 10 25q7 10 22 19q44 28 97 42q1 1 3 1t3 1
q1 0 2 1q5 18 10 32l-1 1q-1 -1 -2.5 -3t-2.5 -3q-21 -23 -45 -27q-15 -2 -23 -1q-23 3 -31 27q-2 4 -3 7q-6 -9 -16 -25q-8 -12 -18 -21q-17 -14 -39 -12q-32 2 -34 34q0 13 3 27q6 29 17 70q12 44 13 58q1 7 -1 19q-2 7 -7 8.5t-10 -2.5q-7 -5 -11 -12q-14 -24 -18 -32
q-25 -56 -36 -95q-9 -35 -3 -71v-3q-27 0 -39 5zM1361 813q10 11 24 39h-2q-22 -4 -52 -16q-4 -1 -4 -5q0 -11 1 -16q1 -8 8.5 -11t14.5 1q4 2 10 8zM445 745q-36 -31 -48 -81q-23 5 -36 25t-6 42q2 7 11 23q29 52 94 71q27 7 57 7q2 2 2 4l69 231q2 6 2 9q0 6 8 8
q10 3 18 -1q9 -5 8 -15q-2 -20 -4 -32q-7 -36 -29 -108q-1 -3 -1 -10q1 1 3 2.5t3 2.5q30 27 51 68q32 61 35 120q2 20 -4 35q-6 16 -13 22q-7 5 -13 5q-21 -2 -36 -10q-26 -13 -50 -42q-28 -35 -48 -75q-27 -55 -35 -96q-6 -30 -2 -59q3 -22 16 -36q-1 0 -2.5 -0.5
t-2.5 -0.5q-2 0 -9.5 0.5t-11.5 1.5q-45 11 -51 59q-4 29 7 70q27 99 117 165q52 37 116 40q27 1 49.5 -17.5t27.5 -44.5q5 -25 -3 -57q-25 -95 -87 -157q-19 -19 -41 -32l-2 -1q-2 -1 -3 -2q27 -16 51 -24q43 -16 85 -16q43 0 85 22q1 1 3 1t3 1q1 -4 1 -9q2 -25 -3 -42
q-14 -48 -64 -50q-27 0 -51 9q-56 22 -96 53q-18 14 -32 32q-2 2 -2 4l-2 -2q-1 -5 -2 -16t-1 -16q34 -9 42 -37q-26 7 -43 5v-7q-2 -20 -4 -28q-4 -17 -22 -18q-12 -1 -24 3q-14 6 -17 21q-1 6 4 10q12 8 18 13q-48 -11 -85 -43zM739 899q-12 20 -10 46q5 76 58 128
q21 19 41 23q32 6 48 -20l2 -4q1 0 2 2l2 2q3 3 9.5 8t9.5 8q21 17 48 11q19 -3 25 -21q1 -3 6 -22l3 6q8 18 19 30q22 26 57 21q21 -3 28 -21q5 -10 5 -27q1 -30 -11 -72q-3 -11 -10 -32.5t-10 -31.5q-6 -21 -13 -50q0 -1 -0.5 -2.5t-0.5 -2.5q17 4 22 5q18 2 27.5 -7
t7.5 -27q-2 -23 -20 -41t-41 -19q-33 -2 -46 27l-3 6l-4 -2q-33 -20 -81 -25q-21 -2 -31 0q-5 1 -15 5q-15 8 -16 22q-2 20 13 52q3 -3 5 -4q36 -29 86 -24q14 1 38 11q5 2 5 7q0 54 24 137q11 34 12 58q0 2 -0.5 5.5t-0.5 5.5q0 10 -8 13q-5 2 -12 -5l-12 -15
q-14 -24 -19 -36q-20 -52 -29 -78q-11 -33 -6 -75v-7q-26 0 -38 5q-15 6 -18 23q-4 15 1 33q2 8 6.5 23t5.5 18q12 36 18 78q1 7 1 20q0 4 -1 6q-3 11 -12 4q-4 -3 -21 -20q-1 -1 -1 -6q7 -81 -55 -146q-22 -22 -46 -26q-29 -5 -44 20zM1047 854q-1 -1 -2 -3l-1 -1
q0 -2 0.5 -6t1.5 -6q4 -11 11 -13q10 -3 19 6q5 7 7 16q1 8 -3 11.5t-11 2.5q-9 -1 -22 -7zM813 1043q-30 -38 -32 -90q0 -11 3 -22q7 -23 27 -13q11 4 19 13q30 28 40 74v6q-6 0 -9 1q-12 3 -10 15q0 7 3 13q4 10 10 20q-7 10 -18 7q-8 -2 -14 -6q-13 -9 -19 -18zM1332 434
q19 -2 14 -21q-15 -3 -51 -11t-55 -12q-42 -9 -124.5 -26.5t-123.5 -26.5q-18 -4 -100 -21.5t-126 -26.5q-80 -16 -135 51q-1 1 -3 5q8 1 22 3l141 18q23 3 70 9.5t71 9.5q26 3 76.5 9t75.5 10q24 3 71 9.5t70 9.5q15 2 44 5.5t43 5.5q10 1 20 0zM1298 771q21 -11 9 -34
q-11 -18 -37 -20q-2 1 -8 2t-9 3q-19 10 -10 31q6 14 23.5 20t31.5 -2zM894 283q29 7 44 -7.5t12 -44.5t-22 -52t-48 -29l-48 -11l14 133zM916 223q1 16 -6 23t-22 4l-11 -2l-8 -69l12 3q32 7 35 41zM958 167l15 134l77 17l-3 -29l-44 -10l-2 -22l38 8l-3 -28l-38 -9l-3 -24
l44 10l-4 -30zM1128 251l39 93l41 9l-15 -133l-33 -8l8 74l-31 -79l-28 -6l-15 69l-8 -74l-34 -8l15 134l40 9zM1284 372q24 5 38.5 -6.5t16.5 -35.5q2 -35 -17 -61t-51 -33q-23 -5 -37.5 6.5t-16.5 35.5q-2 35 17 61t50 33zM1274 270q15 4 24 18t8 31q-2 23 -24 19
q-15 -4 -24 -17.5t-8 -30.5q2 -24 24 -20zM987 1589q180 0 343.5 -70t282.5 -189t189 -282.5t70 -343.5t-70 -343.5t-189 -282.5t-282.5 -189t-343.5 -70t-343.5 70t-282.5 189t-189 282.5t-70 343.5t70 343.5t189 282.5t282.5 189t343.5 70zM987 -63q208 0 384.5 103
t279.5 279.5t103 384.5t-103 384.5t-279.5 279.5t-384.5 103t-384.5 -103t-279 -279.5t-102.5 -384.5t102.5 -384.5t279 -279.5t384.5 -103z" />
    <glyph glyph-name="colon" unicode=":" horiz-adv-x="419" 
d="M181 196q25 25 53.5 23.5t49.5 -30.5q23 -31 25 -92q-3 -94 -55 -161q-21 -26 -43 -38q-54 -29 -87 21q-27 41 -20 102q5 52 30 91q4 7 10 23q16 39 37 61zM205 541q-23 -7 -39 2.5t-18 32.5q-12 113 12 174q18 44 34 61q22 23 48 22.5t48 -23.5q26 -27 28 -86
q-5 -80 -53 -140q-27 -34 -60 -43z" />
    <glyph glyph-name="semicolon" unicode=";" horiz-adv-x="536" 
d="M397 254q2 -4 4 -12.5t2 -9.5q3 -16 3 -33q-1 -55 -28 -108q-13 -25 -35 -58q-79 -115 -174 -200q-17 -15 -35 -25q-12 -6 -18 -6q-18 0 -12 17q20 53 30 70q22 37 60 132q0 1 2 4.5t2 5.5q6 21 1 31.5t-25 18.5q-3 2 -41 15q-15 6 -9 19q4 9 14 21q81 94 194 145
q47 21 65 -27zM434 735v-18q-5 -87 -53 -145q-28 -33 -60 -42q-22 -6 -37.5 3t-17.5 30q-15 126 19 197q14 28 30 44q19 19 42.5 19t43.5 -17q28 -24 33 -71z" />
    <glyph glyph-name="less" unicode="&#x3c;" horiz-adv-x="854" 
d="M742 555q17 -10 0 -23q-11 -9 -30 -7q-67 9 -94 13q-72 11 -136 14q-91 3 -180 33q-29 10 -130 43q-18 6 -39 16q-43 22 -25 69q11 27 36 52q43 43 103 73q54 28 152 66q108 43 233 91q31 13 52 14q26 2 35 -12q8 -14 -8 -36q-13 -18 -47 -44q-61 -45 -156 -94
q-14 -7 -44 -23t-44 -23t-17 -11q1 -2 17 -10q12 -6 36.5 -18.5t37.5 -18.5q52 -24 92 -63q34 -34 89 -63q23 -12 67 -38z" />
    <glyph glyph-name="equal" unicode="=" horiz-adv-x="784" 
d="M655 617q34 -16 9 -45q-14 -15 -32 -21q-24 -7 -88.5 -30.5t-101.5 -33.5q-34 -8 -82 -7q-35 2 -194 19q-70 8 -105 15q-28 6 -37 11q-23 11 -19 33q10 56 59 71q57 18 145 34q120 21 242 27q67 3 120 -32q30 -21 70 -35q10 -4 14 -6zM69 820q-27 10 -22 36q9 48 48 78
q10 7 33 11q201 27 365 32q76 3 131 -51l39 -30q21 -16 18.5 -36.5t-26.5 -31.5q-8 -3 -26 -7q-43 -8 -78 -20q-71 -25 -137 -25l-48 4t-56 5q-130 12 -195 23q-30 6 -46 12z" />
    <glyph glyph-name="greater" unicode="&#x3e;" horiz-adv-x="854" 
d="M723 885q39 -23 24 -65q-10 -28 -38 -56q-41 -41 -103 -72q-68 -34 -123 -55q-43 -17 -131.5 -51.5t-131.5 -51.5q-26 -10 -48 -13q-27 -4 -37 11q-9 14 8 38q14 18 44 41q61 45 178 106l87 45q-2 3 -17 12q-32 16 -65 31q-61 28 -112 77q-25 25 -60 44q-74 43 -85 48
q-19 10 -1 24q10 8 30 6q94 -11 98 -12q80 -12 122 -13q102 -3 193 -35q10 -4 128 -42q25 -9 40 -17z" />
    <glyph glyph-name="question" unicode="?" horiz-adv-x="731" 
d="M760 1303q9 -62 -16 -145q-28 -97 -97 -210q-54 -90 -188 -258q-88 -111 -111 -145q-12 -16 -16 -35q-10 -44 -16 -65q-6 -22 2 -50q13 -40 30 -62q11 -15 5 -33q-13 -40 -48 -49q-37 -10 -70 -4q-35 5 -43 5q-47 0 -62 45q-6 17 -6 46q1 55 34 135q39 98 122 206
q34 43 143 173q56 66 95 125q16 24 26 48q12 29 -16 45q-12 7 -34 9q-45 3 -89 -16q-165 -72 -269 -199q-4 -5 -10 -14l-8 -12q-11 -16 -3 -28q5 -9 1 -23q-6 -28 -27 -48q-8 -8 -21 -11q-29 -8 -38 22q-5 18 -2 41q7 49 29 99q53 122 149 233q114 129 227 198q78 47 143 66
q36 11 71 11q47 -1 76.5 -27.5t36.5 -72.5zM287 189q23 3 39 -9t20 -35q5 -25 -3 -48q-35 -119 -167 -157q-5 -1 -17 -1q-41 0 -48 38q0 3 -0.5 10t-1.5 10l3 21q19 92 88 162q12 12 23 17q21 10 35 -7q7 -8 15 -5q4 2 14 4z" />
    <glyph glyph-name="at" unicode="@" horiz-adv-x="1257" 
d="M616 521q-7 31 -2 76q1 7 5 33q-4 -1 -21 -12q-89 -60 -159 -85q-49 -18 -93 -18q-15 0 -22 1q-58 10 -61 71q-1 42 23 96q25 56 70 109q50 58 115 114q123 106 251 200q37 28 67 42q31 14 48.5 2.5t18.5 -45.5q1 -32 -13 -75q-7 -23 -16 -48q3 -1 8 -2.5t9 -3.5t6 -6
q7 -13 5 -30q-3 -32 -21 -69q-38 -77 -109 -145q-29 -27 -34 -82q-3 -33 32 -38q21 -3 47 6q46 14 92 47q123 85 191 220q38 77 26 165q-13 94 -99 140q-59 32 -137 35q-111 6 -226 -37q-222 -82 -355 -252q-97 -123 -121 -276q-16 -102 12 -188q54 -166 230 -221
q116 -35 248 -10q174 34 340 137q122 76 203 195q0 1 1.5 3t2.5 3l4 5q3 4 4 3.5t6 -0.5q6 -4 2 -17q-4 -14 -7 -20q-21 -50 -56 -101q-95 -132 -213 -243q-152 -142 -373 -170q-128 -16 -235 22q-207 72 -270 289q-38 135 -11 290q31 177 134 334q190 288 496 413
q139 56 270 53q65 -2 122 -20q165 -55 179 -231q8 -96 -29 -212q-73 -231 -227 -383q-73 -73 -152 -110q-66 -30 -116 -28q-73 3 -90 74zM474 732q88 32 203 116q33 24 43 60q2 8 9.5 29t9.5 33q-28 -10 -154 -111t-159 -139q14 1 48 12z" />
    <glyph glyph-name="A" unicode="A" horiz-adv-x="837" 
d="M799 733q7 -30 -20 -40q-25 -10 -29.5 -16t-3.5 -33q2 -69 25 -428q5 -84 -2 -155q-5 -52 -36 -94q-42 -56 -120 -37q-6 2 -9 5q-2 2 -8.5 9.5t-8.5 10.5t-7.5 9.5t-7.5 11t-5 11t-5 13.5q-23 89 -18 181l12 258q1 28 2.5 82t2.5 82q0 12 -2 13.5t-14 -1.5
q-161 -51 -209 -68q-17 -6 -25 -20q-74 -121 -131 -189q-34 -40 -54 -57q-20 -16 -35 -22q-28 -10 -37 18q-6 20 -1 49q4 29 20 57q1 2 38 73q7 12 7 21q-63 -10 -74 -11q-8 -1 -25.5 -2t-18.5 -1q-23 -1 -32 20q-7 17 -8 22q-12 61 18 125q15 31 48 38q114 27 182 31
q20 1 28 19q229 495 273 597q32 74 64 130q30 53 65 88q22 22 47 33q48 20 71 -26q12 -23 12 -60q0 -11 -5 -96q-24 -364 -22 -507q0 -40 2 -118q0 -14 2 -16t16 -1q4 0 11.5 1t11.5 1q12 1 15 -11zM554 721q9 1 9 15q0 120 -3 240q0 10 -5 13q-18 -35 -65 -130.5
t-75 -146.5q1 0 2 -2t1 -3q22 2 68 7t68 7z" />
    <glyph glyph-name="B" unicode="B" horiz-adv-x="1206" 
d="M1145 473q45 -42 34 -104q-5 -21 -7 -28q-8 -28 -28 -58q-35 -54 -97 -72q-29 -9 -126 -27q-38 -7 -135 -25.5t-150 -27.5q-114 -20 -239 -17q-82 2 -125 2q-15 0 -18 -14q-5 -28 -23 -45q-11 -11 -20.5 -8.5t-14.5 17.5q-6 17 -4 37q1 13 -13 13q-58 0 -77 3
q-1 0 -5 0.5t-6 0.5t-5 1t-4.5 3.5t-2.5 6.5q-2 8 2.5 18.5t12.5 15.5q7 4 14 5q14 4 41.5 12t41.5 12q15 5 19 19q54 233 196 637q7 16 5 24q-3 0 -20 -8q-146 -77 -261 -163q-23 -17 -71 -51q-5 -4 -27 -16q-41 -22 -52 25q-6 27 2 61q15 66 62 114q41 43 99 90
q171 141 395 263q178 97 307 139q102 33 177 42q37 4 60 -1q70 -12 76 -83q4 -40 -11 -88q-28 -92 -108 -184q-58 -66 -161 -153q-76 -64 -276 -219q-4 -3 -12.5 -9.5t-10.5 -8.5q5 -1 9.5 -1t9.5 0.5t7 0.5q231 11 418 -73q76 -35 122 -78zM482 721q-6 -14 -7 -24
q276 239 391 357q-7 3 -14 1q-27 -6 -53 -13.5t-58.5 -19.5t-48.5 -18t-58 -23t-50 -20q-9 -4 -12 -15q-13 -40 -90 -225zM720 331q159 22 221 31q-2 6 -13 11q-37 18 -71 29q-173 60 -392 47q-52 -2 -77 -2q-15 0 -17 -1t-8 -16q-46 -114 -69 -182q-7 -19 -7 -27
q43 10 117.5 33.5t98.5 30.5q112 32 217 46z" />
    <glyph glyph-name="C" unicode="C" horiz-adv-x="937" 
d="M953 675q1 -10 -4 -22q-6 -15 -22 -33q-117 -134 -284 -275q-110 -92 -153 -124q-77 -57 -150 -87q-79 -33 -158 -21q-119 18 -176 130q-46 90 -41 197q3 133 65 276q124 285 374 498q53 45 113 73q40 19 74 19q53 0 62 -53q5 -31 -3 -68q-17 -78 -66 -151
q-15 -23 -35 -35q-15 -9 -24 -3t-7 23q0 3 2 9t2 9q0 2 2 10t2 12q0 17 -10 24t-26 2q-9 -3 -20 -10q-21 -13 -36 -28q-164 -158 -243 -352q-35 -82 -25 -158q6 -52 41.5 -85.5t87.5 -37.5q43 -2 113 13q166 34 266 91q138 77 243 154q12 8 19 12q15 8 17 -9z" />
    <glyph glyph-name="D" unicode="D" horiz-adv-x="1382" 
d="M1352 1332q108 -51 90 -168q-13 -86 -66 -185q-74 -139 -220 -292q-67 -71 -210 -178q-167 -125 -384 -228q-160 -76 -360 -136q-36 -11 -104.5 -28.5t-97.5 -25.5q-38 -11 -50 -14q-38 -10 -38 30q0 23 8 47q21 63 64 112q20 24 50 32q41 11 105 37q15 7 17 18
q17 104 99 351q60 182 107 361q2 9 27 94q2 9 1 12q-3 2 -22 2q-22 1 -66.5 1t-66.5 1q-3 0 -7 0.5t-7 0.5q-9 2 -6 11q9 28 34 39q52 21 127 42q4 1 26.5 6.5t33.5 10.5q8 4 14 12t11.5 19.5t9.5 16.5q18 23 33 37q10 10 23 16q31 15 45 -17q4 -11 6 -27q1 -14 4 -16t16 2
q70 19 113 28q73 16 220 22q183 6 290 -10q61 -8 104 -25q9 -3 27 -11zM1132 948q10 10 6 22q-11 36 -41 66q-41 43 -109 69q-79 30 -197 39q-24 2 -85.5 3.5t-94.5 4.5q-30 2 -43 4q-12 2 -15 -10q-2 -11 -11 -44q-40 -142 -200 -649q-5 -21 -5 -24q2 0 15 5
q128 66 292 165q227 138 378 254q57 45 110 95z" />
    <glyph glyph-name="E" unicode="E" horiz-adv-x="841" 
d="M740 402q33 -23 45 -53q6 -15 -0.5 -35.5t-19.5 -28.5q-6 -4 -16 -2q-125 23 -254 -17q-17 -5 -48.5 -15t-51.5 -16t-47.5 -13.5t-51.5 -11.5q-33 -6 -131 -27t-152 -28q-26 -3 -47 -2q-27 3 -31 28q-2 13 -1 20q4 66 48 117q10 10 12 11q16 5 28 33l33 75q-4 2 -14 0
q-20 -8 -37 -14q-22 -8 -32 -1t-7 29q12 100 89 135q133 62 221 100q109 46 235 63q19 3 53.5 8.5t63 9.5t53.5 6q39 4 62 -3q10 -3 12 -7t-2 -14q-6 -16 -21 -20q-161 -43 -342 -141q-84 -46 -163 -77q-15 -5 -21 -21q-9 -23 -31 -71q4 -1 7.5 0t7.5 3l6 3q110 44 199 65
q99 23 193 -16q16 -6 48 -19.5t48 -20.5q34 -15 57 -32zM898 1234q2 -13 -2 -35q-18 -85 -76 -132q-94 -76 -123 -101q-10 -8 -11 -10q-2 -6 -6 -10.5t-7.5 -6.5t-10.5 -4.5t-10 -3.5q-14 -7 -17 9q-2 18 2 29q0 2 1.5 7.5t2.5 8.5q-4 0 -8 -1.5t-8 -4t-6 -3.5
q-185 -98 -292 -148q-23 -11 -44 -17q-25 -6 -47 -2q-51 8 -54 59q-2 30 16 70q21 46 54 83q45 53 102 90q27 19 52 27q249 88 408 124q27 7 47 6q31 -1 37 -34z" />
    <glyph glyph-name="F" unicode="F" horiz-adv-x="1323" 
d="M1363 1427q54 -7 51 -63q-1 -32 -17 -65q-68 -145 -202 -219q-53 -30 -97 -20q-5 1 -17 1q-312 -13 -360 -17q-88 -8 -132 -11q-15 -2 -17 -13q-20 -102 -43 -241q0 -1 2 -7q10 2 29 6t29 6q94 12 157 -17q8 -3 22.5 -8t18.5 -6q18 -7 24 -12q13 -11 10 -26
q-9 -40 -39 -46q-71 -15 -170 -64q-56 -26 -104 -41q-21 -7 -25 -28q-8 -39 -23.5 -117t-22.5 -117q-40 -206 -61 -309q-8 -43 -29 -77q-23 -38 -53 -39.5t-56 34.5q-28 37 -41 94q-28 116 -2 236l51 246q1 3 1.5 8.5t0.5 8.5q-6 1 -34 -4q-138 -28 -208 -38q-18 -3 -33 -2
q-24 2 -20 25q2 14 13 32q16 26 53 49q46 27 121 60q26 12 139 57q15 6 18 20q35 148 75 263q2 7 1 10q-10 6 -35 10q-105 15 -186 10q-18 -2 -27 -1q-29 1 -32 33q-2 26 9 47q58 123 174 161q58 18 183 45q23 5 29 24q12 38 37 81q16 27 33 39q34 24 51 -13q8 -18 10 -57
v-38q9 0 65 11q311 60 559 96q70 10 120 3z" />
    <glyph glyph-name="G" unicode="G" horiz-adv-x="1167" 
d="M1174 767q10 -55 -12 -141q-41 -155 -177 -286q-218 -210 -521 -278q-138 -31 -258 -17q-54 6 -101 22q-140 50 -160 202q-10 73 15 175q36 151 139 310q101 156 265 324q224 230 490 408q52 34 89 52q29 15 51 17q50 6 68 -41q13 -35 9 -92q-8 -91 -49 -207
q-52 -149 -126 -288q-2 -5 -21 -34q-6 -10 -18 -20q-29 -22 -37 13q-5 27 2 64q4 26 11 54.5t16.5 63t14.5 53.5q6 23 16 71q3 13 0 17q-12 -1 -34 -13q-52 -28 -109 -68q-260 -182 -453 -391q-91 -100 -146 -193q-4 -6 -19 -37q-16 -32 8 -62q19 -25 57 -40q46 -17 114 -19
q73 -1 170 16q220 41 401 142q50 29 87 56q9 7 9 11q-24 6 -50 6q-75 0 -189 -22q-119 -24 -151 -25q-34 -2 -50 -1q-35 2 -178 -8q-36 -2 -54 1q-9 1 -11 4t-1 12q2 21 20 31q23 11 91 40q90 37 160 73q94 50 229 77q151 32 231 40q43 5 81 2q37 -3 55.5 -20.5t25.5 -53.5z
" />
    <glyph glyph-name="H" unicode="H" horiz-adv-x="1046" 
d="M1132 1462q2 -86 -55 -141q-15 -15 -22 -32q-21 -48 -50 -138q-26 -82 -55 -191q-3 -11 -1.5 -13.5t13.5 -4.5q36 -7 59 -21q49 -30 19 -82q-11 -19 -34 -38q-39 -32 -89 -52q-19 -7 -23 -28q-34 -174 -95 -418q-20 -78 -34 -116q-12 -35 -25 -56t-26 -30q-30 -22 -61 1
q-17 14 -32 41q-24 47 -34 112q-20 120 18 272q5 21 16.5 60.5t13.5 46.5q11 37 10 52q0 13 -4 14q-2 1 -8 1q-26 1 -79.5 3.5t-80.5 4.5q-18 1 -53 1q-13 0 -15.5 -2t-7.5 -15q-45 -132 -91 -286q-32 -106 -50 -158q-3 -8 -3 -25q1 -35 -7 -80q-13 -71 -83 -140
q-40 -39 -73 8q-16 23 -25 61q-16 65 -6 178q20 213 103 442q7 15 5 22q-3 2 -22 2q-60 1 -120 9q-22 4 -34 9q-23 11 -9 32q10 16 34 29q25 14 66 25q63 18 119 29q21 4 29 24q29 79 97 233q26 59 61 106q39 50 100 153q24 40 38 59q13 17 22 22q15 9 24 -7q7 -13 7 -30
q1 -35 -11 -84q-8 -33 -24.5 -100t-24.5 -101q-5 -21 -16.5 -78t-19.5 -88q-3 -10 -8.5 -30t-8.5 -30l38.5 5.5l31.5 4.5q122 15 194 23q16 1 24 17q120 249 145 301q46 93 86 153q28 40 53 64q27 26 48 32q35 11 44 -25q2 -8 2 -12z" />
    <glyph glyph-name="I" unicode="I" horiz-adv-x="858" 
d="M925 1215q6 -21 -11.5 -49t-39.5 -35q-14 -5 -19 6t-21 15q-27 6 -51 -2q-14 -5 -41.5 -14t-41.5 -13q-11 -3 -18 -18q-10 -23 -30.5 -67.5t-30.5 -66.5q-32 -75 -98.5 -209t-90.5 -185q-3 -7 -9 -20t-9 -20q5 -2 6.5 -2.5t5.5 2.5t5 3q64 25 87 29q81 12 119 -62
q6 -11 16 -33q26 -60 -5 -122q-8 -14 -14 -20q-8 -8 -12.5 -7.5t-11.5 9.5q-24 27 -62 15q-20 -6 -60 -24q-50 -22 -104 -34q-95 -21 -193 -74q-109 -59 -210 -140q-8 -7 -14 -17q-10 -17 -25 -22q-23 -9 -29 16q-6 22 1 49q9 39 42 85q29 41 118 119q101 88 229 164
q20 12 23 35q10 92 13 111q16 91 38 153q65 183 115 289q2 6 5 13q-13 -2 -49 -14q-53 -18 -212 -82q-24 -10 -37 -14q-20 -6 -29 5q-7 9 -1 28q7 21 28 43t55 46q129 93 311 164q119 46 189 60q49 9 93 -2q61 -15 80 -91z" />
    <glyph glyph-name="J" unicode="J" horiz-adv-x="968" 
d="M1029 1308q4 -80 -19 -189q-47 -236 -172 -498q-126 -265 -259 -445q-124 -168 -276 -268q-82 -54 -158 -68q-67 -12 -120.5 14t-85.5 86q-24 46 -33 93q-13 73 40 134q13 16 25.5 18t31.5 -7q5 -2 15 -8q65 -39 145 -10q48 17 101 56q95 69 182 181q98 126 152 212
q101 160 148 338q9 36 9 62q0 17 -4 23q-1 0 -16 -6q-179 -87 -410 -149q-24 -6 -47 -3q-50 8 -70 50q-34 73 12 129q68 83 137 128q42 28 114 42q235 49 301 66q26 6 40 27q36 52 86 82q26 15 46 16q49 5 71 -40q12 -26 14 -66z" />
    <glyph glyph-name="K" unicode="K" horiz-adv-x="1067" 
d="M1083 1365q37 7 52.5 -9.5t6.5 -53.5q-7 -28 -22 -53q-60 -100 -158 -143q-105 -46 -264 -103q-124 -44 -161 -59q-64 -27 -139 -86q-8 -7 -5 -20q6 -19 24 -45q27 -37 66 -74l81 -78q105 -96 174 -215q139 -241 158 -277q32 -61 62 -138q11 -31 -11 -58
q-8 -10 -13.5 -10t-14.5 9q-61 65 -95 100q-118 123 -219 201q-141 109 -289 313q-2 2 -5.5 7t-5.5 8l-1 1q-2 1 -3 2q-4 -5 -6 -20q-8 -56 -23.5 -168t-23.5 -167q-7 -54 -17 -93q-8 -29 -17 -45q-10 -18 -18 -25q-28 -27 -57 -1q-17 14 -29 40q-19 40 -28 108
q-11 76 14 208q33 176 100 410q5 16 4 21q-9 1 -25 -1.5t-20 -2.5q-62 -6 -93 -3q-20 2 -38 9q-26 12 -26 41q0 19 7 34q26 59 88 94q10 6 17 6q14 0 15 -8q3 -12 19 -8q12 3 104 35q12 4 17 21q36 126 67 207q25 66 43 94q17 27 33 37q31 21 40 -15q5 -19 -3 -58
q-7 -36 -23 -107.5t-23 -107.5q-2 -6 0 -10q7 0 23 7q233 96 544 212q81 30 117 37z" />
    <glyph glyph-name="L" unicode="L" horiz-adv-x="976" 
d="M922 416q35 -16 37 -57q1 -28 -14 -60q-18 -37 -50 -71q-83 -86 -186 -110q-30 -7 -79 -7q-131 2 -196 1q-99 -1 -207 -30q-19 -5 -29 -14q-25 -22 -52 -12q-6 2 -22 -2q-50 -15 -146 -53q-3 -1 -38 -12q-12 -3 -22 -1q-19 5 -20 23q-2 18 10 41q14 25 48 55
q45 41 111 80q18 11 17 33q-2 50 19 160q54 288 158 548q83 207 226 407q37 51 70 79q34 28 57 34q41 11 49 -32q3 -17 -3 -49q-9 -47 -16 -109q-4 -46 -40 -82q-16 -16 -28 -16t-19 -16q-49 -116 -89 -232q-9 -26 -43.5 -121t-51.5 -147q-57 -180 -86 -324q-2 -17 -1 -20
q3 0 19 5q197 75 369 111q85 17 194 14q27 -1 54 -14z" />
    <glyph glyph-name="M" unicode="M" horiz-adv-x="1085" 
d="M1116 1312q8 -62 -1 -159q-23 -232 -82 -572q-13 -76 -34 -139q-24 -72 -44 -209q-2 -13 -6 -39.5t-6 -40.5q-1 -11 -7 -21q-13 -25 -28 -1q-10 18 -16 40q-12 41 -19 106q-3 25 -7 53t-9 62t-8 53q-16 113 0 248q20 164 61 321q3 15 2 17q-5 -2 -15 -17
q-59 -81 -165 -251q-123 -200 -184 -283q-37 -50 -73 -85q-30 -28 -46 -35q-42 -20 -69 18q-16 24 -24 53q-19 62 -28 163q-2 22 -6 64t-6 64q0 9 -4 12q-1 -1 -9 -20q-74 -198 -106 -299q-13 -39 -41 -109.5t-38 -97.5q-26 -72 -29 -84q-10 -36 -35 -73q-18 -27 -40 -25
q-21 2 -33 34q-10 24 -14 66q-6 78 8 188q26 185 62 300q24 76 78 226q57 159 154 382q16 38 37 69q17 26 37 39q47 33 80 -15q13 -18 20 -48q18 -75 3 -164q-9 -59 -33 -115q-5 -12 -6 -24q-13 -193 -8 -348q2 -61 9 -91q5 -23 14 -26q3 -3 8 -0.5l7 3.5t6.5 5.5l5.5 5.5
q21 21 43 53q25 36 125 205q176 298 325 506q45 62 77 95q20 20 36 28q35 18 58 -14q17 -26 23 -74z" />
    <glyph glyph-name="N" unicode="N" horiz-adv-x="864" 
d="M903 1470q3 -45 -1 -163q-6 -104 -6 -106q-5 -290 -84 -538q-6 -19 -39.5 -132.5t-55.5 -172.5q-45 -121 -82 -197q-33 -69 -78 -114q-22 -22 -45 -34q-52 -27 -102 3q-36 22 -63 62q-45 65 -70 159q-32 119 -41 282q0 1 -3 110q0 11 -4 14q-1 -2 -10 -22
q-107 -259 -133 -322q-47 -112 -79 -174q-11 -23 -22 -40q-4 -8 -13 -18q-23 -26 -39 6q-7 15 -8 27q-3 36 5 66q9 35 27 104.5t28 103.5q41 156 157 513q108 334 134 407q20 57 39 90q23 38 43 55q23 20 47 16.5t41 -28.5q15 -22 22 -52q16 -68 6 -154q-1 -11 -33 -259
q-32 -264 -27 -449q2 -47 7 -89q9 6 18 27q75 159 89 198q12 32 57 145.5t66 177.5q51 157 133 292q27 43 56 157q16 63 19 98q2 14 4 20q6 15 15 15q7 0 12 -15q10 -31 13 -69z" />
    <glyph glyph-name="O" unicode="O" horiz-adv-x="757" 
d="M769 1073q22 -155 -25 -341q-56 -230 -187 -405q-59 -79 -133 -133q-68 -49 -130 -62q-120 -26 -207 60q-65 65 -93 175q-40 161 10 344q74 269 268 483q13 15 17 30q10 36 43 49q72 27 177 22q13 -1 48.5 -1.5t55.5 -3.5q79 -10 117 -82q26 -50 39 -135zM575 684
q25 100 -17 191q-12 27 -74 155q-24 50 -90 98q-8 6 -17 2q-15 -6 -33 -27q-107 -134 -161 -290q-30 -83 -27 -157q-4 -67 24 -135q15 -38 43 -66q50 -48 117 -38q59 8 112 56q92 82 123 211z" />
    <glyph glyph-name="P" unicode="P" horiz-adv-x="864" 
d="M935 1319q4 -60 -14 -129q-22 -83 -64 -164q-129 -250 -324 -435q-93 -89 -199 -148q-5 -3 -19 -12t-22 -13q-18 -9 -21 -33q-17 -110 -62 -342q-9 -47 -33 -93q-15 -28 -35 -44q-34 -27 -67 2q-15 12 -28 41q-23 49 -28 122q-5 64 18 202q36 214 145 572q28 90 41 135
q4 13 2 20q-45 -21 -133 -61q-34 -15 -48 -19q-18 -5 -27 1.5t-8 25.5q1 28 20 60q21 38 69 88q91 91 206 167q17 11 28 26q20 28 43 22q3 -1 19 7q115 63 202 95q85 31 146 38q48 5 87 -3q47 -10 74.5 -43t31.5 -85zM643 1040q16 47 -32 59q-22 6 -66 2q-55 -5 -151 -34
q-19 -5 -22 -25q-10 -61 -28.5 -183.5t-28.5 -183.5q-3 -16 -7 -46t-6 -44q9 5 23 24q18 22 99.5 124t125.5 156q29 35 56 79q28 46 37 72z" />
    <glyph glyph-name="Q" unicode="Q" horiz-adv-x="968" 
d="M697 370q-81 -123 -181 -221q-10 -9 -10 -13q2 -1 26 -4q146 -10 251 -41q48 -15 81 -41q41 -33 48 -80q10 -63 3 -96q-8 -40 -42 -72q-14 -14 -34 -14q-8 0 -11 2.5t-2 10.5q3 66 -68 102q-24 12 -64 23q-28 7 -85.5 26.5t-88.5 27.5q-65 17 -180 30q-12 1 -26 -6
q-78 -37 -141 -34q-61 1 -111 42q-3 2 -9 8t-11 9.5t-11 5.5q-8 2 -8 9q0 6 -2 11.5t-6.5 12t-6.5 9.5q-35 61 -47 151q-25 184 48 387q93 256 307 451q90 81 164 123q63 35 108 42q7 1 19 11q43 34 86 62q49 32 93 36q57 5 90 -37q45 -56 55 -141q15 -114 -10 -252
q-50 -279 -224 -540zM388 278q204 127 317 335q64 119 52 237q-10 89 -60 149q-29 34 -83 85q-14 13 -36 11q-41 -3 -73 -25q-14 -10 -18 -8q-10 4 -22 -6q-209 -159 -316 -393q-57 -125 -58 -242q-2 -66 22 -119q28 -60 91 -72q24 -5 57 0q65 10 127 48z" />
    <glyph glyph-name="R" unicode="R" horiz-adv-x="1177" 
d="M1181 1480q35 -3 52.5 -24t14.5 -55q-5 -41 -22 -77q-29 -62 -83 -131q-123 -160 -310 -329q-46 -42 -99 -86.5t-121 -100.5t-101 -84q-10 -9 -64 -57q-8 -8 -7.5 -11.5t7.5 -12.5q10 -11 34 -27q19 -12 95 -50q68 -36 103 -53q87 -44 153 -109q70 -69 201 -179
q52 -44 77 -70q9 -9 9 -14.5t-8 -15.5q-16 -20 -40 -11q-55 21 -67 27q-175 79 -336 136q-164 58 -339 180q-4 2 -7 4q-1 -3 -7 -25q-15 -72 -25 -98q-13 -38 -35 -64q-22 -27 -44 -23.5t-35 36.5q-17 45 -12 100q4 57 29 152q48 188 118 434q5 18 4 22q-3 1 -15 -5
q-233 -131 -267 -151q-15 -9 -26 -13q-21 -7 -30.5 1.5t-5.5 30.5q4 19 18 42q23 37 61 73q85 85 217 184q68 51 111 82q16 11 21 27q14 46 32 90q10 24 17 35q8 12 19 22q13 11 24 7.5t14 -21.5q2 -17 -1 -41q-1 -5 -2.5 -16t-2.5 -17q6 0 21 10q132 87 303 171
q141 69 274 98q44 10 83 7zM877 1112q5 12 5 14q-4 2 -12 -1q-175 -65 -410 -182q-15 -8 -18 -25l-24 -111q-29 -131 -48 -225q8 4 9 6q31 31 169 152q160 140 249 252q53 67 80 120z" />
    <glyph glyph-name="S" unicode="S" horiz-adv-x="1021" 
d="M1104 1340q10 -16 -6 -44q-9 -16 -27 -32q-76 -67 -159 -70q-35 -1 -99 -21q-96 -31 -199 -87q-31 -17 -63 -41q-36 -28 -25 -76q5 -25 30 -61q20 -28 68 -78q79 -84 104 -113q43 -52 63 -92q49 -98 7 -194q-47 -107 -149 -194q-182 -154 -408 -203q-161 -36 -230 -44
q-10 -1 -22 -2t-26 -2t-22 -2q-44 0 -66 3q-25 3 -14 25q16 32 58 49q12 5 31 10q178 57 326 132q72 37 135 92q42 37 37 103q-3 30 -18 66q-21 50 -65 113q-10 14 -28 38.5t-32.5 45t-26.5 39.5q-24 39 -35 67q-35 88 9 176q27 52 76 103q86 88 230 163q198 102 405 137
q55 10 101 10q30 0 40 -16z" />
    <glyph glyph-name="T" unicode="T" horiz-adv-x="1122" 
d="M1211 1371q6 -78 -44 -143q-59 -77 -134 -123q-50 -30 -106 -39q-58 -9 -162.5 -31t-135.5 -28q-14 -2 -17 -20q-8 -47 -24.5 -141t-24.5 -141q-15 -82 -44 -263.5t-47 -277.5q-14 -70 -29 -103q-16 -37 -35 -54q-36 -34 -61 8q-14 23 -20 69q-9 68 10 157q17 79 51 223
t44 188q32 139 64 304q0 2 1.5 10t2.5 14q-13 -1 -27 -4t-30 -6.5t-25 -5.5q-197 -39 -275 -50q-56 -7 -93 -6q-34 2 -46.5 17t-6.5 48q6 40 29 68q12 17 33 20q17 3 66 23q59 24 178.5 73.5t179.5 74.5q27 11 83 33q20 8 30 21q11 12 25 18q16 7 22 3q11 -6 27 1
q187 76 403 140q22 7 49 7q37 -1 61.5 -24t27.5 -60z" />
    <glyph glyph-name="U" unicode="U" horiz-adv-x="765" 
d="M789 1121q10 -73 -9 -196q-39 -266 -128 -497q-58 -151 -132 -260q-46 -68 -93 -110q-31 -28 -61 -42q-74 -36 -146 3q-51 27 -95 87q-62 84 -90 205q-35 153 -33 311q-3 289 112 606q18 51 42 87q18 26 35 38q37 25 59 -14q9 -16 13 -52q3 -32 -6 -111l-27 -264
q-1 -10 -9 -75t-10 -100q-6 -98 2 -155q7 -49 23 -86q19 -45 65 -27q20 7 43 29q39 38 69 88q97 162 156 342q24 72 38 138q12 58 38 113q8 16 20 87q5 30 9 86q2 31 13 50q16 26 36 3q13 -16 24 -50q13 -40 19 -85q20 -128 23 -149z" />
    <glyph glyph-name="V" unicode="V" horiz-adv-x="774" 
d="M841 1498q15 -91 6 -184q-15 -159 -100 -325q-241 -475 -346 -659q-80 -139 -188 -285q-28 -38 -54 -63q-16 -16 -30 -25q-44 -26 -84 9q-19 18 -34 46q-32 64 -42 151q-14 136 10 290q68 429 185 854q15 55 36 112q13 33 27 52q6 8 10 12q33 32 48 -12q7 -22 5 -58
q-2 -38 -15 -148q-5 -37 -25.5 -185t-29.5 -228q-17 -152 -26 -241q-2 -17 0 -26q4 1 9 8q27 43 124.5 192t147.5 232q98 160 151 267q17 35 57 101q30 50 68 80q10 7 9 19q-1 17 7 37q7 15 23 23q22 11 37 -10q11 -18 14 -36z" />
    <glyph glyph-name="W" unicode="W" horiz-adv-x="1007" 
d="M1089 1582q16 -81 -10 -183q-35 -141 -109 -421q-37 -142 -150 -606q-46 -188 -103 -338q-27 -69 -56 -114q-20 -28 -33 -39q-40 -33 -86 -4q-27 18 -51 54q-40 62 -61 144q-25 98 -33 217q-13 167 -2 400q2 30 2 46q0 4 -1 8q-4 -4 -15 -23q-31 -59 -94 -176.5
t-94 -176.5q-42 -81 -78 -134q-23 -34 -41 -50q-47 -42 -80 12q-21 35 -28 90q-10 73 6 176q14 96 75 342q55 223 74 331q3 14 7.5 41l6.5 39q3 14 11 31q14 29 32 28t28 -30q5 -12 9 -36q7 -50 -3 -149q-5 -44 -13.5 -96.5t-15 -87t-19.5 -98.5t-18 -89q-5 -24 -15 -74
q7 2 14 16q168 309 266 514q3 6 20 38q9 16 17 24q30 30 59 -1q11 -11 23 -39q17 -41 20 -99q3 -55 -1 -133q-12 -241 -6 -522q4 -128 12 -213q0 -11 5 -16q2 1 13 18q29 51 56 133q93 284 168 573q63 241 149 624q4 15 10 44.5t9 44.5q6 28 21 50q14 20 31 21t33 -17
q28 -31 39 -94z" />
    <glyph glyph-name="X" unicode="X" horiz-adv-x="831" 
d="M904 1370q6 -56 -14 -138q-32 -130 -123 -227q-125 -134 -273 -330q-11 -14 -2 -32q26 -49 109 -188q66 -108 61 -242q-2 -48 -21 -79q-23 -39 -64 -16q-14 8 -25 21q-19 20 -32 44q-32 60 -47 90q-45 89 -94 198q-9 20 -11 22q-4 -1 -12 -11q-85 -127 -194 -309l-51 -78
q-40 -62 -60 -94q-8 -14 -10 -16q-26 -38 -50 2q-18 30 -21 71q-7 69 23 175q55 193 166 386q26 46 80 136q11 16 2 36q-68 159 -116 299q-48 142 -66 250q-7 45 15 97q1 2 3 6.5t3 6.5q30 49 58 0q40 -72 84 -180q82 -200 122 -301q12 -27 13 -28q2 3 6.5 8.5t6.5 8.5
q149 219 345 434q24 27 53 50q18 14 29 19q49 23 81 -20q21 -28 26 -71z" />
    <glyph glyph-name="Y" unicode="Y" horiz-adv-x="960" 
d="M1020 1317q4 -100 -25 -228q-76 -342 -239 -609q-164 -273 -418 -452q-73 -52 -140 -81q-45 -20 -83 -24q-60 -6 -79 51q-15 45 -1 108q10 45 44 107q1 1 1 2t1 2q11 17 25 16q15 -1 23 -22q6 -14 8 -34l1 -7q0 -7 2 -11q8 3 27 17q110 81 224 210q173 195 303 439
q78 146 117 260q6 20 5 24q-4 -2 -21 -25q-26 -36 -79 -106.5t-80 -105.5q-118 -158 -202 -255q-75 -85 -141 -134q-50 -36 -93 -50q-102 -33 -156 57q-35 57 -44 148q-18 201 62 417q0 2 5 11q69 124 122 195q10 13 21 23q85 74 190 147q24 17 31 -11q3 -11 -6 -29
q-7 -12 -14.5 -26t-16.5 -31.5t-14 -26.5q-23 -41 -46 -93q-9 -20 -98 -210l-12 -27q-32 -96 -69 -189q-9 -21 -12 -44q-3 -21 15 -31q16 -10 42 -4q23 4 47 17q36 20 65 45q80 68 147 142q106 118 264 341q62 88 96 130q33 42 62 67q24 21 45 28q34 12 58 -15
q16 -19 24 -44q10 -34 12 -79z" />
    <glyph glyph-name="Z" unicode="Z" horiz-adv-x="1083" 
d="M1058 510q24 -1 21 -24q-5 -34 -36 -47q-74 -32 -111 -46l-285 -108q-34 -13 -102 -42t-103 -42q-155 -59 -368 -84q-44 -5 -75 2q-55 12 -60 70q-3 35 11 78q18 57 56 110q59 86 172 208q171 186 420 400q45 38 112 121q1 1 15 17.5t21 27.5q-24 2 -64 4
q-151 5 -335 -11q-12 -1 -22 -13q-73 -84 -136 -170q-25 -34 -48 -51q-21 -16 -40 -21q-44 -11 -49 32q-2 20 5 53q10 47 28 85q82 173 143 290q9 17 29 23q66 17 104 8q33 -8 45 -37q5 -15 22 -13q49 3 147 7q129 5 219 -7q56 -8 82 -19q83 -34 49 -117q-15 -36 -43 -68
q-46 -53 -110 -107q-69 -59 -145 -148q-163 -192 -341 -420q-8 -11 -8 -15q14 0 45 9q146 38 320 36q40 -1 203 14q134 12 200 14q2 0 6 0.5t6 0.5z" />
    <glyph glyph-name="bracketleft" unicode="[" horiz-adv-x="661" 
d="M400 1269q-22 -4 -25.5 -7.5t-3.5 -26.5q1 -85 -12 -190q-50 -397 -64 -600q-3 -34 -7 -101.5t-6 -101.5q0 -9 -2 -25l-3 -24q-1 -13 1 -16t14 -4q103 -16 215 -16q14 0 21 -1q17 -3 14 -21q-2 -13 -17 -30q-19 -19 -40 -30q-64 -35 -179 -65q-40 -10 -60 -14
q-18 -4 -25 -14q-2 -4 -10 -10q-29 -24 -45 8q-1 3 -5.5 10.5t-5.5 10t-4.5 10.5t-2.5 11t0 12q0 3 1 8.5t1 8.5q5 27 -17 41q-3 2 -19 10q-23 13 -5 32q5 6 23 17q24 14 35 22q11 7 12 20q2 21 5.5 65t5.5 65q11 132 28 368q13 182 15 304q2 104 -1 156q-1 23 -10 55
q-9 31 -32 40q-16 6 -16 24q0 12 2 17q21 64 83 98q13 7 30 6q40 -6 112.5 -10t98.5 -7q13 -1 39 -5q29 -5 17 -31q-18 -43 -60 -52q-32 -7 -96 -17z" />
    <glyph glyph-name="backslash" unicode="\" horiz-adv-x="622" 
d="M514 235q4 -26 6 -79q-2 -69 -16 -113q-10 -32 -26 -52q-35 -42 -78 -8q-21 17 -41 54q-16 29 -33 87q-59 194 -129 563q-46 244 -64 350q-19 107 -30 218q-5 47 13 89q8 19 20 31q19 19 35 -2q6 -9 20 -36q36 -73 60 -152q9 -29 79 -288q68 -249 114 -389
q54 -165 70 -273z" />
    <glyph glyph-name="bracketright" unicode="]" horiz-adv-x="661" 
d="M546 1325q25 -14 6 -33q-11 -11 -21 -16q-38 -21 -44 -31q-4 -6 -5.5 -14t-1.5 -21.5v-16.5q-37 -477 -43 -577q-9 -171 -9 -286q0 -62 9 -99q11 -42 38 -52q13 -5 13 -24q0 -15 -6 -28q-23 -53 -71 -82q-20 -12 -47 -9q-49 7 -112 10q-58 3 -115 9q-1 0 -4 0.5t-5 0.5
q-38 6 -18 40q22 39 63 46q17 3 51 8.5t51 8.5q13 2 15 4.5t1 16.5q-2 62 9 167q5 46 19.5 164t23.5 203t15 165q7 94 22 304q0 9 2 26.5t3 26.5q1 11 -1 13.5t-13 3.5q-133 18 -221 17h-8q-30 1 -19 30q7 18 29 34q31 23 74 41q75 31 187 54q20 3 29 17q5 7 16 13
q22 11 32 -5q24 -36 24 -62q-1 -3 -1.5 -8.5t-0.5 -8.5q-5 -25 16 -40q6 -4 18 -10z" />
    <glyph glyph-name="asciicircum" unicode="^" horiz-adv-x="716" 
d="M591 1223q44 -111 3 -243q-6 -17 -12 -25q-16 -24 -39 -26t-43 18q-20 19 -32 57q-4 12 -15 47t-16 54q-57 206 -79 331q-3 10 -5 11q-7 -10 -15 -32q-22 -52 -87 -231q-39 -109 -63 -155q-16 -30 -29 -43q-22 -22 -38 -16q-14 6 -18 35q-2 22 5 54q71 275 143 436
q35 77 75 134q21 29 39 45q19 17 28 21q31 15 46 -17q6 -14 10 -34q33 -157 116 -358q18 -42 26 -63z" />
    <glyph glyph-name="underscore" unicode="_" horiz-adv-x="1110" 
d="M992 -95q15 -20 15 -42q0 -18 -7 -32q-7 -12 -12 -14t-19 3q-35 10 -70 -5q-60 -24 -92 -32q-33 -9 -68 -9q-154 -1 -369 11q-128 8 -192 14q-41 5 -53 8q-26 7 -22 33q6 35 34 60q8 7 29 11q207 38 412 63q176 22 241 26q44 2 61 -2q48 -11 75 -45q13 -16 37 -48z" />
    <glyph glyph-name="grave" unicode="`" horiz-adv-x="493" 
d="M389 1272q5 -34 -10 -60q-13 -21 -33 -10q-21 11 -57 41q-95 76 -155 103q-20 10 -27 34q-5 22 -5 41q5 84 56 152q20 27 43 37q27 13 47 -9q15 -17 25 -35q21 -34 32 -61q52 -127 71 -183q10 -31 13 -50z" />
    <glyph glyph-name="a" unicode="a" horiz-adv-x="946" 
d="M789 1173q3 0 6 2t5.5 5.5t4.5 4.5q6 5 49 43t67 56q24 19 42 27q34 16 42 -22q6 -27 -4 -57q-3 -11 -13 -33q-70 -156 -111 -375q-9 -49 -21.5 -140t-18.5 -128q-17 -101 -46 -193q-12 -35 -21 -93q-4 -24 -10 -34q-12 -22 -25 0q-9 15 -13 50q-26 181 -2 330
q10 61 52 198q14 45 46 133q6 17 5 21q-6 -4 -16 -19q-17 -25 -52 -75.5t-52 -76.5q-5 -7 -15 -19q-54 -66 -75 -100q-53 -86 -181 -242q-77 -95 -151 -165q-65 -62 -113 -90q-34 -21 -66 -29q-78 -21 -116 51q-26 50 -28 128q-4 134 47 287q63 190 204 394q95 137 209 241
q66 61 122 92q43 25 83 33q93 19 135 -67q22 -44 27 -116q0 -6 2 -20zM626 1061q-74 3 -130 -40q-91 -69 -153 -151q-67 -89 -127 -224q-25 -54 -26 -112q0 -26 14 -35t37 6q3 2 8.5 6t8.5 6q22 16 59 55q59 63 140 171q10 13 73 99t98 130q17 20 39 64q7 13 4 18.5t-18 6.5
q0 1 -13 1z" />
    <glyph glyph-name="b" unicode="b" horiz-adv-x="1204" 
d="M581 624h25q232 11 419 -73q74 -34 121 -78q45 -42 34 -104q-5 -21 -7 -28q-7 -26 -28 -57q-35 -55 -97 -73q-29 -9 -126 -27q-38 -7 -135 -25.5t-150 -27.5q-114 -20 -239 -17q-82 2 -124 2q-16 0 -19 -14q-5 -29 -22 -45q-11 -11 -21 -8.5t-15 17.5t-3 37q1 7 -2.5 10
t-11.5 3q-57 0 -76 3q-22 2 -24 12q-2 8 3 18.5t13 15.5q8 4 13 5l84 24q14 4 18 19q54 233 196 637q7 16 5 24q-4 0 -7 -1t-6.5 -3.5t-5.5 -3.5q-149 -79 -262 -163q-23 -17 -71 -51q-8 -6 -26 -16q-20 -10 -34 -3.5t-19 28.5q-6 25 3 61q16 67 61 114q38 40 100 90
q173 142 394 263q178 97 307 139q102 33 177 42q37 4 60 -1q70 -12 76 -83q4 -40 -11 -88q-28 -92 -108 -184q-58 -66 -161 -153q-87 -73 -275 -219q-4 -3 -12.5 -9.5t-10.5 -8.5zM289 221q43 10 116.5 33.5t98.5 30.5q112 32 217 46q159 22 221 31q-2 6 -13 11
q-39 19 -70 29q-173 60 -393 47q-52 -2 -77 -2q-15 0 -17 -1t-8 -16q-38 -96 -68 -182q-7 -19 -7 -27zM476 697q283 245 392 357q-7 3 -15 1q-27 -6 -53.5 -13.5t-57.5 -19t-49 -18.5t-56.5 -22.5t-50.5 -20.5q-10 -4 -13 -15q-18 -53 -89 -225q-7 -17 -8 -24z" />
    <glyph glyph-name="c" unicode="c" horiz-adv-x="937" 
d="M-34 440q3 131 66 276q124 285 374 498q54 46 112 73q40 19 74 19q54 0 63 -53q5 -31 -3 -68q-17 -76 -67 -151q-15 -23 -35 -35q-15 -8 -23 -3q-9 6 -7 23l3 18q0 2 2 10t2 12q0 17 -9.5 24.5t-25.5 2.5q-8 -2 -21 -11q-21 -13 -36 -28q-164 -158 -243 -352
q-34 -81 -24 -158q6 -52 41.5 -85.5t87.5 -37.5q43 -2 113 13q164 34 265 91q138 77 243 154q12 8 19 12q15 8 17 -9q1 -10 -4 -22q-6 -17 -21 -33q-114 -131 -285 -275q-110 -92 -153 -124q-77 -57 -150 -87q-79 -33 -158 -21q-119 18 -176 130q-46 90 -41 197z" />
    <glyph glyph-name="d" unicode="d" horiz-adv-x="1382" 
d="M391 1171q-4 2 -22 2q-22 1 -66 1t-66 1q-2 0 -7 0.5t-8 0.5q-9 2 -6 11q9 28 34 39q50 20 128 42q3 1 25.5 6.5t33.5 10.5q8 4 14 12t11.5 19.5t9.5 16.5q18 23 33 37q10 10 24 16q31 15 45 -17q4 -11 6 -27q1 -14 4 -16t16 2q74 20 112 28q73 16 221 22q182 6 289 -10
q62 -9 105 -25q9 -3 27 -11q107 -50 89 -168q-13 -86 -66 -185q-74 -139 -220 -292q-70 -73 -209 -178q-165 -124 -385 -228q-160 -76 -360 -136q-36 -11 -104.5 -28.5t-97.5 -25.5q-38 -11 -50 -14q-38 -10 -38 30q0 23 8 47q21 63 64 112q20 24 50 32q44 12 106 37
q14 6 16 18q5 29 12.5 61t13.5 56t17.5 61.5t17.5 55.5t20.5 60.5t18.5 56.5q55 166 106 361q2 9 27 94q2 9 1 12zM338 429q3 0 16 5q128 66 292 165q227 138 378 254q51 40 109 95q10 10 6 22q-12 38 -40 66q-41 42 -110 69q-80 30 -196 39q-24 2 -85.5 3.5t-94.5 4.5
q-32 2 -44 4q-11 1 -14 -10q-2 -9 -6.5 -25t-5.5 -19q-50 -175 -199 -649z" />
    <glyph glyph-name="e" unicode="e" horiz-adv-x="1034" 
d="M408 571q-135 -41 -230 21q-25 -89 -11 -137q18 -68 87 -86q57 -15 138 -6q127 13 294 88q174 78 336 177q4 3 11.5 7.5t11.5 6.5q2 -4 -4 -13q-57 -81 -119 -142l-126 -123q-38 -38 -92 -74q-161 -106 -259 -160q-105 -58 -190 -74q-67 -13 -121 0q-115 30 -156 150
q-28 84 -18 199q14 166 105 342q146 281 389 454q109 78 212 111q63 20 114 19q52 -2 83 -30t36 -80q6 -59 -16 -135q-35 -115 -121 -232q-103 -143 -238 -228q-57 -36 -116 -55zM290 799q8 -5 20 -7q58 -12 124 14q106 42 191 147q16 18 33 46q7 10 4.5 14t-14.5 6
q-22 5 -43 0q-42 -7 -95 -34q-120 -62 -214 -174q-6 -6 -6 -12z" />
    <glyph glyph-name="f" unicode="f" horiz-adv-x="1323" 
d="M532 772q10 2 29.5 6.5t29.5 5.5q93 12 156 -17q8 -3 22.5 -8t18.5 -6q18 -7 24 -12q13 -11 10 -26q-9 -40 -39 -46q-71 -15 -170 -64q-56 -26 -104 -41q-21 -7 -25 -28l-45 -234q-20 -103 -62 -309q-8 -43 -29 -77q-23 -38 -53 -39.5t-56 34.5q-28 37 -41 94
q-28 116 -2 236l51 246q2 10 3 17q-7 1 -35 -4q-138 -28 -208 -38q-18 -3 -33 -2q-23 1 -19 25q2 14 13 32q17 27 52 49q46 27 121 60q13 6 140 57q15 6 18 20q35 148 75 263q2 7 1 10q-10 6 -35 10q-105 15 -186 10q-18 -2 -27 -1q-30 1 -33 33q-2 26 9 47q58 123 174 161
q58 18 183 45q23 5 29 24q12 38 37 81q15 26 34 39q33 24 50 -13q9 -20 11 -57v-38q8 0 64 11q311 60 559 96q70 10 120 3q55 -8 52 -63q-1 -33 -17 -66q-67 -144 -202 -218q-53 -30 -98 -20q-5 1 -16 1q-312 -13 -360 -17q-85 -8 -133 -11q-14 -2 -16 -13
q-20 -102 -43 -241q0 -4 1 -7z" />
    <glyph glyph-name="g" unicode="g" horiz-adv-x="1169" 
d="M969 611q-24 6 -50 6q-75 0 -189 -22q-118 -24 -152 -25q-33 -2 -49 -1q-35 2 -178 -8q-36 -2 -54 1q-9 2 -11.5 4.5t-1.5 11.5q1 20 21 31q28 14 90 40q95 39 161 73q94 50 229 77q152 32 230 40q43 5 81 2q37 -3 55.5 -20.5t25.5 -53.5q10 -55 -12 -141
q-42 -156 -176 -286q-218 -209 -522 -278q-138 -31 -257 -17q-54 6 -101 22q-141 50 -161 202q-10 73 15 175q36 149 140 310q101 156 265 324q226 232 489 408q52 34 89 52q29 15 51 17q50 6 68 -41q13 -35 9 -92q-8 -95 -48 -207q-50 -143 -127 -288q-6 -12 -20 -34
q-6 -10 -18 -20q-30 -22 -38 13q-5 24 3 64q2 14 41 171q11 42 17 71q2 12 -1 17q-12 -1 -34 -13q-49 -26 -108 -68q-260 -182 -453 -391q-94 -103 -147 -193q-7 -12 -19 -36q-16 -32 8 -63q19 -25 57 -40q46 -17 114 -19q74 -1 171 16q218 40 400 142q55 31 88 56q9 7 9 11
z" />
    <glyph glyph-name="h" unicode="h" horiz-adv-x="1046" 
d="M468 899l38.5 5.5l31.5 4.5q128 16 193 23q17 1 25 17q12 24 63.5 133.5t80.5 167.5q43 88 87 153q30 43 52 64q27 26 48 32q35 11 44 -25q2 -8 2 -12q2 -86 -55 -141q-15 -15 -22 -32q-18 -40 -49 -138q-26 -82 -55 -191q-3 -11 -1.5 -13.5t13.5 -4.5q34 -7 58 -21
q49 -30 19 -82q-11 -19 -34 -38q-39 -32 -89 -52q-19 -7 -23 -28q-34 -174 -95 -418q-22 -87 -33 -116q-11 -31 -26 -56q-13 -21 -26 -30q-31 -22 -61 1q-17 14 -32 41q-22 44 -33 112q-19 119 18 271q9 36 29 108q12 40 11 52q0 10 -1.5 12t-11.5 3q-27 2 -80 4.5t-79 3.5
q-18 1 -54 1q-13 0 -15.5 -2t-7.5 -15q-45 -132 -91 -286q-39 -129 -49 -158q-4 -11 -4 -25q1 -40 -6 -80q-13 -71 -83 -140q-41 -39 -74 8q-16 23 -25 61q-16 65 -6 178q20 213 103 442q7 17 6 22q-4 2 -23 2q-60 1 -120 9q-22 4 -34 9q-23 11 -9 32q9 15 35 29
q26 15 65 25q63 18 119 29q21 4 29 24q29 79 97 233q26 59 61 106q39 50 100 153q20 33 39 59q13 18 21 22q15 9 25 -7q7 -13 7 -30q1 -35 -11 -84q-8 -33 -24.5 -100t-24.5 -101q-5 -21 -16.5 -78t-19.5 -88q-3 -10 -8.5 -30t-8.5 -30z" />
    <glyph glyph-name="i" unicode="i" horiz-adv-x="856" 
d="M498 1072q-11 -2 -48 -14q-61 -21 -213 -82q-24 -10 -37 -14q-20 -6 -29 5q-7 9 -1 28q7 21 28 43t55 46q128 92 312 164q119 46 189 60q48 9 92 -2q62 -16 81 -91q6 -21 -12 -49t-40 -35q-14 -5 -18 6t-22 15q-27 6 -51 -2q-14 -4 -41 -13t-41 -14q-12 -4 -19 -18
q-10 -23 -30.5 -67.5t-30.5 -66.5q-32 -75 -98.5 -209t-90.5 -185q-3 -7 -9 -20t-9 -20q3 -2 5.5 -2t4.5 0.5t4.5 2t3.5 2.5q65 25 86 29q81 12 119 -62q12 -22 17 -33q26 -60 -5 -122q-8 -14 -14 -20q-8 -8 -13 -7.5t-12 9.5q-24 27 -62 15q-20 -6 -60 -24
q-50 -22 -104 -34q-95 -21 -193 -74q-106 -57 -209 -140q-10 -8 -15 -17q-10 -17 -24 -22q-24 -9 -30 16q-5 20 2 49q9 41 41 85q29 41 118 119q101 88 229 164q20 12 23 35q10 92 13 111q15 86 39 153q68 192 114 289q2 6 5 13z" />
    <glyph glyph-name="j" unicode="j" horiz-adv-x="968" 
d="M752 1032q-1 0 -16 -6q-179 -87 -410 -149q-24 -6 -47 -3q-49 8 -69 50q-34 74 11 129q68 83 137 128q42 28 114 42q240 50 302 66q26 6 39 26q38 54 86 83q26 15 47 16q48 5 70 -40q12 -26 14 -66q4 -84 -18 -189q-47 -236 -172 -498q-124 -262 -260 -445
q-125 -169 -275 -268q-82 -53 -159 -68q-67 -12 -120.5 14t-85.5 86q-23 43 -32 93q-13 74 39 134q13 16 25.5 18t31.5 -7q5 -2 15 -8q65 -39 146 -10q48 17 101 56q92 67 181 181q103 132 153 212q101 160 148 338q9 36 9 61q0 17 -5 24z" />
    <glyph glyph-name="k" unicode="k" horiz-adv-x="1067" 
d="M201 852q-9 1 -24.5 -1.5t-19.5 -2.5q-62 -6 -94 -3q-20 2 -38 9q-26 12 -26 41q0 16 8 34q26 60 87 94q10 6 17 6q15 0 16 -8q3 -12 18 -8q11 3 104 35q12 4 17 21q36 126 67 207q25 66 43 94q17 27 33 37q31 21 40 -15q5 -19 -3 -58q-8 -36 -23.5 -107.5t-22.5 -107.5
q-2 -5 1 -10q6 0 22 7q233 96 544 212q81 30 117 37q37 7 52.5 -9.5t6.5 -53.5q-7 -28 -22 -53q-61 -100 -157 -143q-105 -46 -264 -103q-130 -46 -162 -59q-64 -27 -139 -86q-8 -7 -5 -20q6 -19 24 -45q25 -34 67 -74l81 -78q103 -94 173 -215q17 -29 50.5 -86.5t60 -103
t48.5 -87.5q32 -61 62 -138q11 -30 -12 -58q-8 -10 -13.5 -10t-14.5 9q-92 98 -94 100q-115 120 -220 201q-141 109 -289 313q-2 2 -5.5 7t-5.5 8l-2 1l-2 2q-4 -5 -6 -20q-8 -56 -23.5 -168t-23.5 -167q-8 -62 -16 -93q-8 -29 -17 -45q-10 -18 -18 -25q-29 -27 -58 -1
q-15 13 -28 40q-20 43 -29 108q-10 73 15 208q35 186 99 410q5 16 4 21z" />
    <glyph glyph-name="l" unicode="l" horiz-adv-x="974" 
d="M285 300q3 0 20 5q198 76 368 111q85 17 194 14q27 -1 54 -14q37 -17 38 -57q1 -26 -15 -60q-18 -37 -50 -71q-83 -86 -186 -110q-30 -7 -78 -7q-132 2 -197 1q-99 -1 -207 -30q-19 -5 -29 -14q-25 -22 -52 -12q-6 2 -22 -2q-50 -15 -146 -53q-6 -2 -37 -12
q-13 -4 -23 -1q-19 5 -20 23q-2 16 11 41q15 27 47 55q45 41 111 80q19 11 18 33q-2 50 19 160q54 288 158 548q84 210 225 407q35 48 71 79q34 28 56 34q42 11 50 -32q3 -14 -4 -49t-15 -109q-4 -45 -41 -82q-16 -16 -28 -16q-11 0 -18 -16q-49 -116 -89 -232
q-11 -31 -45 -124t-51 -144q-55 -172 -85 -324q-3 -18 -2 -20z" />
    <glyph glyph-name="m" unicode="m" horiz-adv-x="1085" 
d="M913 1031q-5 -2 -15 -17q-52 -71 -164 -251q-118 -192 -185 -283q-42 -57 -72 -86q-27 -25 -47 -34q-42 -20 -69 18q-15 21 -23 53q-20 67 -29 163q-2 22 -6 64t-6 64q0 10 -3 12q-3 -4 -10 -20q-67 -180 -105 -299q-13 -39 -41.5 -109t-38.5 -98q-26 -72 -29 -84
q-10 -38 -34 -73q-18 -27 -40 -25t-34 34q-10 24 -14 66q-6 78 8 188q26 185 62 300q21 68 78 225q54 152 155 383q16 38 37 69q17 26 37 39q47 33 80 -15q13 -18 20 -48q18 -75 3 -164q-8 -56 -34 -115q-3 -8 -5 -24q-14 -203 -9 -348q2 -61 9 -91q5 -23 14 -26t28 14
q18 18 42 53q33 48 126 205q180 306 324 506q42 58 78 95q21 21 35 28q35 18 58 -14q19 -27 24 -74q8 -57 -2 -159q-25 -248 -81 -573q-11 -67 -35 -138q-24 -72 -44 -209q-2 -13 -6 -39.5t-6 -40.5q-2 -13 -6 -21q-13 -25 -28 -1q-10 18 -16 40q-13 47 -20 106
q-3 28 -23 168q-17 117 -1 248q19 157 62 321q3 14 1 17z" />
    <glyph glyph-name="n" unicode="n" horiz-adv-x="864" 
d="M231 643q-4 -5 -11 -22q-107 -259 -133 -322q-47 -112 -79 -174q-11 -23 -22 -40q-4 -8 -13 -18q-22 -25 -38 6q-7 15 -8 27q-3 38 4 66q9 35 27.5 104.5t27.5 103.5q37 138 158 513q108 334 134 407q22 62 38 90q23 38 43 55q23 20 47.5 16.5t41.5 -28.5q14 -20 21 -52
q16 -68 6 -154q-1 -11 -33 -259q-32 -264 -27 -449q1 -37 8 -89q9 6 18 27q70 149 88 198q13 35 58 147.5t66 175.5q52 160 132 292q28 46 57 157q14 57 18 98q1 9 5 20q6 15 14 15t13 -15q10 -31 13 -69q3 -36 -2 -163q-4 -69 -5 -106q-5 -287 -85 -538
q-6 -19 -39.5 -132.5t-55.5 -172.5q-45 -121 -82 -197q-33 -69 -78 -114q-23 -23 -44 -34q-52 -27 -103 3q-36 22 -63 62q-43 63 -69 159q-34 124 -42 282q0 1 -3 110q0 12 -3 14z" />
    <glyph glyph-name="o" unicode="o" horiz-adv-x="743" 
d="M236 995q-9 3 -29.5 9t-31.5 10q-16 5 -20 12t0 23q10 47 45 67q55 33 158 73q108 42 161 65q55 24 108 30q57 7 98.5 -21t55.5 -83q13 -52 6 -130q-14 -136 -92 -289q-131 -258 -354 -439q-86 -70 -176 -108q-57 -23 -100 -23q-73 2 -98 69q-17 45 -10 115q9 87 55 205
q52 131 144 283q23 38 71 114q8 13 9 18zM171 531q14 1 37 10q41 17 79 45q139 101 236 253q12 19 10.5 24t-20.5 16q-1 0 -1 0.5t-1 0.5q-106 59 -124 70q-16 9 -25 7.5t-20 -15.5q-7 -8 -13 -19q-80 -133 -138 -269q-25 -60 -37 -103q-4 -13 -1 -16.5t18 -3.5z" />
    <glyph glyph-name="p" unicode="p" horiz-adv-x="864" 
d="M226 1000q-45 -21 -133 -61q-36 -16 -47 -19q-18 -5 -27 1.5t-8 25.5q1 28 20 60q22 40 68 88q91 91 206 167q19 12 29 26q20 28 42 22q3 -1 19 7q115 63 202 95q84 30 147 38q48 5 86 -3q47 -10 75 -43t32 -85q4 -57 -15 -129q-22 -83 -64 -164q-130 -252 -323 -435
q-92 -87 -200 -148q-6 -3 -19 -12t-21 -13q-19 -9 -22 -33q-17 -110 -62 -342q-9 -47 -33 -93q-15 -29 -34 -44q-34 -27 -68 2q-15 12 -28 41q-23 49 -28 122q-5 64 18 202q35 206 146 572q14 45 40 135q4 13 2 20zM303 585q11 6 24 24q25 31 103 129t121 151q33 39 57 79
q26 42 36 72q16 47 -32 59q-22 6 -66 2q-55 -5 -151 -34q-19 -5 -22 -25q-9 -61 -28.5 -183.5t-28.5 -183.5q-3 -16 -7 -46t-6 -44z" />
    <glyph glyph-name="q" unicode="q" horiz-adv-x="966" 
d="M507 136q2 -1 26 -4q146 -10 251 -41q48 -15 81 -41q41 -33 48 -80q10 -66 4 -96q-8 -39 -43 -72q-14 -14 -34 -14q-8 0 -11 2.5t-2 10.5q3 66 -68 102q-24 12 -64 23q-28 7 -85.5 26.5t-88.5 27.5q-65 17 -180 30q-11 1 -25 -6q-78 -37 -142 -34q-60 1 -110 42
q-2 2 -9 8t-12 9.5t-11 5.5q-7 2 -7 9q0 6 -2 11.5t-6.5 12t-6.5 9.5q-36 63 -48 151q-25 184 48 387q92 254 308 451q91 82 163 123q63 35 108 42q8 1 20 11q48 38 85 62q49 32 94 36q56 5 89 -37q45 -56 55 -141q15 -114 -10 -252q-50 -279 -224 -540q-81 -123 -181 -221
q-9 -9 -10 -13zM93 421q-2 -66 22 -119q28 -60 90 -72q25 -5 58 0q64 10 126 48q206 128 318 335q64 118 51 237q-10 89 -60 149q-32 39 -82 85q-14 13 -36 11q-42 -3 -74 -25q-14 -10 -18 -8q-10 4 -22 -6q-209 -159 -316 -393q-56 -122 -57 -242z" />
    <glyph glyph-name="r" unicode="r" horiz-adv-x="1175" 
d="M501 1194q7 0 22 10q132 87 303 171q141 69 274 98q44 10 82 7q35 -3 52.5 -24t14.5 -55q-5 -41 -22 -77q-29 -62 -83 -131q-123 -160 -310 -329q-46 -42 -99 -86.5t-121 -100.5t-101 -84q-10 -8 -20.5 -17.5t-23 -21.5t-19.5 -18q-8 -7 -8 -11t7 -13q10 -11 34 -27
q19 -12 95 -50q57 -30 104 -53q87 -44 153 -109q70 -69 201 -179q47 -40 76 -70q9 -9 9 -14.5t-8 -15.5q-16 -20 -39 -11q-55 21 -67 27q-175 79 -336 136q-166 58 -340 180q-4 2 -7 4q-2 -4 -3 -8t-1.5 -9t-1.5 -8q-15 -72 -25 -98q-13 -38 -35 -64q-22 -27 -44.5 -23.5
t-35.5 36.5q-17 45 -12 100q4 52 30 152q57 222 117 434q5 18 4 22q-3 1 -15 -5q-233 -131 -267 -151q-15 -9 -26 -13q-21 -7 -30.5 1.5t-5.5 30.5q4 19 18 42q22 34 62 73q84 84 216 183q74 56 112 83q14 10 20 27q14 46 32 90q8 19 18 35q9 14 18 22q13 11 24.5 7.5
t14.5 -21.5q2 -17 -1 -41zM372 582q5 3 8 6q24 24 50.5 48t67 58.5t52.5 45.5q157 138 248 252q53 67 80 120q5 12 5 14q-4 1 -11 -1q-183 -68 -411 -182q-15 -8 -18 -25l-24 -111q-13 -60 -47 -225z" />
    <glyph glyph-name="s" unicode="s" horiz-adv-x="1054" 
d="M-25 -16q-44 0 -66 3q-25 3 -14 25q16 32 58 49q12 5 31 10q178 57 326 132q72 37 135 92q42 37 37 103q-3 30 -18 66q-21 50 -65 113q-10 14 -28 38.5t-32.5 45t-26.5 39.5q-22 36 -34 66q-36 89 8 177q27 52 76 103q85 87 231 163q198 102 404 137q55 10 101 10
q31 0 41 -16q9 -15 -7 -44q-9 -16 -27 -32q-76 -67 -159 -70q-35 -1 -99 -21q-96 -31 -199 -87q-27 -15 -62 -41q-37 -29 -26 -76q5 -23 31 -61q26 -36 67 -79q88 -93 104 -112q43 -52 63 -92q49 -98 7 -194q-47 -107 -149 -194q-182 -154 -408 -203q-162 -36 -229 -44
q-14 -2 -41 -4t-30 -2z" />
    <glyph glyph-name="t" unicode="t" horiz-adv-x="1122" 
d="M497 957q0 2 1.5 9.5t2.5 13.5q-17 -2 -47.5 -9t-33.5 -7q-195 -39 -276 -50q-56 -7 -92 -6q-34 2 -46.5 17t-6.5 48q6 40 29 68q13 17 32 20t67 23q60 24 179 73.5t178 74.5q27 11 83 33q21 9 31 21q11 13 24 18q16 7 22 3q11 -6 27 1q187 76 403 140q22 7 49 7
q37 -1 61.5 -24t27.5 -60q6 -79 -43 -143q-59 -77 -134 -123q-50 -30 -106 -39q-58 -9 -163.5 -31t-135.5 -28q-14 -2 -17 -20l-48 -282q-15 -82 -44 -263.5t-47 -277.5q-13 -66 -30 -103q-17 -38 -34 -54q-37 -35 -62 8q-14 23 -20 69q-9 65 11 157q17 79 51 223t44 188
q23 101 63 305z" />
    <glyph glyph-name="u" unicode="u" horiz-adv-x="704" 
d="M519 638q-2 -2 -10 -17q-66 -134 -101 -200q-51 -95 -121 -181q-36 -44 -76 -73q-28 -20 -55 -28q-63 -17 -109 28q-29 29 -47 77q-30 80 -30 175q-1 135 48 278q53 157 160 318q16 24 34 42q9 9 14 12q15 10 23 -7q7 -16 3 -37q-3 -19 -17 -53q-62 -154 -79 -211
q-43 -138 -54 -236q-3 -23 -1 -52q1 -16 10.5 -22.5t24.5 -1.5q18 6 40 26q26 25 56 67q28 40 111 179q119 197 222 433q21 48 45 82q21 29 45 42q48 25 73 -23q17 -34 19 -89q2 -41 -15 -137q-24 -133 -65 -264q-41 -130 -90 -359q-3 -17 -10.5 -50t-11.5 -49
q-5 -17 -7 -22q-5 -10 -12.5 -10t-12.5 10q-8 14 -8 38q-2 114 2 195q2 36 4 108q0 10 -2 12z" />
    <glyph glyph-name="v" unicode="v" horiz-adv-x="774" 
d="M195 585q5 1 10 8q23 37 121.5 188.5t149.5 235.5q103 169 152 267q21 43 56 101q29 49 69 80q10 7 9 19q-1 17 7 37q7 16 22 23q23 11 38 -10q10 -15 13 -36q15 -91 6 -184q-15 -159 -100 -325q-241 -475 -346 -659q-83 -145 -187 -285q-28 -38 -54 -63q-14 -14 -31 -25
q-44 -26 -84 9q-19 18 -34 46q-31 62 -41 151q-14 136 10 290q68 429 185 854q15 55 36 112q14 36 26 52q3 4 11 12q33 32 48 -12q6 -19 4 -58q-2 -38 -15 -148q-5 -37 -25.5 -185t-29.5 -228q-17 -152 -26 -241q-2 -17 0 -26z" />
    <glyph glyph-name="w" unicode="w" horiz-adv-x="1007" 
d="M399 746q-4 -4 -15 -23q-31 -59 -93 -176.5t-94 -176.5q-39 -74 -79 -134q-24 -36 -40 -50q-47 -43 -81 12q-21 35 -28 90q-10 73 6 176q14 96 75 342q55 223 74 331q3 14 7.5 41l6.5 39q3 14 11 31q15 29 33 28t28 -30q3 -8 8 -36q8 -55 -2 -149q-5 -44 -13.5 -95.5
t-16 -88.5t-19.5 -97l-18 -90q-3 -13 -7.5 -38t-6.5 -36q6 2 13 16q168 309 266 514q3 6 20 38q9 16 17 24q30 30 60 -1q11 -11 23 -39q17 -41 20 -99q3 -55 -1 -133q-12 -241 -6 -522q4 -142 11 -213q0 -11 5 -16q2 1 13 18q29 51 56 133q93 284 168 573q70 269 150 624
q4 15 9.5 44.5t9.5 44.5q7 30 20 50q14 20 31 21t33 -17q29 -33 40 -94q16 -81 -10 -183q-20 -79 -110 -421q-37 -142 -150 -606q-46 -188 -103 -338q-28 -73 -55 -114q-18 -26 -34 -39q-40 -33 -86 -4q-27 18 -51 54q-39 60 -60 144q-25 98 -33 217q-13 167 -2 400
q1 15 1 46q0 4 -1 8z" />
    <glyph glyph-name="x" unicode="x" horiz-adv-x="831" 
d="M359 941q11 16 12 17q149 219 345 434q24 27 53 50q17 13 30 19q48 23 80 -20q21 -28 26 -71q6 -56 -14 -138q-32 -130 -123 -227q-125 -134 -273 -330q-11 -13 -1 -32q34 -64 108 -188q67 -110 62 -242q-2 -48 -21 -79q-24 -39 -65 -16q-14 8 -25 21q-16 17 -31 44
q-5 10 -15 28.5t-18 33.5t-15 28q-37 72 -93 198q-8 19 -12 22q-3 0 -11 -11q-85 -127 -194 -309q-9 -16 -28 -43.5t-24 -34.5q-8 -12 -59 -94q-8 -14 -10 -16q-26 -38 -51 2q-17 28 -20 71q-7 69 23 175q56 197 165 386q26 46 80 136q11 17 3 36q-68 159 -116 299
q-48 142 -66 250q-7 47 14 97q1 2 3.5 6.5t3.5 6.5q29 48 57 0q44 -79 85 -180q53 -128 121 -301q11 -25 14 -28z" />
    <glyph glyph-name="y" unicode="y" horiz-adv-x="958" 
d="M139 135q8 3 27 17q110 81 224 210q173 195 303 439q81 151 118 260q6 20 5 24q-6 -4 -22 -25q-27 -36 -79.5 -106.5t-79.5 -105.5q-118 -158 -202 -255q-75 -85 -141 -134q-51 -37 -92 -50q-102 -33 -156 57q-35 57 -44 148q-18 201 62 417q0 2 5 11q71 129 121 195
q8 11 22 23q89 77 189 147q24 17 31 -11q3 -12 -5 -29q-16 -28 -46 -84q-23 -41 -46 -93q-9 -20 -98 -210l-12 -27q-36 -109 -68 -189q-9 -21 -12 -44q-3 -22 14 -31q16 -10 43 -4q22 4 46 17q36 20 65 45q80 68 147 142q106 118 264 341q62 88 96 130q33 42 62 67
q23 20 46 28q34 12 58 -15q15 -17 23 -44q11 -37 13 -79q4 -100 -25 -228q-76 -339 -240 -609q-164 -273 -418 -452q-75 -53 -139 -81q-45 -20 -83 -24q-60 -6 -79 51q-16 47 -2 108q10 45 44 107q0 1 1 2l2 2q11 17 25 16t22 -22q6 -14 8 -34v-7q1 -7 3 -11z" />
    <glyph glyph-name="z" unicode="z" horiz-adv-x="1083" 
d="M747 1151q-25 2 -63 4q-152 5 -336 -11q-12 -1 -22 -13q-73 -84 -136 -170q-25 -34 -48 -51q-21 -16 -40 -21q-43 -11 -48 32q-2 20 5 53q10 47 28 85q82 173 143 290q9 17 29 23q66 17 104 8q33 -8 45 -37q5 -14 21 -13q49 3 147 7q129 5 219 -7q58 -8 83 -19
q83 -34 49 -117q-14 -34 -44 -68q-46 -53 -110 -107q-66 -56 -144 -148q-163 -192 -341 -420q-8 -11 -8 -15q12 0 44 9q146 38 320 36q40 -1 203 14q135 12 200 14q2 0 6.5 0.5t6.5 0.5q24 -1 21 -24q-5 -34 -36 -47q-74 -32 -111 -46l-285 -108q-34 -13 -102.5 -42
t-102.5 -42q-155 -58 -369 -84q-44 -5 -74 2q-55 12 -60 70q-3 38 10 78q18 54 57 110q62 90 171 208q171 186 420 400q48 41 113 121q34 43 35 45z" />
    <glyph glyph-name="braceleft" unicode="{" horiz-adv-x="921" 
d="M801 188q13 -2 16 -6.5t1 -18.5q-5 -21 -20 -34q-29 -24 -73 -44l-93 -45q-81 -44 -162 4q-98 57 -133 180q-15 51 -11 127q3 53 12 107q3 16 5 52q1 45 -37 67q-58 33 -101 30q-38 -3 -72 4q-19 4 -25.5 13.5t-3.5 29.5q5 32 27 54.5t54 28.5l56 8t65 11q73 15 134 49
q41 23 41 70q0 48 -14 111q-15 72 -17 87q-13 88 33 172t126 122q68 33 152 18q37 -7 22 -41q-20 -44 -62 -54q-48 -11 -92 -31q-18 -8 -21 -13t0 -24q12 -70 17 -106q16 -107 -12 -197q-53 -171 -209 -260q-1 0 -7.5 -3t-8.5 -6l1 -3q42 -35 42 -107q0 -49 1 -73
q3 -99 84 -158q65 -48 167 -89q46 -19 118 -32z" />
    <glyph glyph-name="verticalbar" unicode="|" horiz-adv-x="292" 
d="M193 56q2 -55 -10 -97q-5 -20 -15 -34q-28 -41 -68 -11q-20 15 -35 41q-35 58 -49 150q-8 54 2 161q32 340 44 510q8 116 10 296q2 143 10 234q6 55 20 89q13 29 28 41q13 11 22.5 8t13.5 -19q4 -18 11 -85q6 -65 7.5 -131t0 -168t-1.5 -131q0 -220 1 -273q2 -344 9 -581
z" />
    <glyph glyph-name="braceright" unicode="}" horiz-adv-x="923" 
d="M789 796q39 -8 29 -46q-21 -74 -90 -82q-106 -12 -159 -28q-48 -15 -94 -42q-30 -17 -33 -54q-3 -42 12 -115q19 -100 20 -110q6 -55 -14 -110q-34 -93 -110 -147q-79 -58 -187 -40q-39 7 -23 43q19 42 61 52q53 13 99 34q12 6 14 9t1 16q-1 14 -11 70q-23 128 0 220
q47 186 214 282q2 1 8 4.5t11 6.5q-46 36 -46 104q0 27 -2 81q-3 94 -81 153q-71 52 -169 91q-49 21 -118 31q-13 2 -16.5 7.5t-0.5 19.5q4 19 20 32q29 24 73 44q10 5 29 14t34.5 16.5t29.5 14.5q83 44 164 -4q93 -56 130 -173q19 -63 10 -169q0 -4 -12 -88q-3 -19 -3 -39
q-2 -39 33 -61q58 -35 103 -32q36 3 74 -5z" />
    <glyph glyph-name="asciitilde" unicode="~" horiz-adv-x="749" 
d="M648 810q4 -81 -37 -162q-25 -48 -64 -80q-60 -48 -130 -20q-34 13 -62 38q-10 9 -31 27.5t-31 27.5q-23 21 -40 30q-26 13 -51.5 7t-42.5 -29q-5 -6 -3 -20q3 -29 -15 -52q-7 -10 -16.5 -9.5t-15.5 11.5q-9 17 -6 36q18 131 132 192q43 24 99 7q23 -6 70 -29
q10 -5 29 -14t29 -14q16 -7 42 -13q46 -8 69 24q21 28 27 51q2 8 7 25.5t8 26.5q5 16 8 21q6 8 12 7q5 -1 7 -9q6 -16 6 -35v-45z" />
    <glyph glyph-name="nonbreakingspace" unicode="&#xa0;" horiz-adv-x="454" 
 />
    <glyph glyph-name="exclamdown" unicode="&#xa1;" horiz-adv-x="565" 
d="M374 513q1 0 0 -45v-44q2 -75 -18 -269q-2 -19 -9 -76t-10.5 -96t-4.5 -77q-2 -101 -7 -151q-11 -113 -60 -201q-21 -39 -46 -61q-32 -28 -59.5 -21t-42.5 46q-18 45 -14 112q7 119 46 256q71 242 115 456q8 39 41 176q7 29 14 47q9 24 24 23q14 -1 22 -24q9 -24 9 -51z
M458 846q5 -13 5 -40q-5 -69 -43 -102q-4 -3 -9 -10.5t-8 -10.5q-25 -25 -50 -16q-2 1 -14 1q-25 -1 -35 24q-7 17 -7 36q2 72 47 123q21 23 42 30q24 8 43.5 -1.5t28.5 -33.5z" />
    <glyph glyph-name="cent" unicode="&#xa2;" horiz-adv-x="739" 
d="M634 349q5 -7 -3 -21q-7 -13 -25 -24q-56 -36 -146 -79q-20 -9 -59.5 -28t-58.5 -28q-58 -28 -111 -40q-12 -3 -18 -15q-12 -26 -34 -57q-5 -7 -13 -23q-2 -4 -5 -12.5t-5 -12.5q-5 -12 -10 -12q-6 0 -9 15q-1 5 -1 31q0 10 1 31t1 31q1 16 -14 17q-41 3 -74 19
q-72 35 -71 114q0 24 7 54q17 63 57 126q90 143 249 275q31 26 37 30q23 17 15 43q-6 18 2 55q11 48 48 91q7 8 17 15q25 16 33 -14q4 -14 2 -35q-3 -28 -9 -59q-2 -8 -4 -24q7 0 21 7q40 18 63 21t35.5 -8.5t11.5 -34.5q0 -16 -10 -46q-9 -27 -37 -77q-31 -56 -92 -145
q-10 -16 -23 -24q-10 -8 -17 -3q-5 3 -3 17q2 8 10 27q34 68 50 102t20 52q2 9 -0.5 12t-11.5 1q-17 -3 -42 -17q-6 -4 -10 -17q-15 -49 -45.5 -146.5t-45.5 -146.5q-14 -47 -19 -61q-2 -5 -1 -9t8 -3q22 2 89 1.5t89 5.5q63 10 142 29q2 0 5 1t5 2t4.5 0t4.5 -3zM183 324
q24 70 102 271q5 16 4 20q-3 0 -4 -1q-117 -95 -178 -200q-10 -16 -16 -35q-10 -33 19 -52q20 -13 53 -16q7 -2 11 -1t5 3.5t4 10.5z" />
    <glyph glyph-name="yen" unicode="&#xa5;" horiz-adv-x="860" 
d="M860 1325q10 -42 -6 -106q-9 -35 -38 -106q-162 -396 -235 -597q-1 -4 -3.5 -11t-4.5 -10q-5 -12 8 -15q7 -1 21 -4t21 -4q19 -3 34 -10q18 -10 3 -23q-7 -6 -23 -14q-33 -15 -82 -27q-20 -5 -26 -26q-3 -9 -18 -50q4 -5 16 -5q12 -1 110 -1q71 0 106 -3q20 -1 25.5 -8.5
t0.5 -27.5q-4 -18 -21 -26q-51 -25 -107 -45q-132 -48 -178 -69q-19 -9 -24 -26q-21 -69 -48 -121q-29 -54 -58 -82q-1 -1 -16 -22q-9 -12 -14 -11q-9 1 -13 15q-6 18 -6 37q-2 106 0 141q1 11 -1 13t-13 1q-68 -4 -114 0q-39 4 -65 11q-33 9 -37 40q-9 61 23 116
q11 20 32 21q32 3 66 9.5t78.5 18t64.5 15.5q2 1 6 1t6 1q13 2 10 12q-2 5 -12 2q-56 -7 -97 -7q-24 0 -35 4q-32 11 -16 40q12 21 37 38q40 28 116 55q17 6 51 16q12 3 16 14q32 85 85 218q1 2 1 6q-5 -1 -15 -14q-92 -110 -177 -186q-52 -46 -102 -74q-38 -22 -74 -27
q-52 -7 -86 37q-24 33 -31 80q-9 64 11 155q19 93 77 225q22 52 67.5 144t61.5 127q4 8 11 15q26 26 47 65q16 28 35 52q4 6 19.5 6t20.5 -5q3 -3 1 -10q-3 -19 -7 -32q-22 -76 -101 -274q-58 -142 -83 -232q-7 -21 -8 -41q-1 -12 12 -12q15 0 28 6q25 11 50 30q46 33 99 88
q166 173 305 352q14 18 42.5 54t42.5 54q22 26 34 39q10 11 24 19q25 15 44 7t26 -36z" />
    <glyph glyph-name="section" unicode="&#xa7;" horiz-adv-x="1015" 
d="M855 579q66 -69 57 -167q-20 -221 -198 -344q-169 -117 -394 -142q-102 -11 -184 16q-92 31 -129 95q-28 46 -33 115q-8 126 27 231q14 41 34 75q3 6 4 7q7 9 12 7q6 -2 4 -13q-3 -12 -8 -28q-21 -54 -22 -105q-1 -23 2 -52q4 -45 39 -80q69 -70 176 -78q112 -8 246 39
q95 33 204 100l21 15t18 13q10 7 2 17q-15 21 -44 42q-53 39 -147 64q-32 8 -188 33q-58 9 -97 21q-22 6 -40 16q-68 34 -70 111q-1 35 10 74q23 81 74 140q8 11 9 14q-63 39 -49 127q9 61 46 128q64 117 185 240q68 69 134 114q46 31 87 44q28 9 48 10q63 3 93 -51
q15 -26 18 -66q8 -91 -17 -201q-7 -33 -26 -52q-22 -22 -33 8q-3 10 -9.5 30.5t-10.5 30.5q-10 30 -27 48q-31 34 -79 25q-29 -6 -64 -29q-40 -25 -83 -65q-54 -51 -92 -101q-8 -11 -7.5 -15.5t11.5 -12.5q15 -12 43 -21q37 -13 134 -32q73 -15 105 -25q31 -10 48 -20
q65 -37 52 -112q-11 -62 -59 -124q-1 -2 -6.5 -7.5t-7.5 -8.5q3 -4 21 -9q53 -17 92 -38q42 -23 68 -51zM620 693q3 5 -3 15q-10 12 -31 21q-31 13 -77 21l-153 27q-23 4 -29 2t-21 -20q-4 -4 -8 -10q-4 -5 -4.5 -8t1.5 -5t8 -6q13 -7 39 -13q32 -8 117 -14q108 -9 143 -15
q15 -2 18 5z" />
    <glyph glyph-name="ordfeminine" unicode="&#xaa;" horiz-adv-x="569" 
d="M465 1513q4 -16 1 -35q-12 -84 -40 -180q-3 -10 -20 -71t-25 -93q-5 -22 -16 -29q-2 23 0 66t1 64q-1 19 0 40t4 48t4 42q-9 -4 -20 -18q-65 -78 -132 -125q-37 -25 -73 -25q-29 0 -40 26q-11 29 -3 64q17 80 84 157q38 44 83 71q15 10 36 16q57 16 74 -35q5 2 12.5 8.5
t8.5 7.5q19 14 33 17q22 6 28 -16zM324 1435v2q-11 5 -22 -4q-14 -13 -24 -19q-46 -30 -91 -97q-2 -2 -4 -8q-3 -8 3 -13q5 -4 12 0q9 6 16 13q32 33 110 126z" />
    <glyph glyph-name="guillemotleft" unicode="&#xab;" horiz-adv-x="972" 
d="M523 506l39 -45q11 -13 2 -25q-11 -14 -25 -9q-33 11 -62 24q-66 31 -118 44q-57 13 -104 50q-92 69 -107 81q-34 27 -42 54.5t6 69.5q25 73 98 128q25 19 79 49q35 19 103 56.5t103 55.5q30 15 44 16q32 3 32 -28q0 -18 -12 -39q-11 -22 -40 -53q-48 -50 -128 -108
q-4 -3 -27.5 -20t-36.5 -26q-10 -7 -1 -16t26.5 -27.5t26.5 -27.5q43 -41 68 -93q27 -56 76 -111zM639 792q-18 -12 -20 -15q10 -12 29 -33t28 -31q40 -43 63 -92q27 -58 77 -118q6 -8 19 -24.5t20 -24.5q11 -13 3 -24q-10 -12 -28 -4q-17 8 -63 34q-72 42 -111 57
q-52 20 -97 62q-11 11 -42 38t-47 43q-30 28 -36 55.5t9 65.5q22 57 81 100q39 28 98 59q27 14 81 42.5t81 42.5t47 19q20 4 31 -5.5t8 -29.5q-2 -20 -20 -45q-12 -17 -51 -54q-55 -50 -160 -118z" />
    <glyph glyph-name="softhyphen" unicode="&#xad;" horiz-adv-x="0" 
 />
    <glyph glyph-name="degree" unicode="&#xb0;" horiz-adv-x="301" 
d="M333 1534q1 -11 1.5 -28t0.5 -21q-3 -127 -31 -217q-12 -39 -28 -65q-2 -3 -6 -8.5t-6 -8.5q-23 -32 -52.5 -38.5t-52 6t-38.5 35.5q-23 34 -25 76q-6 111 60 218q10 18 10 29q0 23 23 52q20 25 55 53q6 4 15 8q32 13 51 -16q20 -32 23 -75zM241 1302q3 42 1 72
q-2 24 -13 35q-24 24 -34 41q-36 -58 -27 -109q8 -44 50 -55q12 -3 17 0t6 16z" />
    <glyph glyph-name="plusminus" unicode="&#xb1;" horiz-adv-x="835" 
d="M692 821q10 -4 20 -10q19 -10 21 -27.5t-13 -32.5q-9 -11 -27 -16q-39 -10 -108.5 -34.5t-87.5 -30.5q-25 -8 -61 -11q-14 -2 -16 -11q-19 -66 -49 -120q24 1 66 3q53 3 102 -20q53 -26 98 -51q32 -18 10 -49q-7 -10 -29 -12q-53 -7 -93 -20q-19 -7 -45 -12
q-49 -11 -94 -11q-129 2 -232 -1q-45 -1 -102 2q-23 2 -44 9q-22 7 -22 32q0 27 13 47q7 10 18 13q173 45 212 51q5 1 15 1.5t16.5 2t10.5 6.5q4 4 4 11.5t-2 17t-2 14.5q0 32 12 94q2 7 1.5 10.5t-3 4.5t-10.5 2q-81 14 -124 25q-5 1 -15 3.5t-15 4.5q-18 6 -24.5 15
t-5.5 28q2 47 28 84q13 19 39 25q48 13 102 21q34 6 65 9q14 1 17 15q10 40 18 59q17 42 39 68q15 17 29 23q25 12 36 -15q7 -17 7 -38q2 -47 -2 -81q-1 -13 1 -15t14 -3q58 -3 116 -35q46 -27 96 -45z" />
    <glyph glyph-name="twosuperior" unicode="&#xb2;" horiz-adv-x="501" 
d="M388 1175q13 -4 8 -17q-5 -12 -16 -18q-29 -12 -37 -14q-54 -15 -85 -26q-45 -16 -91 -12q-7 0 -21 1t-21 1q-21 1 -23 21q-1 9 0 18q12 72 65 99q63 32 97 85q26 40 28 90q0 27 -12 33q-11 6 -34 -10q-44 -32 -69 -96q-7 -17 -13 -23q-11 -11 -16 5q-3 9 -1 20
q23 128 125 206q15 12 34 18q50 18 65 -32q10 -32 3 -86q-15 -103 -83 -203q-5 -9 -11 -16l-1 -3q43 -23 71 -30q9 -2 38 -11z" />
    <glyph glyph-name="threesuperior" unicode="&#xb3;" horiz-adv-x="485" 
d="M374 1499q-22 -62 -79 -130q-12 -14 -19 -22q12 -6 30 -16q34 -21 45 -56t-3 -72q-11 -26 -23 -39q-59 -64 -136 -74q-11 -1 -32.5 -4.5t-32.5 -5.5q-15 -2 -19 4q-4 7 8 19q6 5 13 10q84 50 127 74q14 9 32 15q11 4 8 15q-9 29 -36 41q-50 22 -97 3q-24 -9 -33 0
q-11 9 -2 33q13 37 51 72q10 8 28.5 25.5t27.5 26.5q18 18 24 30q-7 4 -19 2q-76 -18 -110 -45q-2 -2 -8 -4q-17 -8 -17 12q0 9 8 23q14 24 35 44q74 69 179 94q14 3 25 2q28 -3 32 -30q2 -19 -7 -47z" />
    <glyph glyph-name="paragraph" unicode="&#xb6;" horiz-adv-x="792" 
d="M688 1320q2 -135 -1 -203q-8 -162 -26 -486q-18 -290 -18 -296q-9 -144 -25 -227q-10 -50 -22 -71q-19 -35 -44.5 -38.5t-51.5 26.5q-24 27 -39 68q-37 98 -28 212q6 69 38 296q13 93 31 193t44 232t37 191q1 3 20 106q-49 1 -102 -5q-14 -1 -12 -15q1 -14 1.5 -28
t-0.5 -30.5t-1 -27.5t-2.5 -30t-3 -27.5t-3.5 -30t-4 -27t-4.5 -29.5t-4.5 -28q-11 -75 -35 -224t-36 -224q-1 -6 -39 -296q-5 -36 -47 -292q-4 -19 -10 -27q-14 -21 -34 -4q-10 8 -17 23q-20 43 -20 82q-2 275 1 375q1 42 -4 101q-4 42 5 100q9 59 -24 101q-43 52 -92 157
q-4 8 -9 49q-16 172 49 313q55 119 166 183q78 46 156 40q103 -9 173 -90q1 -2 3.5 -5t4.5 -5q30 -25 30 -82z" />
    <glyph glyph-name="periodcentered" unicode="&#xb7;" horiz-adv-x="444" 
d="M310 838q32 -11 32 -44q-1 -28 -13 -48q-31 -59 -95 -85q-37 -16 -63 2q-4 2 -12 2q-3 1 -8 2t-8 1q-24 5 -34.5 22.5t-3.5 40.5t26 42q55 56 128 68q28 5 51 -3z" />
    <glyph glyph-name="cedilla" unicode="&#xb8;" horiz-adv-x="135" 
d="M102 -10q103 -16 104 -116q3 -124 -94 -187q-51 -33 -109 -21q-54 10 -109 30q-26 10 -49 27q-13 10 -10 23q2 9 5 11.5t12 1.5q74 -11 126 2q52 12 131 59q1 0 2 5q-21 9 -64 11q-51 2 -62 4q-24 4 -36.5 15t-18.5 35q-10 45 3 94q20 78 73 162q6 10 11 15q22 20 31 -7
q5 -16 2 -31q-3 -19 -12 -37q-15 -33 -30 -76q-3 -11 -2 -12.5t13 -2.5q64 -2 83 -5z" />
    <glyph glyph-name="onesuperior" unicode="&#xb9;" horiz-adv-x="409" 
d="M304 1525q6 -25 0 -66q-21 -139 -75 -270q-7 -17 -46 -131q-3 -8 -8 -17q-2 -4 -6 -4q-7 0 -7 7q-1 11 0 22q5 52 7 71q3 25 5 73t6 73q4 23 16 77q4 12 6 26q-12 -5 -34 -15.5t-33 -15.5q-1 0 -8 -3.5t-8.5 -3t-8.5 2.5q-10 7 -6 29q6 32 27 50q14 12 58.5 51t69.5 60
q16 14 28.5 9.5t16.5 -25.5z" />
    <glyph glyph-name="ordmasculine" unicode="&#xba;" horiz-adv-x="325" 
d="M369 1510q8 -49 -9 -128q-22 -108 -67 -177q-26 -41 -64 -69q-40 -29 -75.5 -17t-50.5 60q-10 34 -12 102q7 128 78 226q14 18 32 32q12 10 20 10q9 0 16.5 2.5t18 8.5t13.5 7q25 11 28 12q43 14 61 -27q7 -16 11 -42zM283 1366q7 35 6 37.5t-25 25.5q-2 2 -6.5 5.5
t-6.5 5.5q-19 17 -28 15t-21 -24q-10 -18 -15.5 -40t-9.5 -50t-7 -42q5 -37 31 -56q10 -8 15.5 -7t12.5 12q44 71 54 118z" />
    <glyph glyph-name="guillemotright" unicode="&#xbb;" horiz-adv-x="972" 
d="M839 844q40 -33 29 -88q-10 -49 -45 -94q-27 -36 -64 -62q-32 -23 -112 -67q-7 -4 -160 -86q-36 -18 -44 -20q-22 -6 -33 5t-7 33q5 22 25 50q21 29 58 62q50 46 150 117q16 10 18 15q-40 42 -61 62q-40 39 -67 94q-25 51 -77 110q-6 7 -18.5 23t-19.5 23q-10 12 -1 24
q10 13 23 9q32 -10 47 -17q90 -40 143 -53q50 -12 91 -44q18 -13 53.5 -40.5t53.5 -41.5q3 -3 9 -7.5t9 -6.5zM528 697q-23 -57 -79 -97q-33 -24 -83 -50q-120 -64 -180 -95q-26 -14 -41 -17q-23 -5 -34.5 6.5t-5.5 34.5q7 27 28 51q24 29 75 71q47 38 129 90q14 9 16 12
q-1 2 -11 15q-30 34 -46 51q-39 42 -62 90q-30 62 -79 121q-6 8 -18.5 24.5t-19.5 24.5q-10 12 -1 22q10 12 22 7q2 -1 5.5 -2.5t5.5 -2.5q10 -5 29.5 -15.5t28.5 -16.5q63 -38 109 -56q54 -21 98 -62q29 -27 89 -81q29 -26 35 -51t-10 -74z" />
    <glyph glyph-name="questiondown" unicode="&#xbf;" horiz-adv-x="940" 
d="M836 93q4 -22 -1 -49q-10 -52 -41 -115q-104 -212 -312 -368q-68 -51 -152 -85q-53 -21 -94 -25q-22 -3 -49 4q-63 16 -80 83q-5 20 -5 50q1 75 37 163q45 114 154 267q30 41 178 229q1 2 3.5 4t3.5 4q38 49 47 68t23 79q7 32 -3 63q-12 35 -29 57q-9 12 -5 27
q13 43 49 53q38 11 76 3q20 -3 39 -3q43 0 59 -41q13 -33 1 -94q-13 -67 -46 -133q-40 -83 -106 -168q-25 -33 -75.5 -92t-63.5 -75q-58 -68 -96 -126q-20 -32 -27 -49q-12 -29 16 -45q17 -10 37 -10q43 -1 85 17q167 73 271 201q3 3 8 10.5t6 9.5q14 20 5 34q-4 6 -2 16
q6 32 28 52q6 6 14 9q18 8 31 1t16 -26zM583 666q-25 -6 -43.5 7t-21.5 39q-3 24 5 49q37 111 160 151q1 0 2 0.5t2 0.5q35 7 52 -7.5t16 -51.5q0 -16 -7 -39q-23 -74 -71 -129q-20 -24 -39 -31q-18 -8 -30 8q-7 9 -17 5q-1 -1 -4 -1.5t-4 -0.5z" />
    <glyph glyph-name="Agrave" unicode="&#xc0;" horiz-adv-x="837" 
d="M693 1640q-41 67 -75 101q-11 11 -9 28q1 11 6 27q21 52 69 83q20 13 36 14q20 1 28 -16q4 -10 8 -28q4 -22 6 -46q5 -103 4 -132q0 -19 -3 -35q-5 -24 -20 -36q-12 -11 -23 2q-11 12 -27 38zM799 733q7 -30 -20 -40q-25 -10 -29.5 -16t-3.5 -33q2 -69 25 -428
q5 -84 -2 -155q-5 -52 -36 -94q-42 -56 -120 -37q-6 2 -9 5q-2 2 -8.5 9.5t-8.5 10.5t-7.5 9.5t-7.5 11t-5 11t-5 13.5q-23 89 -18 181l12 258q1 28 2.5 82t2.5 82q0 12 -2 13.5t-14 -1.5q-161 -51 -209 -68q-17 -6 -25 -20q-74 -121 -131 -189q-34 -40 -54 -57
q-20 -16 -35 -22q-28 -10 -37 18q-6 20 -1 49q4 29 20 57q1 2 38 73q7 12 7 21q-63 -10 -74 -11q-8 -1 -25.5 -2t-18.5 -1q-23 -1 -32 20q-7 17 -8 22q-12 61 18 125q15 31 48 38q114 27 182 31q20 1 28 19q229 495 273 597q32 74 64 130q30 53 65 88q22 22 47 33
q48 20 71 -26q12 -23 12 -60q0 -11 -5 -96q-24 -364 -22 -507q0 -40 2 -118q0 -14 2 -16t16 -1q4 0 11.5 1t11.5 1q12 1 15 -11zM554 721q9 1 9 15q0 120 -3 240q0 10 -5 13q-18 -35 -65 -130.5t-75 -146.5q1 0 2 -2t1 -3q22 2 68 7t68 7z" />
    <glyph glyph-name="Aacute" unicode="&#xc1;" horiz-adv-x="837" 
d="M877 1769q2 -17 -9 -28q-34 -34 -75 -101q-14 -23 -28 -38q-11 -12 -22 -2q-15 12 -20 36q-3 17 -3 35q-1 29 4 132q2 24 6 46q4 18 8 28q8 17 28 16q16 -1 36 -14q48 -31 69 -83q5 -16 6 -27zM784 744q12 1 15 -11q7 -30 -20 -40q-25 -10 -29.5 -16t-3.5 -33
q2 -69 25 -428q5 -84 -2 -155q-5 -52 -36 -94q-42 -56 -120 -37q-6 2 -9 5q-2 2 -8.5 9.5t-8.5 10.5t-7.5 9.5t-7.5 11t-5 11t-5 13.5q-23 89 -18 181l12 258q1 28 2.5 82t2.5 82q0 12 -2 13.5t-14 -1.5q-161 -51 -209 -68q-17 -6 -25 -20q-74 -121 -131 -189
q-34 -40 -54 -57q-20 -16 -35 -22q-28 -10 -37 18q-6 20 -1 49q4 29 20 57q1 2 38 73q7 12 7 21q-63 -10 -74 -11q-8 -1 -25.5 -2t-18.5 -1q-23 -1 -32 20q-7 17 -8 22q-12 61 18 125q15 31 48 38q114 27 182 31q20 1 28 19q229 495 273 597q32 74 64 130q30 53 65 88
q22 22 47 33q48 20 71 -26q12 -23 12 -60q0 -11 -5 -96q-24 -364 -22 -507q0 -40 2 -118q0 -14 2 -16t16 -1q4 0 11.5 1t11.5 1zM554 721q9 1 9 15q0 120 -3 240q0 10 -5 13q-18 -35 -65 -130.5t-75 -146.5q1 0 2 -2t1 -3q22 2 68 7t68 7z" />
    <glyph glyph-name="Acircumflex" unicode="&#xc2;" horiz-adv-x="837" 
d="M863 1749q9 -44 -7 -97q-4 -14 -11 -31q-12 -26 -45 -26q-14 0 -26 10q-10 8 -17 25q-8 21 -29 93q-5 22 -12 37q-53 -72 -66 -99q-7 -14 -10 -17q-6 -8 -13 -6q-4 1 -7 11q-2 16 5 42q15 54 57 122q24 38 36 51q17 19 32 27q28 16 49 -7q11 -13 18 -25q35 -61 46 -110z
M784 744q12 1 15 -11q7 -30 -20 -40q-25 -10 -29.5 -16t-3.5 -33q2 -69 25 -428q5 -84 -2 -155q-5 -52 -36 -94q-42 -56 -120 -37q-6 2 -9 5q-2 2 -8.5 9.5t-8.5 10.5t-7.5 9.5t-7.5 11t-5 11t-5 13.5q-23 89 -18 181l12 258q1 28 2.5 82t2.5 82q0 12 -2 13.5t-14 -1.5
q-161 -51 -209 -68q-17 -6 -25 -20q-74 -121 -131 -189q-34 -40 -54 -57q-20 -16 -35 -22q-28 -10 -37 18q-6 20 -1 49q4 29 20 57q1 2 38 73q7 12 7 21q-63 -10 -74 -11q-8 -1 -25.5 -2t-18.5 -1q-23 -1 -32 20q-7 17 -8 22q-12 61 18 125q15 31 48 38q114 27 182 31
q20 1 28 19q229 495 273 597q32 74 64 130q30 53 65 88q22 22 47 33q48 20 71 -26q12 -23 12 -60q0 -11 -5 -96q-24 -364 -22 -507q0 -40 2 -118q0 -14 2 -16t16 -1q4 0 11.5 1t11.5 1zM554 721q9 1 9 15q0 120 -3 240q0 10 -5 13q-18 -35 -65 -130.5t-75 -146.5q1 0 2 -2
t1 -3q22 2 68 7t68 7z" />
    <glyph glyph-name="Atilde" unicode="&#xc3;" horiz-adv-x="837" 
d="M925 1794q3 -50 -23 -101q-16 -30 -40 -50q-37 -30 -80 -12q-22 9 -38 24q-6 5 -19 16.5t-20 17.5q-13 11 -25 18q-34 18 -58 -14q-2 -3 -2 -12q1 -17 -10 -32q-11 -14 -19 1q-6 10 -4 23q11 81 82 118q28 15 61 5q17 -5 44 -18q6 -3 18 -8.5t18 -8.5q12 -6 25 -9
q29 -5 44 16q14 21 17 31q1 5 4 16t5 16q2 9 5 13q5 5 7 5q1 0 4 -6q4 -14 4 -21v-28zM784 744q12 1 15 -11q7 -30 -20 -40q-25 -10 -29.5 -16t-3.5 -33q2 -69 25 -428q5 -84 -2 -155q-5 -52 -36 -94q-42 -56 -120 -37q-6 2 -9 5q-2 2 -8.5 9.5t-8.5 10.5t-7.5 9.5t-7.5 11
t-5 11t-5 13.5q-23 89 -18 181l12 258q1 28 2.5 82t2.5 82q0 12 -2 13.5t-14 -1.5q-161 -51 -209 -68q-15 -6 -24 -20q-71 -116 -132 -189q-34 -40 -54 -57q-20 -16 -35 -22q-28 -10 -37 18q-6 20 -1 49q4 29 20 57q1 2 38 73q7 12 7 21q-63 -10 -74 -11q-8 -1 -25.5 -2
t-18.5 -1q-23 -1 -32 20q-7 17 -8 22q-12 61 18 125q15 31 48 38q114 27 182 31q20 1 28 19q229 495 273 597q32 74 64 130q30 53 65 88q22 22 47 33q48 20 71 -26q12 -23 12 -60q0 -11 -5 -96q-24 -364 -22 -507q0 -40 2 -118q0 -14 2 -16t16 -1q4 0 11.5 1t11.5 1z
M554 721q9 1 9 15q0 120 -3 240q0 10 -5 13q-18 -35 -65 -130.5t-75 -146.5q1 0 2 -2t1 -3q22 2 68 7t68 7z" />
    <glyph glyph-name="Adieresis" unicode="&#xc4;" horiz-adv-x="837" 
d="M636 1640q-20 18 -27 49q-2 7 -2 22q3 69 45 111q34 33 75 -2q23 -20 26 -49q7 -64 -34 -110q-11 -11 -19 -14q-4 -1 -12 -9q-24 -23 -52 2zM916 1771q7 -64 -34 -110q-11 -11 -19 -14q-4 -1 -12 -9q-24 -23 -52 2q-20 18 -27 49q-2 7 -2 22q3 69 45 111q34 33 75 -2
q23 -20 26 -49zM784 744q12 1 15 -11q7 -30 -20 -40q-25 -10 -29.5 -16t-3.5 -33q2 -69 25 -428q5 -84 -2 -155q-5 -52 -36 -94q-42 -56 -120 -37q-6 2 -9 5q-2 2 -8.5 9.5t-8.5 10.5t-7.5 9.5t-7.5 11t-5 11t-5 13.5q-23 89 -18 181l12 258q1 28 2.5 82t2.5 82
q0 12 -2 13.5t-14 -1.5q-161 -51 -209 -68q-17 -6 -25 -20q-74 -121 -131 -189q-34 -40 -54 -57q-20 -16 -35 -22q-28 -10 -37 18q-6 20 -1 49q4 29 20 57q1 2 38 73q7 12 7 21q-63 -10 -74 -11q-8 -1 -25.5 -2t-18.5 -1q-23 -1 -32 20q-7 17 -8 22q-12 61 18 125
q15 31 48 38q114 27 182 31q20 1 28 19q229 495 273 597q32 74 64 130q30 53 65 88q22 22 47 33q48 20 71 -26q12 -23 12 -60q0 -11 -5 -96q-24 -364 -22 -507q0 -40 2 -118q0 -14 2 -16t16 -1q4 0 11.5 1t11.5 1zM554 721q9 1 9 15q0 120 -3 240q0 10 -5 13
q-18 -35 -65 -130.5t-75 -146.5q1 0 2 -2t1 -3q22 2 68 7t68 7z" />
    <glyph glyph-name="Aring" unicode="&#xc5;" horiz-adv-x="837" 
d="M657 1613q-15 21 -17 51q-4 73 40 147q7 11 7 19q0 16 15 35q11 14 37 36q5 3 10 5q23 9 35 -11q11 -17 15 -50q2 -26 2 -33q-1 -79 -22 -146q-10 -30 -18 -44q-1 -1 -8 -11q-16 -22 -35.5 -26t-34.5 4t-26 24zM706 1788q-24 -39 -18 -73q5 -29 34 -37q14 -4 15 11
q3 22 1 49q-2 15 -9 22q-16 16 -23 28zM784 744q12 1 15 -11q7 -30 -20 -40q-25 -10 -29.5 -16t-3.5 -33q2 -69 25 -428q5 -84 -2 -155q-5 -52 -36 -94q-42 -56 -120 -37q-6 2 -9 5q-2 2 -8.5 9.5t-8.5 10.5t-7.5 9.5t-7.5 11t-5 11t-5 13.5q-23 89 -18 181l12 258
q1 28 2.5 82t2.5 82q0 12 -2 13.5t-14 -1.5q-161 -51 -209 -68q-17 -6 -25 -20q-74 -121 -131 -189q-34 -40 -54 -57q-20 -16 -35 -22q-28 -10 -37 18q-6 20 -1 49q4 29 20 57q1 2 38 73q7 12 7 21q-63 -10 -74 -11q-8 -1 -25.5 -2t-18.5 -1q-23 -1 -32 20q-7 17 -8 22
q-12 61 18 125q15 31 48 38q114 27 182 31q20 1 28 19q229 495 273 597q32 74 64 130q30 53 65 88q22 22 47 33q48 20 71 -26q12 -23 12 -60q0 -11 -5 -96q-24 -364 -22 -507q0 -40 2 -118q0 -14 2 -16t16 -1q4 0 11.5 1t11.5 1zM554 721q9 1 9 15q0 120 -3 240q0 10 -5 13
q-18 -35 -65 -130.5t-75 -146.5q1 0 2 -2t1 -3q22 2 68 7t68 7z" />
    <glyph glyph-name="AE" unicode="&#xc6;" horiz-adv-x="1642" 
d="M1638 1354q16 2 22 -2.5t5 -20.5q-3 -49 -40 -77q-19 -14 -40 -25q-96 -50 -235 -91q-149 -45 -283 -63q-14 -1 -20 -15q-34 -71 -101 -146q-17 -20 -37 -42t-45 -48.5t-38 -41.5q-4 -4 -12 -12.5t-12 -13.5q24 0 70 11q73 18 243 78q154 54 180 62q23 7 30 7
q21 0 25 -19q5 -19 -2 -45q-10 -42 -43 -77q-34 -34 -100 -83q-51 -37 -155 -111q-20 -14 -28 -22q-103 -105 -190 -185q-1 -1 -4 -3.5t-5 -4.5q6 -3 25 0q34 7 102.5 20.5t102.5 20.5q213 42 424 75q50 8 130 10q14 0 19.5 -5t4.5 -18q-2 -44 -33 -65q-72 -47 -139 -64
q-140 -36 -686 -183q0 -53 -4 -94q-5 -52 -36 -94q-42 -56 -120 -37q-6 2 -9 5q-2 2 -8.5 9.5t-8.5 10.5t-7.5 9.5t-7.5 11t-5 11t-5 13.5q-23 89 -18 181l12 258q1 28 2.5 82t2.5 82q0 12 -2 13.5t-14 -1.5q-161 -51 -209 -68q-17 -6 -25 -20q-74 -121 -131 -189
q-34 -40 -54 -57q-20 -16 -35 -22q-28 -10 -37 18q-6 20 -1 49q4 29 20 57q1 2 38 73q7 12 7 21q-63 -10 -74 -11q-8 -1 -25.5 -2t-18.5 -1q-23 -1 -32 20q-7 17 -8 22q-12 61 18 125q15 31 48 38q114 27 182 31q20 1 28 19q229 495 273 597q32 74 64 130q30 53 65 88
q22 22 47 33q48 20 71 -26q12 -23 12 -60q0 -11 -5 -96q-24 -364 -22 -507q0 -9 0.5 -26t0.5 -25q19 30 37 55q14 19 57 76t65 89q11 15 13 22q-8 3 -22 7q-34 12 -46 45q-11 29 -7 76q7 82 53 155q15 24 32 39q46 41 94 9q22 -14 60 -21q117 -21 307 -28q124 -4 207 0
q32 2 46 4zM554 721q9 1 9 15q0 120 -3 240q0 10 -5 13q-18 -35 -65 -130.5t-75 -146.5q1 0 2 -2t1 -3q22 2 68 7t68 7zM853 654q-66 -20 -101 -23q-1 0 -2.5 -0.5t-2.5 -0.5q1 -8 1 -23t1 -22q19 11 56 32t55 32q2 1 7 4.5t9 5.5q-4 0 -23 -5z" />
    <glyph glyph-name="Ccedilla" unicode="&#xc7;" horiz-adv-x="937" 
d="M953 675q1 -10 -4 -22q-6 -15 -22 -33q-117 -134 -284 -275q-110 -92 -153 -124q-77 -57 -150 -87q-46 -18 -84 -22q-8 -20 -16 -44q-4 -11 -2 -13t13 -3q73 -3 83 -4q101 -15 103 -117q3 -125 -93 -187q-51 -33 -109 -21q-57 11 -110 30q-23 9 -49 28q-12 9 -9 23
q2 9 4.5 11t11.5 1q72 -10 126 3q53 12 132 59q1 1 2 5q-18 8 -65 10q-51 2 -62 4q-24 4 -36.5 15t-18.5 35q-9 43 4 95q9 35 24 70q-1 0 -3.5 0.5t-3.5 0.5q-119 18 -176 130q-46 90 -41 197q3 133 65 276q124 285 374 498q53 45 113 73q40 19 74 19q53 0 62 -53
q5 -31 -3 -68q-17 -78 -66 -151q-15 -23 -35 -35q-15 -9 -24 -3t-7 23q0 3 2 9t2 9q0 2 2 10t2 12q0 17 -10 24t-26 2q-9 -3 -20 -10q-21 -13 -36 -28q-164 -158 -243 -352q-35 -82 -25 -158q6 -52 41.5 -85.5t87.5 -37.5q43 -2 113 13q166 34 266 91q138 77 243 154
q12 8 19 12q15 8 17 -9z" />
    <glyph glyph-name="Egrave" unicode="&#xc8;" horiz-adv-x="833" 
d="M631 1349q-39 64 -75 100q-12 11 -10 28q1 6 7 27q22 53 69 84q20 13 36 14q19 1 27 -16q6 -14 9 -28q4 -22 6 -46q5 -103 4 -132q0 -18 -3 -35q-5 -24 -20 -36q-12 -11 -23 2q-11 12 -27 38zM734 402q33 -23 45 -53q6 -15 -0.5 -35.5t-19.5 -28.5q-6 -4 -16 -2
q-125 23 -254 -17q-17 -5 -48.5 -15t-51.5 -16t-47.5 -13.5t-51.5 -11.5q-33 -6 -131 -27t-152 -28q-26 -3 -47 -2q-27 3 -31 28q-2 13 -1 20q4 66 48 117q10 10 12 11q16 5 28 33l33 75q-5 3 -15 0q-24 -10 -36 -14q-22 -8 -32 -1t-7 29q12 100 89 135q146 68 220 100
q109 46 236 63q19 3 53.5 8.5t63 9.5t53.5 6q39 4 62 -3q10 -3 12 -7t-2 -14q-6 -16 -22 -20q-161 -43 -342 -141q-84 -46 -163 -77q-15 -5 -21 -21q-15 -38 -30 -71q4 -1 7.5 0t7.5 3l6 3q112 45 198 65q100 23 194 -16q16 -6 47.5 -20t47.5 -20q36 -16 58 -32zM892 1234
q2 -13 -2 -35q-18 -85 -76 -132q-94 -76 -123 -101q-10 -8 -11 -10q-2 -6 -6 -10.5t-7.5 -6.5t-10.5 -4.5t-10 -3.5q-14 -7 -17 9q-2 18 2 29q0 2 1.5 7.5t2.5 8.5q-4 0 -8 -1.5t-8 -4t-6 -3.5q-185 -98 -292 -148q-23 -11 -44 -17q-25 -6 -48 -2q-50 8 -53 59q-2 30 16 70
q21 46 54 83q45 53 102 90q27 19 52 27q251 88 407 124q27 7 48 6q31 -1 37 -34z" />
    <glyph glyph-name="Eacute" unicode="&#xc9;" horiz-adv-x="833" 
d="M617 1345q-3 16 -3 35q-1 29 4 132q2 24 6 46q4 18 8 28q8 17 28 16q16 -1 36 -14q47 -31 69 -84q5 -16 6 -27q2 -17 -9 -28q-38 -38 -76 -100q-16 -26 -27 -38q-11 -13 -23 -2q-14 11 -19 36zM734 402q33 -23 45 -53q6 -15 -0.5 -35.5t-19.5 -28.5q-6 -4 -16 -2
q-125 23 -254 -17q-17 -5 -48.5 -15t-51.5 -16t-47.5 -13.5t-51.5 -11.5q-33 -6 -131 -27t-152 -28q-26 -3 -47 -2q-27 3 -31 28q-2 13 -1 20q4 66 48 117q10 10 12 11q16 5 28 33l33 75q-5 3 -15 0q-24 -10 -36 -14q-22 -8 -32 -1t-7 29q12 100 89 135q146 68 220 100
q109 46 236 63q19 3 53.5 8.5t63 9.5t53.5 6q39 4 62 -3q10 -3 12 -7t-2 -14q-6 -16 -22 -20q-161 -43 -342 -141q-84 -46 -163 -77q-15 -5 -21 -21q-15 -38 -30 -71q4 -1 7.5 0t7.5 3l6 3q112 45 198 65q100 23 194 -16q16 -6 47.5 -20t47.5 -20q36 -16 58 -32zM892 1234
q2 -13 -2 -35q-18 -85 -76 -132q-94 -76 -123 -101q-10 -8 -11 -10q-2 -6 -6 -10.5t-7.5 -6.5t-10.5 -4.5t-10 -3.5q-14 -7 -17 9q-2 18 2 29q0 2 1.5 7.5t2.5 8.5q-4 0 -8 -1.5t-8 -4t-6 -3.5q-185 -98 -292 -148q-23 -11 -44 -17q-25 -6 -48 -2q-50 8 -53 59q-2 30 16 70
q21 46 54 83q45 53 102 90q27 19 52 27q251 88 407 124q27 7 48 6q31 -1 37 -34z" />
    <glyph glyph-name="Ecircumflex" unicode="&#xca;" horiz-adv-x="835" 
d="M541 1347q-4 1 -7 11q-2 16 5 42q15 54 57 122q24 38 36 51q17 19 32 27q28 16 49 -7q11 -13 18 -25q35 -61 46 -110q9 -44 -7 -97q-4 -14 -11 -31q-12 -26 -45 -26q-14 0 -26 10q-10 8 -17 25q-8 21 -29 93q-5 22 -12 37q-53 -72 -66 -99q-7 -14 -10 -17q-6 -8 -13 -6z
M734 402q33 -23 45 -53q6 -15 -0.5 -35.5t-19.5 -28.5q-6 -4 -16 -2q-125 23 -254 -17q-17 -5 -48.5 -15t-51.5 -16t-47.5 -13.5t-51.5 -11.5q-33 -6 -131 -27t-152 -28q-26 -3 -47 -2q-27 3 -31 28q-2 13 -1 20q4 66 48 117q10 10 12 11q16 5 28 33l33 75q-5 3 -15 0
q-24 -10 -36 -14q-22 -8 -32 -1t-7 29q12 100 89 135q146 68 220 100q109 46 236 63q19 3 53.5 8.5t63 9.5t53.5 6q39 4 62 -3q10 -3 12 -7t-2 -14q-6 -16 -22 -20q-161 -43 -342 -141q-84 -46 -163 -77q-15 -5 -21 -21q-15 -38 -30 -71q4 -1 7.5 0t7.5 3l6 3q112 45 198 65
q100 23 194 -16q16 -6 47.5 -20t47.5 -20q36 -16 58 -32zM892 1234q2 -13 -2 -35q-18 -85 -76 -132q-94 -76 -123 -101q-10 -8 -11 -10q-2 -6 -6 -10.5t-7.5 -6.5t-10.5 -4.5t-10 -3.5q-14 -7 -17 9q-2 18 2 29q0 2 1.5 7.5t2.5 8.5q-4 0 -8 -1.5t-8 -4t-6 -3.5
q-185 -98 -292 -148q-23 -11 -44 -17q-25 -6 -48 -2q-50 8 -53 59q-2 30 16 70q21 46 54 83q45 53 102 90q27 19 52 27q251 88 407 124q27 7 48 6q31 -1 37 -34z" />
    <glyph glyph-name="Edieresis" unicode="&#xcb;" horiz-adv-x="833" 
d="M487 1349q-20 18 -27 49q-2 7 -2 21q3 70 45 112q34 33 75 -2q23 -20 26 -49q7 -65 -34 -111q-9 -9 -19 -13q-4 -1 -12 -9q-24 -23 -52 2zM650 1349q-20 18 -27 49q-2 7 -2 21q3 70 45 112q34 33 75 -2q22 -19 25 -49q7 -66 -33 -111q-9 -9 -19 -13q-4 -1 -12 -9
q-24 -23 -52 2zM734 402q33 -23 45 -53q6 -15 -0.5 -35.5t-19.5 -28.5q-6 -4 -16 -2q-125 23 -254 -17q-17 -5 -48.5 -15t-51.5 -16t-47.5 -13.5t-51.5 -11.5q-33 -6 -131 -27t-152 -28q-26 -3 -47 -2q-27 3 -31 28q-2 13 -1 20q4 66 48 117q10 10 12 11q16 5 28 33l33 75
q-5 3 -15 0q-24 -10 -36 -14q-22 -8 -32 -1t-7 29q12 100 89 135q146 68 220 100q109 46 236 63q19 3 53.5 8.5t63 9.5t53.5 6q39 4 62 -3q10 -3 12 -7t-2 -14q-6 -16 -22 -20q-161 -43 -342 -141q-84 -46 -163 -77q-15 -5 -21 -21q-15 -38 -30 -71q4 -1 7.5 0t7.5 3l6 3
q112 45 198 65q100 23 194 -16q16 -6 47.5 -20t47.5 -20q36 -16 58 -32zM892 1234q2 -13 -2 -35q-18 -85 -76 -132q-94 -76 -123 -101q-10 -8 -11 -10q-2 -6 -6 -10.5t-7.5 -6.5t-10.5 -4.5t-10 -3.5q-14 -7 -17 9q-2 18 2 29q0 2 1.5 7.5t2.5 8.5q-4 0 -8 -1.5t-8 -4
t-6 -3.5q-185 -98 -292 -148q-23 -11 -44 -17q-25 -6 -48 -2q-50 8 -53 59q-2 30 16 70q21 46 54 83q45 53 102 90q27 19 52 27q251 88 407 124q27 7 48 6q31 -1 37 -34z" />
    <glyph glyph-name="Igrave" unicode="&#xcc;" horiz-adv-x="849" 
d="M610 1349q-39 64 -75 100q-11 11 -10 28q1 6 7 27q22 53 69 84q20 13 36 14q20 1 28 -16q4 -10 8 -28q4 -22 6 -46q5 -103 4 -132q0 -18 -3 -35q-5 -24 -20 -36q-12 -11 -23 2q-11 12 -27 38zM919 1215q6 -21 -11.5 -49t-39.5 -35q-14 -5 -19 6t-21 15q-27 6 -51 -2
q-14 -5 -41.5 -14t-41.5 -13q-11 -3 -18 -18q-10 -23 -30.5 -67.5t-30.5 -66.5q-32 -75 -98.5 -209t-90.5 -185q-3 -7 -9 -20t-9 -20q5 -2 6.5 -2.5t5.5 2.5t5 3q65 25 86 29q82 12 120 -62q6 -11 16 -33q26 -60 -5 -122q-8 -14 -14 -20q-8 -8 -12.5 -7.5t-11.5 9.5
q-24 27 -63 15q-17 -5 -59 -24q-50 -22 -104 -34q-95 -21 -193 -74q-109 -59 -210 -140q-8 -7 -14 -17q-10 -17 -25 -22q-23 -9 -29 16q-6 22 1 49q9 39 42 85q29 41 118 119q101 88 229 164q20 12 23 35l12 111q15 86 39 153q68 192 114 289q1 1 3 5.5t3 7.5
q-13 -2 -49 -14q-53 -18 -212 -82q-24 -10 -37 -14q-20 -6 -29 5q-7 9 -1 28q7 21 28 43t55 46q129 93 311 164q119 46 189 60q49 9 93 -2q61 -15 80 -91z" />
    <glyph glyph-name="Iacute" unicode="&#xcd;" horiz-adv-x="849" 
d="M528 1345q-4 22 -4 35q-1 29 4 132q2 24 6 46q3 14 9 28q8 17 27 16q16 -1 36 -14q49 -32 70 -84q5 -16 6 -27q2 -17 -10 -28q-36 -36 -75 -100q-16 -26 -27 -38q-11 -13 -23 -2q-14 11 -19 36zM919 1215q6 -21 -11.5 -49t-39.5 -35q-14 -5 -19 6t-21 15q-27 6 -51 -2
q-14 -5 -41.5 -14t-41.5 -13q-11 -3 -18 -18q-10 -23 -30.5 -67.5t-30.5 -66.5q-32 -75 -98.5 -209t-90.5 -185q-3 -7 -9 -20t-9 -20q5 -2 6.5 -2.5t5.5 2.5t5 3q65 25 86 29q82 12 120 -62q6 -11 16 -33q26 -60 -5 -122q-8 -14 -14 -20q-8 -8 -12.5 -7.5t-11.5 9.5
q-24 27 -63 15q-17 -5 -59 -24q-50 -22 -104 -34q-95 -21 -193 -74q-109 -59 -210 -140q-8 -7 -14 -17q-10 -17 -25 -22q-23 -9 -29 16q-6 22 1 49q9 39 42 85q29 41 118 119q101 88 229 164q20 12 23 35l12 111q15 86 39 153q68 192 114 289q1 1 3 5.5t3 7.5
q-13 -2 -49 -14q-53 -18 -212 -82q-24 -10 -37 -14q-20 -6 -29 5q-7 9 -1 28q7 21 28 43t55 46q129 93 311 164q119 46 189 60q49 9 93 -2q61 -15 80 -91z" />
    <glyph glyph-name="Icircumflex" unicode="&#xce;" horiz-adv-x="849" 
d="M919 1215q6 -21 -11.5 -49t-39.5 -35q-14 -5 -19 6t-21 15q-27 6 -51 -2q-14 -5 -41.5 -14t-41.5 -13q-11 -3 -18 -18q-10 -23 -30.5 -67.5t-30.5 -66.5q-32 -75 -98.5 -209t-90.5 -185q-3 -7 -9 -20t-9 -20q5 -2 6.5 -2.5t5.5 2.5t5 3q65 25 86 29q82 12 120 -62
q6 -11 16 -33q26 -60 -5 -122q-8 -14 -14 -20q-8 -8 -12.5 -7.5t-11.5 9.5q-24 27 -63 15q-17 -5 -59 -24q-50 -22 -104 -34q-95 -21 -193 -74q-109 -59 -210 -140q-8 -7 -14 -17q-10 -17 -25 -22q-23 -9 -29 16q-6 22 1 49q9 39 42 85q29 41 118 119q101 88 229 164
q20 12 23 35l12 111q15 86 39 153q68 192 114 289q1 1 3 5.5t3 7.5q-13 -2 -49 -14q-53 -18 -212 -82q-24 -10 -37 -14q-20 -6 -29 5q-7 9 -1 28q7 21 28 43t55 46q129 93 311 164q105 41 172 56h-1q-13 0 -25 10q-10 8 -17 25q-8 21 -29 93q-4 16 -13 37q-53 -72 -66 -99
q-8 -16 -9 -17q-6 -9 -14 -6q-4 1 -7 11q-2 16 5 42q15 54 57 122q22 33 37 51q18 20 31 27q29 17 50 -7q9 -10 17 -25q36 -63 47 -110q9 -43 -8 -97q-7 -24 -10 -31q-6 -14 -19 -21q42 7 84 -3q61 -15 80 -91z" />
    <glyph glyph-name="Idieresis" unicode="&#xcf;" horiz-adv-x="849" 
d="M575 1349q-22 19 -28 49q-2 7 -2 21q3 69 46 112q34 33 75 -2q22 -19 25 -49q7 -65 -34 -111q-10 -10 -18 -13q-5 -1 -13 -9q-24 -22 -51 2zM738 1349q-22 19 -28 49q-2 7 -2 21q3 69 46 112q34 33 75 -2q22 -19 25 -49q7 -65 -34 -111q-10 -10 -18 -13q-5 -1 -13 -9
q-24 -22 -51 2zM919 1215q6 -21 -11.5 -49t-39.5 -35q-14 -5 -19 6t-21 15q-27 6 -51 -2q-14 -5 -41.5 -14t-41.5 -13q-11 -3 -18 -18q-10 -23 -30.5 -67.5t-30.5 -66.5q-32 -75 -98.5 -209t-90.5 -185q-3 -7 -9 -20t-9 -20q5 -2 6.5 -2.5t5.5 2.5t5 3q65 25 86 29
q82 12 120 -62q6 -11 16 -33q26 -60 -5 -122q-8 -14 -14 -20q-8 -8 -12.5 -7.5t-11.5 9.5q-24 27 -63 15q-17 -5 -59 -24q-50 -22 -104 -34q-95 -21 -193 -74q-109 -59 -210 -140q-8 -7 -14 -17q-10 -17 -25 -22q-23 -9 -29 16q-6 22 1 49q9 39 42 85q29 41 118 119
q101 88 229 164q20 12 23 35l12 111q15 86 39 153q68 192 114 289q1 1 3 5.5t3 7.5q-13 -2 -49 -14q-53 -18 -212 -82q-24 -10 -37 -14q-20 -6 -29 5q-7 9 -1 28q7 21 28 43t55 46q129 93 311 164q119 46 189 60q49 9 93 -2q61 -15 80 -91z" />
    <glyph glyph-name="Eth" unicode="&#xd0;" horiz-adv-x="1384" 
d="M1354 1332q108 -51 90 -168q-13 -86 -66 -185q-74 -139 -220 -292q-67 -71 -210 -178q-167 -125 -384 -228q-160 -76 -360 -136q-36 -11 -104.5 -28.5t-97.5 -25.5q-38 -11 -50 -14q-38 -10 -38 30q0 23 8 47q21 63 64 112q20 24 50 32q41 11 105 37q15 7 17 18
q5 29 12.5 61t13.5 56t17.5 61.5t17.5 55.5t20.5 60.5t18.5 56.5q2 8 7 23t7 22q-18 1 -54 5q-34 5 -42 8q-25 9 -11 34q10 16 27 28q21 16 57 27q5 1 59 15q38 132 56 199q2 9 27 94q2 9 1 12q-4 2 -22 2q-22 1 -66.5 1t-66.5 1q-3 0 -7 0.5t-7 0.5q-9 2 -6 11q9 28 34 39
q52 21 127 42q4 1 26.5 6.5t33.5 10.5q8 4 14 12t11.5 19.5t9.5 16.5q18 23 33 37q10 10 23 16q31 15 45 -17q4 -11 6 -27q1 -14 4 -16t16 2q70 19 113 28q73 16 220 22q183 6 290 -10q61 -8 104 -25q9 -3 27 -11zM1134 948q10 10 6 22q-11 36 -41 66q-41 43 -109 69
q-79 30 -197 39q-24 2 -85.5 3.5t-94.5 4.5q-30 2 -43 4q-11 1 -14 -10q-2 -9 -6.5 -25t-5.5 -19q-40 -138 -61 -207q4 1 11 1t11 1q25 2 42 -2q22 -4 29 -18t-2 -34q-8 -18 -19 -29q-49 -52 -119 -70q-15 -49 -46 -146t-46 -145q-5 -21 -5 -24q2 0 15 5q128 66 292 165
q227 138 378 254q57 45 110 95z" />
    <glyph glyph-name="Ntilde" unicode="&#xd1;" horiz-adv-x="864" 
d="M495 1537q-11 -14 -19 1q-6 10 -4 23q11 81 82 118q28 15 61 5q17 -5 44 -18q6 -3 18 -8.5t18 -8.5q12 -6 25 -9q28 -5 43 16q14 21 17 31q2 6 5 16.5t4 15.5q1 7 6 13q5 5 7 5q1 0 4 -6q4 -14 4 -22v-27q3 -50 -23 -101q-16 -30 -40 -50q-37 -30 -81 -12q-22 9 -38 24
q-6 6 -18.5 17.5t-19.5 16.5q-13 11 -25 18q-34 18 -58 -14q-2 -3 -2 -12q1 -17 -10 -32zM903 1470q3 -45 -1 -163q-6 -104 -6 -106q-5 -290 -84 -538q-6 -19 -39.5 -132.5t-55.5 -172.5q-45 -121 -82 -197q-33 -69 -78 -114q-22 -22 -45 -34q-52 -27 -102 3q-36 22 -63 62
q-45 65 -70 159q-32 119 -41 282q0 1 -3 110q0 11 -4 14q-1 -2 -10 -22q-107 -259 -133 -322q-47 -112 -79 -174q-11 -23 -22 -40q-4 -8 -13 -18q-23 -26 -39 6q-7 15 -8 27q-3 36 5 66q9 35 27 104.5t28 103.5q41 156 157 513q108 334 134 407q20 57 39 90q23 38 43 55
q23 20 47 16.5t41 -28.5q15 -22 22 -52q16 -68 6 -154q-1 -11 -33 -259q-32 -264 -27 -449q2 -47 7 -89q9 6 18 27q75 159 89 198q12 32 57 145.5t66 177.5q51 157 133 292q27 43 56 157q16 63 19 98q2 14 4 20q6 15 15 15q7 0 12 -15q10 -31 13 -69z" />
    <glyph glyph-name="Ograve" unicode="&#xd2;" horiz-adv-x="749" 
d="M544 1407q-39 64 -75 100q-11 11 -10 28q1 6 7 27q21 52 69 83q20 13 36 14q20 1 28 -16q4 -10 8 -28q4 -22 6 -46q5 -103 4 -132q0 -19 -3 -35q-5 -24 -20 -36q-12 -11 -23 2q-9 10 -27 39zM765 1073q22 -155 -25 -341q-56 -230 -187 -405q-59 -79 -133 -133
q-68 -49 -130 -62q-120 -26 -207 60q-66 66 -94 175q-40 159 11 344q74 269 268 483q13 15 17 30q10 36 43 49q72 27 177 22q13 -1 48.5 -1.5t55.5 -3.5q79 -10 117 -82q26 -50 39 -135zM571 684q25 100 -17 191q-12 27 -74 155q-24 50 -90 98q-8 6 -17 2q-15 -6 -33 -27
q-107 -134 -161 -290q-30 -83 -27 -157q-4 -67 24 -135q15 -38 43 -66q50 -48 117 -38q58 8 111 56q93 83 124 211z" />
    <glyph glyph-name="Oacute" unicode="&#xd3;" horiz-adv-x="749" 
d="M537 1402q-3 16 -3 35q-1 29 4 132q2 24 6 46q4 18 8 28q8 17 28 16q16 -1 36 -14q48 -31 69 -83q6 -21 7 -27q2 -17 -10 -28q-36 -36 -75 -100q-18 -29 -27 -39q-11 -13 -23 -2q-15 12 -20 36zM765 1073q22 -155 -25 -341q-56 -230 -187 -405q-59 -79 -133 -133
q-68 -49 -130 -62q-120 -26 -207 60q-66 66 -94 175q-40 159 11 344q74 269 268 483q13 15 17 30q10 36 43 49q72 27 177 22q13 -1 48.5 -1.5t55.5 -3.5q79 -10 117 -82q26 -50 39 -135zM571 684q25 100 -17 191q-12 27 -74 155q-24 50 -90 98q-8 6 -17 2q-15 -6 -33 -27
q-107 -134 -161 -290q-30 -83 -27 -157q-4 -67 24 -135q15 -38 43 -66q50 -48 117 -38q58 8 111 56q93 83 124 211z" />
    <glyph glyph-name="Ocircumflex" unicode="&#xd4;" horiz-adv-x="749" 
d="M463 1404q-4 1 -7 11q-2 16 5 42q14 51 58 122q24 38 36 51q17 19 32 27q28 16 49 -7q9 -10 17 -25q36 -63 47 -110q9 -43 -8 -97q-7 -24 -10 -31q-12 -26 -46 -26q-13 0 -25 10q-10 8 -17 25q-8 21 -29 93q-4 16 -13 37q-50 -68 -65 -99q-6 -12 -10 -16q-7 -9 -14 -7z
M765 1073q22 -155 -25 -341q-56 -230 -187 -405q-59 -79 -133 -133q-68 -49 -130 -62q-120 -26 -207 60q-66 66 -94 175q-40 159 11 344q74 269 268 483q13 15 17 30q10 36 43 49q72 27 177 22q13 -1 48.5 -1.5t55.5 -3.5q79 -10 117 -82q26 -50 39 -135zM571 684
q25 100 -17 191q-12 27 -74 155q-24 50 -90 98q-8 6 -17 2q-15 -6 -33 -27q-107 -134 -161 -290q-30 -83 -27 -157q-4 -67 24 -135q15 -38 43 -66q50 -48 117 -38q58 8 111 56q93 83 124 211z" />
    <glyph glyph-name="Otilde" unicode="&#xd5;" horiz-adv-x="749" 
d="M389 1411q-11 -14 -19 1q-6 10 -4 23q11 81 82 118q28 15 61 5q17 -5 44 -18q6 -3 18 -8.5t18 -8.5q12 -6 25 -9q28 -5 43 16q14 21 17 31q1 6 4 16t5 16q2 9 5 13q5 5 7 5q2 -1 5 -6q3 -11 3 -21q0 -4 0.5 -13t0.5 -15q3 -50 -23 -101q-16 -30 -40 -50q-37 -30 -81 -12
q-22 9 -38 24q-6 6 -18.5 17.5t-19.5 16.5q-13 11 -25 18q-34 18 -58 -14q-3 -4 -3 -12q2 -18 -9 -32zM765 1073q22 -155 -25 -341q-56 -230 -187 -405q-59 -79 -133 -133q-68 -49 -130 -62q-120 -26 -207 60q-66 66 -94 175q-40 159 11 344q74 269 268 483q13 15 17 30
q10 36 43 49q72 27 177 22q13 -1 48.5 -1.5t55.5 -3.5q79 -10 117 -82q26 -50 39 -135zM571 684q25 100 -17 191q-12 27 -74 155q-24 50 -90 98q-8 6 -17 2q-15 -6 -33 -27q-107 -134 -161 -290q-30 -83 -27 -157q-4 -67 24 -135q15 -38 43 -66q50 -48 117 -38q58 8 111 56
q93 83 124 211z" />
    <glyph glyph-name="Odieresis" unicode="&#xd6;" horiz-adv-x="749" 
d="M454 1407q-21 18 -27 48q-2 7 -2 22q3 69 45 111q34 33 75 -2q23 -20 26 -49q7 -64 -34 -110q-9 -9 -19 -13q-2 0 -12 -10q-24 -22 -52 3zM617 1407q-21 18 -27 48q-2 7 -2 22q3 69 45 111q34 33 75 -2q22 -19 25 -49q7 -65 -33 -110q-9 -9 -19 -13q-3 0 -12 -10
q-24 -22 -52 3zM765 1073q22 -155 -25 -341q-56 -230 -187 -405q-59 -79 -133 -133q-68 -49 -130 -62q-120 -26 -207 60q-66 66 -94 175q-40 159 11 344q74 269 268 483q13 15 17 30q10 36 43 49q72 27 177 22q13 -1 48.5 -1.5t55.5 -3.5q79 -10 117 -82q26 -50 39 -135z
M571 684q25 100 -17 191q-12 27 -74 155q-24 50 -90 98q-8 6 -17 2q-15 -6 -33 -27q-107 -134 -161 -290q-30 -83 -27 -157q-4 -67 24 -135q15 -38 43 -66q50 -48 117 -38q58 8 111 56q93 83 124 211z" />
    <glyph glyph-name="multiply" unicode="&#xd7;" horiz-adv-x="653" 
d="M618 943q21 -19 18.5 -46t-27.5 -41q-21 -12 -32 -26q-24 -28 -51 -54q-30 -28 -59 -46q42 -49 68 -143q4 -16 27 -64q13 -30 11 -50q-7 -47 -48 -39q-18 3 -54 -1q-71 -9 -119 40q-42 44 -102 114q-9 11 -12.5 11.5t-15.5 -8.5q-88 -62 -137 -103q-37 -31 -51 -55
q-1 -2 -4 -5q-7 -9 -15 -7q-8 3 -10 15q-3 21 1 39q6 25 32 69q39 62 109 138q11 11 11 14t-11 16q-9 10 -25.5 31.5t-24.5 32.5q-22 28 -16 66q7 42 26 69q22 30 58 20q26 -8 57 -25q39 -21 81 -50q16 -10 17.5 -9.5t15.5 10.5q92 71 134 97q36 22 58 26q44 8 73 -21
q5 -5 17 -15z" />
    <glyph glyph-name="Oslash" unicode="&#xd8;" horiz-adv-x="753" 
d="M767 1073q22 -155 -25 -341q-56 -230 -187 -405q-59 -79 -133 -133q-68 -49 -130 -62q-37 -8 -68 -5q-5 -12 -17 -36q-13 -25 -27 -41q-10 -12 -21 -20q-41 -30 -65 16q-11 21 -15 56q-1 0 -1 13l1 13q0 32 6 64q-65 65 -93 175q-40 161 10 344q74 269 268 483
q13 15 17 30q10 36 43 49q72 27 177 22q3 0 8 -0.5t7 -0.5q13 36 31 66q15 25 29 35q16 12 27 6t13 -24q3 -31 -8 -55q-3 -6 -13 -31q1 0 5 -0.5t5 -0.5q79 -10 117 -82q26 -50 39 -135zM254 603q138 330 193 478q-23 25 -55 47q-8 6 -17 2q-15 -6 -33 -27
q-107 -134 -161 -290q-30 -83 -27 -157q-4 -67 24 -135q9 -22 22 -41q6 14 17 38.5t20 45t17 39.5zM573 684q25 100 -17 191q-27 58 -49 103q-23 -74 -67.5 -211t-56.5 -174l-57 -177q8 0 12 1q59 8 112 56q92 82 123 211z" />
    <glyph glyph-name="Ugrave" unicode="&#xd9;" horiz-adv-x="763" 
d="M497 1407q-38 62 -76 100q-11 11 -9 28q1 11 6 27q21 52 69 83q20 13 37 14q19 1 27 -16q4 -10 8 -28q6 -30 7 -46q4 -88 3 -132q0 -19 -3 -35q-5 -25 -19 -36q-12 -11 -23 2q-9 10 -27 39zM787 1121q10 -73 -9 -196q-39 -266 -128 -497q-58 -151 -132 -260
q-46 -68 -93 -110q-30 -27 -62 -42q-73 -36 -145 3q-51 27 -95 87q-62 84 -90 205q-35 153 -33 311q-3 289 112 606q18 51 42 87q18 26 35 38q37 25 59 -14q9 -16 13 -52q3 -32 -6 -111l-27 -264q-1 -10 -9 -75t-10 -100q-6 -98 2 -155q7 -49 23 -86q19 -45 65 -27
q20 7 43 29q37 35 68 88q100 166 157 342q24 72 38 138q12 58 38 113q8 16 20 87q5 30 9 86q2 31 13 50q16 26 36 3q13 -16 24 -50q13 -40 19 -85q20 -128 23 -149z" />
    <glyph glyph-name="Uacute" unicode="&#xda;" horiz-adv-x="763" 
d="M380 1402q-3 16 -3 35q-1 29 4 132q2 24 6 46q4 18 8 28q8 17 28 16q16 -1 36 -14q48 -31 69 -83q6 -21 7 -27q1 -17 -10 -28q-36 -36 -75 -100q-18 -29 -27 -39q-11 -13 -23 -2q-15 12 -20 36zM787 1121q10 -73 -9 -196q-39 -266 -128 -497q-58 -151 -132 -260
q-46 -68 -93 -110q-30 -27 -62 -42q-73 -36 -145 3q-51 27 -95 87q-62 84 -90 205q-35 153 -33 311q-3 289 112 606q18 51 42 87q18 26 35 38q37 24 58 -14q10 -18 14 -52q3 -32 -6 -111l-27 -264q-1 -10 -9 -75t-10 -100q-6 -98 2 -155q7 -49 23 -86q19 -45 65 -27
q20 7 43 29q37 35 68 88q100 166 157 342q24 72 38 138q12 58 38 113q8 16 20 87q5 30 9 86q2 31 13 50q16 26 36 3q13 -16 24 -50q13 -40 19 -85q20 -128 23 -149z" />
    <glyph glyph-name="Ucircumflex" unicode="&#xdb;" horiz-adv-x="763" 
d="M382 1404q-4 1 -7 11q-2 16 5 42q14 51 58 122q24 38 36 51q17 19 32 27q28 16 49 -7q9 -10 17 -25q36 -63 47 -110q9 -43 -8 -97q-7 -24 -10 -31q-12 -26 -46 -26q-13 0 -25 10q-10 8 -17 25q-8 21 -29 93q-4 16 -13 37q-50 -68 -65 -99q-6 -12 -10 -16q-7 -9 -14 -7z
M787 1121q10 -73 -9 -196q-39 -266 -128 -497q-58 -151 -132 -260q-46 -68 -93 -110q-30 -27 -62 -42q-73 -36 -145 3q-51 27 -95 87q-62 84 -90 205q-35 153 -33 311q-3 289 112 606q18 51 42 87q18 26 35 38q37 24 58 -14q10 -18 14 -52q3 -32 -6 -111l-27 -264
q-1 -10 -9 -75t-10 -100q-6 -98 2 -155q7 -49 23 -86q19 -45 65 -27q20 7 43 29q37 35 68 88q100 166 157 342q24 72 38 138q12 58 38 113q8 16 20 87q5 30 9 86q2 31 13 50q16 26 36 3q13 -16 24 -50q13 -40 19 -85q20 -128 23 -149z" />
    <glyph glyph-name="Udieresis" unicode="&#xdc;" horiz-adv-x="763" 
d="M328 1407q-22 19 -28 48q-2 7 -2 22q3 68 46 111q34 33 75 -2q22 -19 25 -49q7 -64 -34 -110q-10 -10 -18 -13q-4 -1 -13 -10q-23 -22 -51 3zM491 1407q-22 19 -28 48q-2 7 -2 22q3 68 46 111q34 33 75 -2q22 -19 25 -49q7 -64 -34 -110q-10 -10 -18 -13q-4 -1 -13 -10
q-23 -22 -51 3zM787 1121q10 -73 -9 -196q-39 -266 -128 -497q-58 -151 -132 -260q-46 -68 -93 -110q-30 -27 -62 -42q-73 -36 -145 3q-51 27 -95 87q-62 84 -90 205q-35 153 -33 311q-3 289 112 606q18 51 42 87q18 26 35 38q37 24 58 -14q10 -18 14 -52q3 -32 -6 -111
l-27 -264q-1 -10 -9 -75t-10 -100q-6 -98 2 -155q7 -49 23 -86q19 -45 65 -27q20 7 43 29q37 35 68 88q100 166 157 342q24 72 38 138q12 58 38 113q8 16 20 87q5 30 9 86q2 31 13 50q16 26 36 3q13 -16 24 -50q13 -40 19 -85q20 -128 23 -149z" />
    <glyph glyph-name="Yacute" unicode="&#xdd;" horiz-adv-x="958" 
d="M551 1402q-3 16 -3 35q-1 29 4 132q2 24 6 46q3 14 9 28q8 17 27 16q16 -1 36 -14q48 -31 69 -83q6 -21 7 -27q2 -17 -10 -28q-36 -36 -75 -100q-18 -29 -27 -39q-11 -13 -23 -2q-15 12 -20 36zM1018 1317q4 -100 -25 -228q-76 -342 -239 -609q-164 -273 -418 -452
q-73 -52 -140 -81q-45 -20 -83 -24q-60 -6 -79 51q-15 45 -1 108q10 45 44 107q1 1 1 2t1 2q11 17 25 16q15 -1 23 -22q6 -14 8 -34l1 -7q0 -7 2 -11q8 3 27 17q107 79 223 210q176 198 304 439q78 146 117 260q6 20 5 24q-4 -2 -21 -25q-26 -36 -79 -106.5t-80 -105.5
q-118 -158 -202 -255q-75 -85 -141 -134q-50 -36 -93 -50q-102 -33 -156 57q-35 57 -44 148q-18 201 62 417q0 2 5 11q69 124 122 195q10 13 21 23q85 74 190 147q24 17 31 -11q3 -11 -6 -29q-7 -12 -14.5 -26t-16.5 -31.5t-14 -26.5q-23 -41 -46 -93q-9 -20 -98 -210
l-12 -27q-32 -96 -69 -189q-9 -21 -12 -44q-3 -21 15 -31q16 -10 42 -4q23 4 47 17q33 19 64 45q84 71 148 142q106 118 264 341q62 88 96 130q35 45 61 67q23 20 46 28q34 12 58 -15q16 -19 24 -44q10 -34 12 -79z" />
    <glyph glyph-name="germandbls" unicode="&#xdf;" horiz-adv-x="1005" 
d="M921 828q102 -49 94 -165q-4 -55 -28 -112q-42 -103 -134 -210q-142 -166 -354 -295q-166 -100 -317 -141q-27 -8 -58 -15t-69 -14.5t-59 -12.5q-186 -41 -260 -53q-32 -5 -96 -13q-10 -1 -13.5 3t0.5 14q12 32 43 44q32 13 95.5 38t95.5 37q219 85 425 192q31 16 125 63
t144 75q112 64 170 118q38 36 58 69q17 25 21 50q9 51 -32 79q-30 22 -84 29q-52 7 -128 2l-42 -3v0q-53 -5 -120 -17q-126 -2 -78 93q34 65 99 165.5t113 167.5l48 68q16 21 26 42q26 57 -34 79q-34 13 -66 16.5t-62.5 -3t-55.5 -27.5t-41 -56q-12 -28 -42 -116.5
t-36 -116.5q-1 -6 -3.5 -18t-4.5 -18l-111 -457q-4 -16 -12 -47.5t-12 -47.5q-21 -80 -66 -166q-7 -13 -16 -26.5t-20.5 -29.5t-17.5 -25t-11 -12q-12 -9 -24 1q-21 18 -27 48q-10 50 -2 114q5 42 45 195q12 46 22 80q7 28 59 210q76 273 99 344v1q5 15 15 39.5t39.5 76.5
t65 97t94 91.5t124.5 70.5q46 13 82 20q25 4 35 5q20 2 28 3q43 3 86 -6q25 -5 46 -16q51 -28 57 -89q4 -42 -15 -97q-28 -82 -96 -171q-75 -99 -193 -205q-2 -2 -4.5 -4t-5 -5t-3.5 -4t-1 -2q-1 -2 -1 -3q28 3 82 9q142 14 244 -6q44 -8 75 -24z" />
    <glyph glyph-name="agrave" unicode="&#xe0;" horiz-adv-x="942" 
d="M779 1484q-39 64 -75 100q-11 11 -9 28q1 11 6 27q22 53 69 84q20 13 36 14q20 1 28 -16q4 -10 8 -28q4 -22 6 -46q5 -103 4 -132q0 -18 -3 -35q-5 -24 -20 -36q-12 -11 -23 2q-11 12 -27 38zM1003 1289q6 -27 -4 -57q-3 -11 -13 -33q-70 -156 -111 -375
q-9 -49 -21.5 -140t-18.5 -128q-17 -101 -46 -193q-12 -35 -21 -93q-4 -24 -10 -34q-12 -22 -25 0q-10 17 -14 50q-26 178 -1 330q10 61 52 198q14 45 46 133q6 17 5 21q-6 -4 -16 -19q-17 -25 -51.5 -75.5t-52.5 -76.5q-3 -4 -9 -11t-7 -8q-49 -61 -74 -100
q-53 -86 -181 -242q-77 -95 -151 -165q-65 -62 -113 -90q-33 -21 -67 -29q-77 -21 -115 51q-27 52 -29 128q-4 131 48 287q63 190 204 394q97 140 208 241q65 60 123 92q43 25 83 33q93 19 135 -67q22 -44 27 -116q0 -6 2 -20l2 -2q3 0 6 2t5.5 5.5t4.5 4.5q6 5 49 43t67 56
q24 19 42 27q34 16 42 -22zM665 1036q7 13 4 18.5t-18 6.5h-27q-74 3 -130 -40q-91 -69 -153 -151q-67 -89 -127 -224q-25 -54 -26 -112q0 -26 14 -35t37 6q3 2 8.5 6t8.5 6q22 16 59 55q59 63 140 171q10 13 73 99t98 130q17 20 39 64z" />
    <glyph glyph-name="aacute" unicode="&#xe1;" horiz-adv-x="942" 
d="M702 1480q-3 17 -3 35q-1 29 4 132q2 24 6 46q4 18 8 28q8 17 28 16q16 -1 36 -14q47 -31 69 -84q6 -21 7 -27q1 -16 -10 -28q-36 -36 -75 -100q-16 -26 -27 -38q-11 -13 -23 -2q-15 12 -20 36zM1003 1289q6 -27 -4 -57q-3 -11 -13 -33q-70 -156 -111 -375
q-9 -49 -21.5 -140t-18.5 -128q-17 -101 -46 -193q-12 -35 -21 -93q-4 -24 -10 -34q-12 -22 -25 0q-10 17 -14 50q-26 178 -1 330q10 61 52 198q14 45 46 133q6 17 5 21q-6 -4 -16 -19q-17 -25 -51.5 -75.5t-52.5 -76.5q-3 -4 -9 -11t-7 -8q-49 -61 -74 -100
q-53 -86 -181 -242q-77 -95 -151 -165q-65 -62 -113 -90q-34 -21 -66 -29q-78 -21 -116 51q-27 52 -29 128q-4 131 48 287q63 190 204 394q95 137 209 241q66 61 122 92q43 25 83 33q93 19 135 -67q22 -44 27 -116q0 -6 2 -20l2 -2q3 0 6 2t5.5 5.5t4.5 4.5q6 5 49 43t67 56
q24 19 42 27q34 16 42 -22zM665 1036q7 13 4 18.5t-18 6.5h-27q-74 3 -130 -40q-91 -69 -153 -151q-67 -89 -127 -224q-25 -54 -26 -112q0 -26 14 -35t37 6q3 2 8.5 6t8.5 6q22 16 59 55q59 63 140 171q10 13 73 99t98 130q17 20 39 64z" />
    <glyph glyph-name="acircumflex" unicode="&#xe2;" horiz-adv-x="942" 
d="M721 1482q-4 1 -7 11q-2 16 5 42q14 51 58 122q24 38 36 51q17 19 32 27q28 16 49 -7q9 -10 17 -25q36 -63 47 -110q9 -43 -8 -97q-7 -24 -10 -31q-12 -26 -46 -26q-13 0 -25 10q-10 8 -17 25q-8 21 -29 93q-4 16 -13 37q-50 -68 -65 -99q-7 -14 -10 -17q-6 -9 -14 -6z
M1003 1289q6 -27 -4 -57q-3 -11 -13 -33q-70 -156 -111 -375q-9 -49 -21.5 -140t-18.5 -128q-17 -101 -46 -193q-12 -35 -21 -93q-4 -24 -10 -34q-12 -22 -25 0q-10 17 -14 50q-26 178 -1 330q10 61 52 198q14 45 46 133q6 17 5 21q-6 -4 -16 -19q-17 -25 -51.5 -75.5
t-52.5 -76.5q-3 -4 -9 -11t-7 -8q-49 -61 -74 -100q-53 -86 -181 -242q-77 -95 -151 -165q-65 -62 -113 -90q-33 -21 -67 -29q-77 -21 -115 51q-27 52 -29 128q-4 131 48 287q63 190 204 394q97 140 208 241q65 60 123 92q43 25 82 33q94 19 136 -67q22 -44 27 -116
q0 -6 2 -20l2 -2q3 0 6 2t5.5 5.5t4.5 4.5q6 5 49 43t67 56q24 19 42 27q34 16 42 -22zM665 1036q7 13 4 18.5t-18 6.5h-27q-74 3 -130 -40q-91 -69 -153 -151q-67 -89 -127 -224q-25 -54 -26 -112q0 -26 14 -35t37 6q3 2 8.5 6t8.5 6q22 16 59 55q59 63 140 171
q10 13 73 99t98 130q17 20 39 64z" />
    <glyph glyph-name="atilde" unicode="&#xe3;" horiz-adv-x="942" 
d="M612 1493q-11 -14 -19 1q-6 10 -4 23q11 81 82 118q28 15 61 5q17 -5 44 -18q6 -3 18 -8.5t18 -8.5q12 -6 25 -9q29 -5 44 16q14 21 17 31q1 6 4 16.5t5 15.5q2 9 5 13q5 5 7 5q1 0 4 -6q4 -14 4 -22v-27q3 -50 -23 -101q-16 -30 -40 -50q-37 -30 -80 -12q-24 10 -39 24
q-6 6 -18.5 17.5t-19.5 16.5q-13 11 -25 18q-34 18 -58 -14q-2 -3 -2 -12q1 -17 -10 -32zM1003 1289q6 -27 -4 -57q-3 -11 -13 -33q-70 -156 -111 -375q-9 -49 -21.5 -140t-18.5 -128q-17 -101 -46 -193q-12 -35 -21 -93q-4 -24 -10 -34q-12 -22 -25 0q-10 17 -14 50
q-26 178 -1 330q10 61 52 198q14 45 46 133q6 17 5 21q-6 -4 -16 -19q-17 -25 -51.5 -75.5t-52.5 -76.5q-3 -4 -9 -11t-7 -8q-49 -61 -74 -100q-53 -86 -181 -242q-77 -95 -151 -165q-65 -62 -113 -90q-34 -21 -66 -29q-78 -21 -116 51q-27 52 -29 128q-4 131 48 287
q63 190 204 394q95 137 209 241q66 61 122 92q43 25 83 33q93 19 135 -67q22 -44 27 -116q0 -6 2 -20l2 -2q3 0 6 2t5.5 5.5t4.5 4.5q6 5 49 43t67 56q24 19 42 27q34 16 42 -22zM665 1036q7 13 4 18.5t-18 6.5h-27q-74 3 -130 -40q-91 -69 -153 -151q-67 -89 -127 -224
q-25 -54 -26 -112q0 -26 14 -35t37 6q3 2 8.5 6t8.5 6q22 16 59 55q59 63 140 171q10 13 73 99t98 130q17 20 39 64z" />
    <glyph glyph-name="adieresis" unicode="&#xe4;" horiz-adv-x="942" 
d="M672 1484q-22 19 -28 49q-2 7 -2 21q3 69 46 112q34 33 75 -2q22 -19 25 -49q7 -66 -33 -111q-9 -9 -19 -13q-5 -1 -13 -9q-24 -22 -51 2zM835 1484q-22 19 -28 49q-2 7 -2 21q3 69 46 112q34 33 75 -2q22 -19 25 -49q7 -65 -34 -111q-10 -10 -18 -13q-5 -1 -13 -9
q-24 -22 -51 2zM1003 1289q6 -27 -4 -57q-3 -11 -13 -33q-70 -156 -111 -375q-9 -49 -21.5 -140t-18.5 -128q-17 -101 -46 -193q-12 -35 -21 -93q-4 -24 -10 -34q-12 -22 -25 0q-10 17 -14 50q-26 178 -1 330q10 61 52 198q14 45 46 133q6 17 5 21q-6 -4 -16 -19
q-17 -25 -51.5 -75.5t-52.5 -76.5q-3 -4 -9 -11t-7 -8q-49 -61 -74 -100q-53 -86 -181 -242q-77 -95 -151 -165q-65 -62 -113 -90q-33 -21 -67 -29q-77 -21 -115 51q-27 52 -29 128q-4 131 48 287q63 190 204 394q97 140 208 241q65 60 123 92q43 25 82 33q94 19 136 -67
q22 -44 27 -116q0 -6 2 -20l2 -2q3 0 6 2t5.5 5.5t4.5 4.5q6 5 49 43t67 56q24 19 42 27q34 16 42 -22zM665 1036q7 13 4 18.5t-18 6.5h-27q-74 3 -130 -40q-91 -69 -153 -151q-67 -89 -127 -224q-25 -54 -26 -112q0 -26 14 -35t37 6q3 2 8.5 6t8.5 6q22 16 59 55
q59 63 140 171q10 13 73 99t98 130q17 20 39 64z" />
    <glyph glyph-name="aring" unicode="&#xe5;" horiz-adv-x="942" 
d="M730 1457q-15 21 -17 51q-4 72 41 147q6 9 6 19q0 16 15 35q9 11 38 36q6 4 9 5q23 9 35 -11q11 -17 15 -50q2 -26 2 -33q-2 -82 -21 -146q-9 -26 -19 -44q0 -1 -8 -11q-16 -22 -35.5 -26t-34.5 4t-26 24zM780 1632q-25 -39 -18 -73q5 -30 33 -37q15 -4 16 11q2 16 0 48
q-2 16 -9 23q-14 14 -22 28zM1003 1289q6 -27 -4 -57q-3 -11 -13 -33q-70 -156 -111 -375q-9 -49 -21.5 -140t-18.5 -128q-17 -101 -46 -193q-12 -35 -21 -93q-4 -24 -10 -34q-12 -22 -25 0q-10 17 -14 50q-26 178 -1 330q10 61 52 198q14 45 46 133q6 17 5 21
q-6 -4 -16 -19q-17 -25 -51.5 -75.5t-52.5 -76.5q-3 -4 -9 -11t-7 -8q-49 -61 -74 -100q-53 -86 -181 -242q-77 -95 -151 -165q-65 -62 -113 -90q-34 -21 -66 -29q-78 -21 -116 51q-27 52 -29 128q-4 131 48 287q63 190 204 394q95 137 209 241q66 61 122 92q43 25 83 33
q93 19 135 -67q22 -44 27 -116q0 -6 2 -20l2 -2q3 0 6 2t5.5 5.5t4.5 4.5q6 5 49 43t67 56q24 19 42 27q34 16 42 -22zM665 1036q7 13 4 18.5t-18 6.5h-27q-74 3 -130 -40q-91 -69 -153 -151q-67 -89 -127 -224q-25 -54 -26 -112q0 -26 14 -35t37 6q3 2 8.5 6t8.5 6
q22 16 59 55q59 63 140 171q10 13 73 99t98 130q17 20 39 64z" />
    <glyph glyph-name="ae" unicode="&#xe6;" horiz-adv-x="1536" 
d="M1549 642q1 -2 0.5 -4.5t-1 -3.5t-2.5 -2.5t-2 -2.5q-59 -84 -118 -142l-126 -123q-38 -38 -92 -74q-161 -106 -259 -160q-104 -57 -191 -74q-67 -13 -121 0q-114 30 -155 150q-29 86 -19 199q2 27 12 84q-7 -9 -21.5 -26.5t-21.5 -26.5q-77 -95 -151 -165
q-65 -62 -113 -90q-34 -21 -66 -29q-78 -21 -116 51q-26 50 -28 128q-4 134 47 287q63 190 204 394q95 137 209 241q66 61 122 92q43 25 83 33q93 19 135 -67q22 -44 27 -116q0 -6 2 -20l2 -2q3 0 6 2t5.5 5.5t4.5 4.5q6 5 49 43t67 56q24 19 42 27q34 16 42 -22l-52 -92
q1 1 2.5 2t2.5 2q109 78 212 111q63 20 114 19q52 -2 83 -30t36 -80q6 -59 -16 -135q-35 -115 -121 -232q-102 -142 -239 -228q-58 -37 -115 -55q-135 -41 -230 21q-25 -89 -11 -137q18 -68 86 -86q57 -15 138 -6q128 14 295 88q170 76 335 177q4 3 12 7.5t12 6.5zM800 811
q-6 -6 -6 -12q8 -5 20 -7q58 -12 123 14q107 43 192 147q12 14 32 46q7 10 5 14t-14 6q-22 5 -43 0q-43 -8 -96 -34q-119 -61 -213 -174zM628 972q17 20 39 64q7 13 4 18.5t-18 6.5q0 1 -13 1l-14 -1q-74 3 -130 -40q-91 -69 -153 -151q-67 -89 -127 -224q-24 -54 -26 -113
q0 -25 14 -34t37 6q3 2 8.5 6t8.5 6q22 16 59 55q59 63 140 171q10 13 73 99t98 130z" />
    <glyph glyph-name="ccedilla" unicode="&#xe7;" horiz-adv-x="937" 
d="M954 675q1 -10 -4 -22q-6 -17 -21 -33q-114 -131 -285 -275q-110 -92 -153 -124q-77 -57 -150 -87q-21 -9 -50 -16q-6 -13 -25 -68q-4 -11 -2 -13t13 -3q72 -3 82 -4q103 -16 104 -116q3 -124 -94 -187q-52 -34 -109 -22q-49 9 -109 31q-26 10 -49 27q-13 10 -10 23
q2 8 5 10.5t12 1.5q72 -10 126 3q52 12 131 59q0 1 2 5q-21 9 -64 11q-51 2 -62 4q-24 4 -36.5 15t-18.5 35q-10 45 3 94q12 45 31 86q-19 0 -38 3q-119 18 -176 130q-46 90 -41 197q3 131 66 276q124 285 374 498q54 46 112 73q40 19 74 19q54 0 63 -53q5 -31 -3 -68
q-17 -76 -67 -151q-15 -23 -35 -35q-15 -8 -23 -3q-9 6 -7 23l3 18q0 2 2 10t2 12q0 17 -9.5 24.5t-25.5 2.5q-8 -2 -21 -11q-21 -13 -36 -28q-164 -158 -243 -352q-34 -81 -24 -158q6 -52 41.5 -85.5t87.5 -37.5q43 -2 113 13q164 34 265 91q138 77 243 154q12 8 19 12
q15 8 17 -9z" />
    <glyph glyph-name="egrave" unicode="&#xe8;" horiz-adv-x="1026" 
d="M760 1435q-39 64 -75 100q-11 11 -10 28q1 6 7 27q22 53 69 84q20 13 36 14q20 1 28 -16q4 -10 8 -28q4 -22 6 -46q5 -103 4 -132q0 -18 -3 -35q-5 -24 -20 -36q-12 -11 -23 1q-9 10 -27 39zM1041 642q2 -4 -4 -13q-57 -81 -119 -142l-126 -123q-38 -38 -92 -74
q-161 -106 -259 -160q-105 -58 -190 -74q-68 -14 -122 0q-114 30 -155 150q-28 84 -18 199q14 166 105 342q146 281 389 454q109 78 212 111q63 20 114 19q52 -2 83 -30t36 -80q6 -59 -16 -135q-35 -115 -121 -232q-103 -143 -238 -228q-57 -36 -116 -55q-135 -41 -230 21
q-25 -89 -11 -137q18 -68 87 -86q57 -15 138 -6q127 13 294 88q170 76 335 177q4 3 12 7.5t12 6.5zM292 811q-6 -6 -6 -12q8 -5 20 -7q58 -12 124 14q106 42 191 147q16 18 33 46q7 10 4.5 14t-14.5 6q-22 5 -43 0q-43 -8 -96 -34q-119 -61 -213 -174z" />
    <glyph glyph-name="eacute" unicode="&#xe9;" horiz-adv-x="1026" 
d="M718 1431q-3 17 -3 35q-1 29 4 132q2 24 6 46q3 14 9 28q8 17 27 16q16 -1 36 -14q47 -31 69 -84q6 -21 7 -27q1 -17 -10 -28q-36 -36 -75 -100q-18 -29 -27 -39q-11 -12 -23 -1q-15 12 -20 36zM1041 642q2 -4 -4 -13q-57 -81 -119 -142l-126 -123q-38 -38 -92 -74
q-161 -106 -259 -160q-105 -58 -190 -74q-68 -14 -122 0q-114 30 -155 150q-28 84 -18 199q14 166 105 342q146 281 389 454q109 78 212 111q63 20 114 19q52 -2 83 -30t36 -80q6 -59 -16 -135q-35 -115 -121 -232q-103 -143 -238 -228q-57 -36 -116 -55q-135 -41 -230 21
q-25 -89 -11 -137q18 -68 87 -86q57 -15 138 -6q127 13 294 88q170 76 335 177q4 3 12 7.5t12 6.5zM292 811q-6 -6 -6 -12q8 -5 20 -7q58 -12 124 14q106 42 191 147q16 18 33 46q7 10 4.5 14t-14.5 6q-22 5 -43 0q-43 -8 -96 -34q-119 -61 -213 -174z" />
    <glyph glyph-name="ecircumflex" unicode="&#xea;" horiz-adv-x="1028" 
d="M734 1433q-5 1 -7 10q-2 17 5 43q15 54 57 122q24 38 36 51q17 19 32 27q28 16 49 -7q11 -13 18 -25q35 -61 46 -110q9 -43 -8 -97q-7 -24 -10 -31q-12 -26 -45 -26q-14 0 -26 10q-10 8 -17 25q-8 21 -29 93q-5 22 -12 37q-53 -72 -66 -99q-7 -14 -10 -17q-6 -8 -13 -6z
M1041 642q2 -4 -4 -13q-57 -81 -119 -142l-126 -123q-38 -38 -92 -74q-161 -106 -259 -160q-105 -58 -190 -74q-68 -14 -122 0q-114 30 -155 150q-28 84 -18 199q14 166 105 342q146 281 389 454q109 78 212 111q63 20 114 19q52 -2 83 -30t36 -80q6 -59 -16 -135
q-35 -115 -121 -232q-103 -143 -238 -228q-57 -36 -116 -55q-135 -41 -230 21q-25 -89 -11 -137q18 -68 87 -86q57 -15 138 -6q127 13 294 88q170 76 335 177q4 3 12 7.5t12 6.5zM292 811q-6 -6 -6 -12q8 -5 20 -7q58 -12 124 14q106 42 191 147q16 18 33 46q7 10 4.5 14
t-14.5 6q-22 5 -43 0q-43 -8 -96 -34q-119 -61 -213 -174z" />
    <glyph glyph-name="edieresis" unicode="&#xeb;" horiz-adv-x="1028" 
d="M688 1435q-20 18 -27 49q-2 7 -2 21q3 70 45 112q34 33 75 -2q23 -20 26 -49q7 -65 -34 -111q-9 -9 -19 -13q-4 -1 -12 -9q-24 -23 -52 2zM851 1435q-20 18 -27 49q-2 7 -2 21q3 70 45 112q34 33 75 -2q22 -19 25 -49q7 -66 -33 -111q-9 -9 -19 -13q-4 -1 -12 -9
q-24 -23 -52 2zM1041 642q2 -4 -4 -13q-57 -81 -119 -142l-126 -123q-38 -38 -92 -74q-161 -106 -259 -160q-105 -58 -190 -74q-68 -14 -122 0q-114 30 -155 150q-28 84 -18 199q14 166 105 342q146 281 389 454q109 78 212 111q63 20 114 19q52 -2 83 -30t36 -80
q6 -59 -16 -135q-35 -115 -121 -232q-103 -143 -238 -228q-57 -36 -116 -55q-135 -41 -230 21q-25 -89 -11 -137q18 -68 87 -86q57 -15 138 -6q127 13 294 88q170 76 335 177q4 3 12 7.5t12 6.5zM292 811q-6 -6 -6 -12q8 -5 20 -7q58 -12 124 14q106 42 191 147q16 18 33 46
q7 10 4.5 14t-14.5 6q-22 5 -43 0q-43 -8 -96 -34q-119 -61 -213 -174z" />
    <glyph glyph-name="igrave" unicode="&#xec;" horiz-adv-x="849" 
d="M644 1408q-38 62 -76 100q-11 11 -9 28q1 11 6 27q21 52 69 83q20 13 36 14q20 1 28 -16q4 -10 8 -28q4 -22 6 -46q5 -103 4 -132q0 -18 -3 -35q-5 -25 -19 -36q-12 -11 -23 2q-9 10 -27 39zM921 1215q6 -21 -12 -49t-40 -35q-14 -5 -19 6t-21 15q-27 6 -51 -2
q-14 -5 -41.5 -14t-41.5 -13q-11 -3 -18 -18q-10 -23 -30.5 -67.5t-30.5 -66.5q-32 -75 -98.5 -209t-90.5 -185q-3 -7 -9 -20t-9 -20q3 -2 5.5 -2t4.5 0.5t4.5 2t3.5 2.5q65 25 86 29q81 12 119 -62q12 -22 17 -33q26 -60 -5 -122q-7 -12 -15 -20t-12.5 -7.5t-11.5 9.5
q-24 27 -62 15q-20 -6 -60 -24q-50 -22 -104 -34q-95 -21 -193 -74q-109 -59 -210 -140q-8 -7 -14 -17q-10 -17 -24 -22q-24 -9 -30 16q-5 20 2 49q9 41 41 85q29 41 118 119q101 88 229 164q20 12 23 35q10 92 13 111q15 86 39 153q68 192 114 289q2 6 5 13q-11 -2 -48 -14
q-61 -21 -213 -82q-24 -10 -37 -14q-20 -6 -29 5q-7 9 -1 28q7 21 28 43t55 46q129 93 311 164q118 46 190 60q48 9 92 -2q62 -16 81 -91z" />
    <glyph glyph-name="iacute" unicode="&#xed;" horiz-adv-x="849" 
d="M506 1403q-3 17 -3 35q-1 44 3 132q1 16 7 46q4 18 8 28q8 17 27 16q16 -1 36 -14q49 -32 70 -83q5 -16 6 -27q2 -16 -10 -28q-36 -36 -75 -100q-18 -29 -27 -39q-11 -13 -23 -2q-14 11 -19 36zM921 1215q6 -21 -12 -49t-40 -35q-14 -5 -19 6t-21 15q-27 6 -51 -2
q-14 -5 -41.5 -14t-41.5 -13q-11 -3 -18 -18q-10 -23 -30.5 -67.5t-30.5 -66.5q-32 -75 -98.5 -209t-90.5 -185q-3 -7 -9 -20t-9 -20q3 -2 5.5 -2t4.5 0.5t4.5 2t3.5 2.5q65 25 86 29q81 12 119 -62q12 -22 17 -33q26 -60 -5 -122q-7 -12 -15 -20t-12.5 -7.5t-11.5 9.5
q-24 27 -62 15q-20 -6 -60 -24q-50 -22 -104 -34q-95 -21 -193 -74q-109 -59 -210 -140q-8 -7 -14 -17q-10 -17 -24 -22q-24 -9 -30 16q-5 20 2 49q9 41 41 85q29 41 118 119q101 88 229 164q20 12 23 35q10 92 13 111q15 86 39 153q68 192 114 289q2 6 5 13q-11 -2 -48 -14
q-61 -21 -213 -82q-24 -10 -37 -14q-20 -6 -29 5q-7 9 -1 28q7 21 28 43t55 46q129 93 311 164q118 46 190 60q48 9 92 -2q62 -16 81 -91z" />
    <glyph glyph-name="icircumflex" unicode="&#xee;" horiz-adv-x="849" 
d="M579 1405q-4 1 -7 11q-2 16 5 42q15 54 57 122q24 38 36 51q17 19 32 27q28 16 49 -7q11 -13 18 -25q36 -63 47 -110q9 -43 -8 -97q-4 -14 -11 -31q-12 -26 -45 -26q-14 0 -26 10q-8 7 -16 25q-12 31 -30 93q-5 22 -12 37q-53 -72 -66 -99q-6 -12 -10 -16q-7 -9 -13 -7z
M921 1215q6 -21 -12 -49t-40 -35q-14 -5 -19 6t-21 15q-27 6 -51 -2q-14 -5 -41.5 -14t-41.5 -13q-11 -3 -18 -18q-10 -23 -30.5 -67.5t-30.5 -66.5q-32 -75 -98.5 -209t-90.5 -185q-3 -7 -9 -20t-9 -20q3 -2 5.5 -2t4.5 0.5t4.5 2t3.5 2.5q65 25 86 29q81 12 119 -62
q12 -22 17 -33q26 -60 -5 -122q-7 -12 -15 -20t-12.5 -7.5t-11.5 9.5q-24 27 -62 15q-20 -6 -60 -24q-50 -22 -104 -34q-95 -21 -193 -74q-109 -59 -210 -140q-8 -7 -14 -17q-10 -17 -24 -22q-24 -9 -30 16q-5 20 2 49q9 41 41 85q29 41 118 119q101 88 229 164q20 12 23 35
q10 92 13 111q15 86 39 153q68 192 114 289q2 6 5 13q-11 -2 -48 -14q-61 -21 -213 -82q-24 -10 -37 -14q-20 -6 -29 5q-7 9 -1 28q7 21 28 43t55 46q129 93 311 164q118 46 190 60q48 9 92 -2q62 -16 81 -91z" />
    <glyph glyph-name="idieresis" unicode="&#xef;" horiz-adv-x="849" 
d="M560 1408q-22 19 -28 48q-2 7 -2 22q3 68 46 111q34 33 75 -2q22 -19 25 -49q7 -64 -34 -110q-10 -10 -18 -13q-4 -1 -13 -10q-23 -22 -51 3zM723 1408q-22 19 -28 48q-2 7 -2 22q3 68 46 111q34 33 75 -2q22 -19 25 -49q7 -64 -34 -110q-10 -10 -18 -13q-4 -1 -13 -10
q-23 -22 -51 3zM921 1215q6 -21 -12 -49t-40 -35q-14 -5 -19 6t-21 15q-27 6 -51 -2q-14 -5 -41.5 -14t-41.5 -13q-11 -3 -18 -18q-10 -23 -30.5 -67.5t-30.5 -66.5q-32 -75 -98.5 -209t-90.5 -185q-3 -7 -9 -20t-9 -20q3 -2 5.5 -2t4.5 0.5t4.5 2t3.5 2.5q65 25 86 29
q81 12 119 -62q12 -22 17 -33q26 -60 -5 -122q-7 -12 -15 -20t-12.5 -7.5t-11.5 9.5q-24 27 -62 15q-20 -6 -60 -24q-50 -22 -104 -34q-95 -21 -193 -74q-109 -59 -210 -140q-8 -7 -14 -17q-10 -17 -24 -22q-24 -9 -30 16q-5 20 2 49q9 41 41 85q29 41 118 119
q101 88 229 164q20 12 23 35q10 92 13 111q15 86 39 153q68 192 114 289q2 6 5 13q-11 -2 -48 -14q-61 -21 -213 -82q-24 -10 -37 -14q-20 -6 -29 5q-7 9 -1 28q7 21 28 43t55 46q129 93 311 164q118 46 190 60q48 9 92 -2q62 -16 81 -91z" />
    <glyph glyph-name="ntilde" unicode="&#xf1;" horiz-adv-x="864" 
d="M490 1493q-11 -15 -20 1q-5 8 -3 23q11 81 81 118q28 15 62 5q17 -5 44 -18q6 -3 17.5 -8.5t17.5 -8.5q12 -6 26 -9q28 -5 43 16q14 21 17 31q1 6 4 16.5t5 15.5q2 9 5 13q5 5 7 5q2 -1 5 -6q3 -11 3 -22v-27q3 -50 -23 -101q-17 -32 -39 -50q-38 -30 -81 -12
q-22 9 -38 24q-7 6 -19 17.5t-19 16.5q-13 11 -25 18q-34 18 -58 -14q-3 -4 -3 -12q2 -18 -9 -32zM905 1470q3 -36 -2 -163q-4 -69 -5 -106q-5 -287 -85 -538q-6 -19 -39.5 -132.5t-55.5 -172.5q-45 -121 -82 -197q-33 -69 -78 -114q-23 -23 -44 -34q-52 -27 -103 3
q-36 22 -63 62q-43 63 -69 159q-34 124 -42 282q0 1 -3 110q0 11 -4 14q-1 -2 -10 -22q-107 -259 -133 -322q-47 -112 -79 -174q-11 -23 -22 -40q-4 -8 -13 -18q-22 -25 -38 6q-7 15 -8 27q-3 38 4 66q9 35 27.5 104.5t27.5 103.5q37 138 158 513q108 334 134 407
q22 62 38 90q23 38 43 55q23 20 47.5 16.5t41.5 -28.5q14 -20 21 -52q16 -68 6 -154q-1 -11 -33 -259q-32 -264 -27 -449q1 -37 8 -89q9 6 18 27q70 149 88 198q13 35 58 147.5t66 175.5q52 160 132 292q28 46 57 157q14 57 18 98q1 9 5 20q6 15 14 15t13 -15q10 -31 13 -69
z" />
    <glyph glyph-name="ograve" unicode="&#xf2;" horiz-adv-x="735" 
d="M613 1380q-39 64 -75 100q-12 12 -10 28q1 6 7 27q22 53 69 84q20 13 36 14q19 1 27 -17q6 -14 9 -28q4 -22 6 -45q5 -103 4 -133q0 -18 -3 -34q-5 -24 -20 -36q-12 -11 -23 1q-9 10 -27 39zM775 1180q13 -52 6 -130q-14 -133 -93 -289q-132 -260 -353 -439
q-86 -70 -176 -108q-57 -23 -100 -23q-73 2 -98 69q-17 45 -10 115q9 91 54 205q52 131 144 283q23 38 71 114q9 16 10 18q-9 3 -29.5 9t-31.5 10q-16 5 -20 12t0 23q10 47 45 67q57 34 157 73q118 46 162 65q55 24 107 30q57 7 99 -21t56 -83zM517 839q12 19 10.5 24
t-20.5 16q-1 0 -1 0.5t-1 0.5q-21 12 -62.5 35t-61.5 35q-16 9 -25.5 7.5t-20.5 -15.5q-4 -4 -12 -19q-80 -133 -138 -269q-28 -68 -38 -103q-4 -13 -0.5 -16.5t18.5 -3.5q14 1 37 10q41 17 79 45q139 101 236 253z" />
    <glyph glyph-name="oacute" unicode="&#xf3;" horiz-adv-x="735" 
d="M531 1376q-3 17 -3 34q-1 30 4 133q2 23 6 45q4 18 8 28q8 18 28 17q16 -1 36 -14q47 -31 69 -84q6 -21 7 -27q2 -16 -10 -28q-36 -36 -75 -100q-18 -29 -27 -39q-11 -12 -23 -1q-15 12 -20 36zM775 1180q13 -52 6 -130q-14 -133 -93 -289q-132 -260 -353 -439
q-86 -70 -176 -108q-57 -23 -100 -23q-73 2 -98 69q-17 45 -10 115q9 91 54 205q52 131 144 283q23 38 71 114q9 16 10 18q-9 3 -29.5 9t-31.5 10q-16 5 -20 12t0 23q10 47 45 67q57 34 157 73q118 46 162 65q55 24 107 30q57 7 99 -21t56 -83zM517 839q12 19 10.5 24
t-20.5 16q-1 0 -1 0.5t-1 0.5q-21 12 -62.5 35t-61.5 35q-16 9 -25.5 7.5t-20.5 -15.5q-4 -4 -12 -19q-80 -133 -138 -269q-28 -68 -38 -103q-4 -13 -0.5 -16.5t18.5 -3.5q14 1 37 10q41 17 79 45q139 101 236 253z" />
    <glyph glyph-name="ocircumflex" unicode="&#xf4;" horiz-adv-x="739" 
d="M546 1378q-5 1 -7 10q-2 17 5 43q15 54 57 122q19 30 37 50q20 22 31 28q29 17 50 -7q9 -10 17 -25q36 -63 47 -111q9 -42 -8 -96q-8 -28 -10 -32q-12 -26 -46 -26q-13 0 -25 10q-10 8 -17 25q-7 18 -29 94q-4 16 -13 37q-53 -72 -66 -99q-8 -16 -9 -17q-6 -9 -14 -6z
M620 1284q57 7 99 -21t56 -83q13 -52 6 -130q-14 -133 -93 -289q-132 -260 -353 -439q-86 -70 -176 -108q-57 -23 -100 -23q-73 2 -98 69q-17 45 -10 115q9 91 54 205q52 131 144 283q23 38 71 114q9 16 10 18q-9 3 -29.5 9t-31.5 10q-16 5 -20 12t0 23q10 47 45 67
q57 34 157 73q118 46 162 65q55 24 107 30zM517 839q12 19 10.5 24t-20.5 16q-1 0 -1 0.5t-1 0.5q-21 12 -62.5 35t-61.5 35q-16 9 -25.5 7.5t-20.5 -15.5q-4 -4 -12 -19q-80 -133 -138 -269q-28 -68 -38 -103q-4 -13 -0.5 -16.5t18.5 -3.5q14 1 37 10q41 17 79 45
q139 101 236 253z" />
    <glyph glyph-name="otilde" unicode="&#xf5;" horiz-adv-x="739" 
d="M488 1398q-11 -14 -19 1q-6 10 -4 23q11 81 82 118q28 15 61 5q17 -5 44 -18q6 -3 18 -8.5t18 -8.5q9 -4 25 -8q28 -5 43 15q14 21 17 31q1 6 4 16t5 16q2 9 5 13q5 5 7 5q2 -1 5 -6q3 -10 3 -21q0 -4 0.5 -13t0.5 -15q3 -50 -23 -101q-16 -30 -40 -50q-38 -30 -81 -12
q-22 9 -38 24q-7 5 -19.5 16.5t-18.5 17.5q-13 11 -25 18q-35 18 -58 -13q-3 -4 -3 -12q2 -19 -9 -33zM620 1284q57 7 99 -21t56 -83q13 -52 6 -130q-14 -133 -93 -289q-132 -260 -353 -439q-86 -70 -176 -108q-57 -23 -100 -23q-73 2 -98 69q-17 45 -10 115q9 91 54 205
q52 131 144 283q23 38 71 114q9 16 10 18q-9 3 -29.5 9t-31.5 10q-16 5 -20 12t0 23q10 47 45 67q57 34 157 73q118 46 162 65q55 24 107 30zM517 839q12 19 10.5 24t-20.5 16q-1 0 -1 0.5t-1 0.5q-21 12 -62.5 35t-61.5 35q-16 9 -25.5 7.5t-20.5 -15.5q-4 -4 -12 -19
q-80 -133 -138 -269q-28 -68 -38 -103q-4 -13 -0.5 -16.5t18.5 -3.5q14 1 37 10q41 17 79 45q139 101 236 253z" />
    <glyph glyph-name="odieresis" unicode="&#xf6;" horiz-adv-x="737" 
d="M508 1380q-21 18 -27 48q-2 7 -2 22q3 69 45 111q35 33 75 -1q23 -20 26 -50q7 -64 -34 -110q-9 -9 -19 -13q-4 -1 -12 -9q-24 -23 -52 2zM671 1380q-21 18 -27 48q-2 7 -2 22q3 69 45 111q35 33 75 -1q22 -19 25 -50q7 -65 -33 -110q-9 -9 -19 -13q-4 -1 -12 -9
q-24 -23 -52 2zM620 1284q57 7 99 -21t56 -83q13 -52 6 -130q-14 -133 -93 -289q-132 -260 -353 -439q-86 -70 -176 -108q-57 -23 -100 -23q-73 2 -98 69q-17 45 -10 115q9 91 54 205q52 131 144 283q23 38 71 114q9 16 10 18q-9 3 -29.5 9t-31.5 10q-16 5 -20 12t0 23
q10 47 45 67q57 34 157 73q118 46 162 65q55 24 107 30zM517 839q12 19 10.5 24t-20.5 16q-1 0 -1 0.5t-1 0.5q-21 12 -62.5 35t-61.5 35q-16 9 -25.5 7.5t-20.5 -15.5q-4 -4 -12 -19q-80 -133 -138 -269q-28 -68 -38 -103q-4 -13 -0.5 -16.5t18.5 -3.5q14 1 37 10
q41 17 79 45q139 101 236 253z" />
    <glyph glyph-name="divide" unicode="&#xf7;" horiz-adv-x="903" 
d="M799 795q3 -23 -3 -47q-17 -71 -67 -117q-36 -33 -80 -27h-13.5t-12.5 1q-164 10 -351 29q-40 4 -120 14q-20 3 -22 3q-18 4 -24 12t-2 26q12 64 66 80q59 18 144 28q58 7 169.5 17t162.5 16q16 2 47 5.5t46 5.5q53 6 60 -46zM364 548q24 20 47.5 15.5t39.5 -31.5
q14 -24 14 -62q-6 -103 -76 -167q-26 -24 -55 -31q-44 -11 -65 31q-14 27 -11 60q4 66 39 123q24 39 51 49q4 2 10 7zM414 845q-51 -13 -76 31q-11 19 -11 60q5 66 60 117q1 1 4 3.5t4 3.5q31 16 67 25q19 4 36.5 -5.5t25.5 -29.5q11 -27 5 -59q-13 -68 -67 -119
q-21 -20 -48 -27z" />
    <glyph glyph-name="oslash" unicode="&#xf8;" horiz-adv-x="739" 
d="M777 1180q13 -52 6 -130q-14 -133 -93 -289q-132 -260 -353 -439q-43 -36 -88 -63q-3 -10 -8.5 -30.5t-8.5 -30.5q-16 -55 -34 -99q-11 -28 -21 -42q-7 -11 -17 -20q-33 -30 -52 16q-9 22 -11 56v27q0 34 4 59q-17 -4 -40 -4q-73 2 -98 69q-17 45 -10 115q9 87 55 205
q52 131 144 283q46 76 70 114q9 16 10 18l-30 9t-31 10q-16 5 -20 12t0 23q10 47 45 67q57 34 157 73q68 26 74 28q3 11 8.5 32.5t8.5 32.5q15 55 30 86q13 24 24 34q12 12 21 6t11 -24q2 -31 -7 -55q-13 -33 -23 -81l15 6q55 24 107 30q57 7 99 -21t56 -83zM236 611
q81 243 112 342l-11 -11q-4 -4 -12 -19q-80 -133 -138 -269q-28 -68 -38 -103q-4 -13 -0.5 -16.5t18.5 -3.5q14 1 37 10q5 2 10 5q11 29 22 65zM519 839q12 19 10.5 24t-20.5 16q-1 0 -1 0.5t-1 0.5q-14 8 -42 23.5t-42 23.5q-18 -71 -74 -287q97 86 170 199z" />
    <glyph glyph-name="ugrave" unicode="&#xf9;" horiz-adv-x="696" 
d="M525 1380q-39 64 -75 100q-12 12 -10 28q1 6 7 27q22 53 69 84q20 13 36 14q20 1 28 -17q4 -10 8 -28q4 -22 6 -45q5 -103 4 -133q0 -18 -3 -34q-5 -24 -20 -36q-12 -11 -23 1q-9 10 -27 39zM740 1166q2 -46 -14 -138q-24 -131 -65 -263q-41 -130 -90 -359
q-3 -16 -10.5 -49.5t-11.5 -50.5q-4 -14 -7 -21q-5 -10 -12.5 -10t-12.5 10q-8 14 -8 38q-2 130 1 195q4 72 5 108q0 10 -2 12q-2 -2 -10 -17q-53 -108 -102 -200q-53 -99 -120 -181q-36 -44 -76 -73q-28 -20 -55 -28q-63 -17 -109 28q-29 29 -47 77q-30 80 -30 175
q-1 135 48 278q53 157 160 318q16 24 34 42q9 9 14 12q15 10 23 -7q6 -14 2 -37t-16 -53q-62 -154 -79 -211q-43 -138 -54 -236q-3 -23 -1 -52q1 -16 10.5 -22.5t24.5 -1.5q18 6 40 26q26 25 56 67q28 40 111 179q119 197 222 433q21 48 45 82q21 29 45 42q48 25 73 -23
q16 -32 18 -89z" />
    <glyph glyph-name="uacute" unicode="&#xfa;" horiz-adv-x="696" 
d="M406 1376q-3 17 -3 34q-1 30 4 133q1 23 6 45q4 18 8 28q8 18 28 17q16 -1 36 -14q47 -31 69 -84q5 -16 6 -27q2 -17 -9 -28q-36 -36 -75 -100q-16 -26 -28 -39q-10 -11 -22 -1q-15 12 -20 36zM740 1166q2 -46 -14 -138q-24 -131 -65 -263q-41 -130 -90 -359
q-3 -16 -10.5 -49.5t-11.5 -50.5q-4 -14 -7 -21q-5 -10 -12.5 -10t-12.5 10q-8 14 -8 38q-2 130 1 195q4 72 5 108q0 10 -2 12q-2 -2 -10 -17q-53 -108 -102 -200q-53 -99 -120 -181q-36 -44 -76 -73q-28 -20 -55 -28q-63 -17 -109 28q-29 29 -47 77q-30 80 -30 175
q-1 135 48 278q53 157 160 318q16 24 34 42q9 9 14 12q15 10 23 -7q6 -14 2 -37t-16 -53q-62 -154 -79 -211q-43 -138 -54 -236q-3 -23 -1 -52q1 -16 10.5 -22.5t24.5 -1.5q18 6 40 26q26 25 56 67q28 40 111 179q119 197 222 433q21 48 45 82q21 29 45 42q48 25 73 -23
q16 -32 18 -89z" />
    <glyph glyph-name="ucircumflex" unicode="&#xfb;" horiz-adv-x="696" 
d="M385 1378q-5 1 -7 10q-2 17 5 43q15 54 57 122q22 34 36 50q19 21 32 28q28 16 49 -7q11 -13 18 -25q34 -60 46 -111q9 -44 -7 -96q-5 -18 -11 -32q-12 -26 -45 -26q-14 0 -26 10q-10 8 -17 25q-7 18 -29 94q-5 22 -12 37q-53 -72 -66 -99q-7 -14 -10 -17q-6 -8 -13 -6z
M740 1166q2 -46 -14 -138q-24 -131 -65 -263q-41 -130 -90 -359q-3 -16 -10.5 -49.5t-11.5 -50.5q-4 -14 -7 -21q-5 -10 -12.5 -10t-12.5 10q-8 14 -8 38q-2 130 1 195q4 72 5 108q0 10 -2 12q-2 -2 -10 -17q-53 -108 -102 -200q-53 -99 -120 -181q-36 -44 -76 -73
q-28 -20 -55 -28q-63 -17 -109 28q-29 29 -47 77q-30 80 -30 175q-1 135 48 278q53 157 160 318q16 24 34 42q9 9 14 12q15 10 23 -7q6 -14 2 -37t-16 -53q-62 -154 -79 -211q-43 -138 -54 -236q-3 -23 -1 -52q1 -16 10.5 -22.5t24.5 -1.5q18 6 40 26q26 25 56 67
q28 40 111 179q119 197 222 433q21 48 45 82q21 29 45 42q48 25 73 -23q16 -32 18 -89z" />
    <glyph glyph-name="udieresis" unicode="&#xfc;" horiz-adv-x="696" 
d="M387 1380q-22 19 -28 48q-2 7 -2 22q3 68 46 111q35 33 75 -1q22 -19 25 -50q7 -64 -34 -110q-10 -10 -18 -13q-5 -1 -13 -9q-24 -22 -51 2zM550 1380q-22 19 -28 48q-2 7 -2 22q3 68 46 111q35 33 75 -1q22 -19 25 -50q7 -64 -34 -110q-10 -10 -18 -13q-5 -1 -13 -9
q-24 -22 -51 2zM740 1166q2 -46 -14 -138q-24 -131 -65 -263q-41 -130 -90 -359q-3 -16 -10.5 -49.5t-11.5 -50.5q-4 -14 -7 -21q-5 -10 -12.5 -10t-12.5 10q-8 14 -8 38q-2 130 1 195q4 72 5 108q0 10 -2 12q-2 -2 -10 -17q-53 -108 -102 -200q-53 -99 -120 -181
q-36 -44 -76 -73q-28 -20 -55 -28q-63 -17 -109 28q-29 29 -47 77q-30 80 -30 175q-1 135 48 278q53 157 160 318q16 24 34 42q9 9 14 12q15 10 23 -7q6 -14 2 -37t-16 -53q-62 -154 -79 -211q-43 -138 -54 -236q-3 -23 -1 -52q1 -16 10.5 -22.5t24.5 -1.5q18 6 40 26
q26 25 56 67q28 40 111 179q119 197 222 433q21 48 45 82q21 29 45 42q48 25 73 -23q16 -32 18 -89z" />
    <glyph glyph-name="yacute" unicode="&#xfd;" horiz-adv-x="958" 
d="M512 1376q-3 17 -3 34q-1 45 3 133q1 15 7 45q4 18 8 28q8 18 27 17q16 -1 36 -14q49 -32 70 -84q5 -16 6 -27q2 -16 -10 -28q-36 -36 -75 -100q-18 -29 -27 -39q-11 -12 -23 -1q-14 11 -19 36zM1020 1317q4 -100 -25 -228q-76 -339 -240 -609q-164 -273 -418 -452
q-75 -53 -139 -81q-45 -20 -83 -24q-60 -6 -79 51q-16 47 -2 108q10 45 44 107q0 1 1 2l2 2q11 17 25 16t22 -22q6 -14 8 -34v-7q1 -7 3 -11q8 3 27 17q110 81 224 210q173 195 303 439q81 151 118 260q6 20 5 24q-6 -4 -22 -25q-27 -36 -79.5 -106.5t-79.5 -105.5
q-118 -158 -202 -255q-75 -85 -141 -134q-51 -37 -92 -50q-103 -34 -157 57q-34 55 -43 148q-18 201 62 417q0 2 5 11q71 129 121 195q8 11 22 23q89 77 189 147q24 17 31 -11q3 -12 -5 -29q-16 -28 -46 -84q-23 -41 -46 -93q-9 -20 -98 -210l-12 -27q-36 -109 -68 -189
q-9 -21 -12 -44q-3 -22 14 -31q16 -10 43 -4q22 4 46 17q36 20 65 45q80 68 147 142q106 118 264 341q62 88 96 130q33 42 62 67q23 20 46 28q34 12 58 -15q15 -17 23 -44q11 -37 13 -79z" />
    <glyph glyph-name="ydieresis" unicode="&#xff;" horiz-adv-x="958" 
d="M538 1380q-22 19 -28 48q-2 7 -2 22q3 68 46 111q35 33 75 -1q22 -19 25 -50q7 -65 -33 -110q-9 -9 -19 -13q-5 -1 -13 -9q-24 -22 -51 2zM701 1380q-22 19 -28 48q-2 7 -2 22q3 68 46 111q35 33 75 -1q22 -19 25 -50q7 -64 -34 -110q-10 -10 -18 -13q-5 -1 -13 -9
q-24 -22 -51 2zM1020 1317q4 -100 -25 -228q-76 -339 -240 -609q-164 -273 -418 -452q-75 -53 -139 -81q-45 -20 -83 -24q-60 -6 -79 51q-16 47 -2 108q10 45 44 107q0 1 1 2l2 2q11 17 25 16t22 -22q6 -14 8 -34v-7q1 -7 3 -11q8 3 27 17q110 81 224 210q173 195 303 439
q81 151 118 260q6 20 5 24q-6 -4 -22 -25q-27 -36 -79.5 -106.5t-79.5 -105.5q-118 -158 -202 -255q-75 -85 -141 -134q-51 -37 -92 -50q-103 -34 -157 57q-34 55 -43 148q-18 201 62 417q0 2 5 11q71 129 121 195q8 11 22 23q89 77 189 147q24 17 31 -11q3 -12 -5 -29
q-16 -28 -46 -84q-23 -41 -46 -93q-9 -20 -98 -210l-12 -27q-36 -109 -68 -189q-9 -21 -12 -44q-3 -22 14 -31q16 -10 43 -4q22 4 46 17q36 20 65 45q80 68 147 142q106 118 264 341q62 88 96 130q33 42 62 67q23 20 46 28q34 12 58 -15q15 -17 23 -44q11 -37 13 -79z" />
    </font>
</defs>
</svg>
